<svg width="52" height="52" viewBox="0 0 52 52" fill="none" xmlns="http://www.w3.org/2000/svg">
<circle cx="26" cy="26" r="26" fill="#6AD035"/>
<path d="M24.6076 24.1577C24.6076 24.1577 27.3588 22.8992 29.2611 21.9919C31.1635 21.0846 33.2122 19.5627 33.3293 17.514C33.4171 16.1092 31.7781 14.9092 29.466 14.3531C27.0661 13.7678 23.8174 13.9141 22.9686 14.7628C22.0028 15.7287 21.9443 16.8994 22.7345 19.0652C23.5247 21.2309 24.6076 24.1577 24.6076 24.1577Z" fill="white"/>
<path d="M25.1338 25.6211C25.1338 25.6211 26.9484 30.4795 27.5923 32.294C28.2361 34.1086 29.2898 37.2695 32.3336 35.8354C35.3774 34.4013 38.4212 24.8016 36.87 22.548C35.1725 20.0602 27.124 24.8601 25.1338 25.6211Z" fill="white"/>
<path d="M23.7299 26.2942C23.7299 26.2942 24.7543 29.0453 25.4567 31.0062C26.1591 32.9672 26.686 36.1866 25.6031 37.5036C24.8714 38.4109 22.5592 37.9426 21.2715 37.1524C19.7203 36.2158 17.1448 34.6061 16.7936 32.616C16.3838 30.3916 17.9935 28.9575 20.0715 27.9917C22.1788 26.9966 23.7299 26.2942 23.7299 26.2942Z" fill="white"/>
<path d="M23.1736 24.8016C23.1736 24.8016 22.12 21.9334 21.359 19.8554C20.6273 17.8067 19.3981 16.4311 17.4079 18.0994C15.6226 19.6213 15.0958 22.7821 15.008 24.3918C14.8909 26.6162 16.0616 28.1088 18.4615 26.9674C20.8907 25.8845 23.1736 24.8016 23.1736 24.8016Z" fill="white"/>
</svg>
