<svg width="92" height="92" viewBox="0 0 92 92" fill="none" xmlns="http://www.w3.org/2000/svg">
<path d="M46 40.2501L54.2944 25.8894C54.6115 25.3428 55.0998 24.9159 55.6839 24.6747C56.268 24.4335 56.9154 24.3915 57.5257 24.5551C58.1361 24.7187 58.6756 25.0789 59.0607 25.58C59.4458 26.081 59.6551 26.695 59.6563 27.3269C59.6533 27.8316 59.5196 28.3269 59.2681 28.7644L50.9738 43.1251L46 40.2501Z" fill="#6AD035"/>
<path d="M20.0244 59.3975L13.4694 73.6C13.122 74.3579 12.9407 75.1813 12.9375 76.015V76.1875C12.9375 74.6625 13.5433 73.2 14.6216 72.1216C15.7 71.0433 17.1625 70.4375 18.6875 70.4375H73.3125C74.8375 70.4375 76.3 71.0433 77.3784 72.1216C78.4567 73.2 79.0625 74.6625 79.0625 76.1875V76.015C79.0593 75.1813 78.878 74.3579 78.5306 73.6L71.9756 59.3975C71.5147 58.4016 70.7785 57.5584 69.8539 56.9675C68.9293 56.3766 67.8548 56.0625 66.7575 56.0625H25.2425C24.1452 56.0625 23.0707 56.3766 22.1461 56.9675C21.2215 57.5584 20.4853 58.4016 20.0244 59.3975Z" fill="#939598"/>
<path d="M73.3125 70.4375H18.6875C15.5119 70.4375 12.9375 73.0119 12.9375 76.1875V81.9375C12.9375 85.1131 15.5119 87.6875 18.6875 87.6875H73.3125C76.4881 87.6875 79.0625 85.1131 79.0625 81.9375V76.1875C79.0625 73.0119 76.4881 70.4375 73.3125 70.4375Z" fill="#2488FF"/>
<path d="M50.3125 78.1875C50.3125 77.0829 51.2079 76.1875 52.3125 76.1875H71.3125C72.4171 76.1875 73.3125 77.0829 73.3125 78.1875V79.9375C73.3125 81.0421 72.4171 81.9375 71.3125 81.9375H52.3125C51.2079 81.9375 50.3125 81.0421 50.3125 79.9375V78.1875Z" fill="#5EA7FF"/>
<path d="M46 4.31252V15.8125C51.2585 15.808 56.4251 17.1905 60.9788 19.8203L66.8394 9.90152C60.5074 6.23343 53.3178 4.30523 46 4.31252Z" fill="#EE8700"/>
<path d="M66.8436 9.89868L60.9829 19.8174C65.5287 22.4402 69.3201 26.1925 71.9898 30.7108L82.1012 25.1563C78.4368 18.824 73.1759 13.5631 66.8436 9.89868Z" fill="#ED1C24"/>
<path d="M87.6877 46C87.6966 38.681 85.7693 31.4899 82.1015 25.1562L71.9858 30.7093C74.7347 35.3362 76.1862 40.6182 76.1877 46H87.6877Z" fill="#AB2300"/>
<path d="M46 4.31253V15.8125C40.7415 15.8081 35.5749 17.1905 31.0212 19.8203L25.1562 9.89866C31.4899 6.23083 38.681 4.30361 46 4.31253Z" fill="#FF9811"/>
<path d="M25.1561 9.89868L31.0168 19.8174C26.471 22.4402 22.6796 26.1925 20.0098 30.7108L9.89844 25.1563C13.5629 18.824 18.8237 13.5631 25.1561 9.89868Z" fill="#FFCD00"/>
<path d="M4.31253 46C4.30361 38.681 6.23083 31.4899 9.89866 25.1562L20.0143 30.7093C17.2655 35.3362 15.814 40.6182 15.8125 46H4.31253Z" fill="#FFDE55"/>
<path d="M46 51.75C49.1756 51.75 51.75 49.1756 51.75 46C51.75 42.8244 49.1756 40.25 46 40.25C42.8244 40.25 40.25 42.8244 40.25 46C40.25 49.1756 42.8244 51.75 46 51.75Z" fill="#222638"/>
<path d="M78.5306 73.6L71.9785 59.4033C71.5182 58.4059 70.7819 57.5612 69.8567 56.9691C68.9314 56.3771 67.856 56.0625 66.7575 56.0625H65.4062L69.7949 64.8399C70.014 65.2782 70.1173 65.7652 70.0952 66.2547C70.0731 66.7442 69.9263 67.2199 69.6686 67.6367C69.411 68.0535 69.0511 68.3975 68.6231 68.6361C68.1951 68.8747 67.7132 69 67.2233 69H19.2711C18.1727 69 17.0972 69.3146 16.1719 69.9066C15.2467 70.4987 14.5104 71.3434 14.0501 72.3408L13.4751 73.6C13.1258 74.3575 12.9425 75.1809 12.9375 76.015V76.1875C12.9375 74.6625 13.5433 73.2 14.6216 72.1216C15.7 71.0433 17.1625 70.4375 18.6875 70.4375H73.3125C74.8375 70.4375 76.3 71.0433 77.3784 72.1216C78.4567 73.2 79.0625 74.6625 79.0625 76.1875V76.015C79.0593 75.1813 78.878 74.3579 78.5306 73.6Z" fill="#808285"/>
<path d="M40.25 81.9375C40.25 81.1436 40.8936 80.5 41.6875 80.5C42.4814 80.5 43.125 81.1436 43.125 81.9375C43.125 82.7314 42.4814 83.375 41.6875 83.375C40.8936 83.375 40.25 82.7314 40.25 81.9375Z" fill="white"/>
<path d="M35.9375 81.9375C35.9375 81.1436 36.5811 80.5 37.375 80.5C38.1689 80.5 38.8125 81.1436 38.8125 81.9375C38.8125 82.7314 38.1689 83.375 37.375 83.375C36.5811 83.375 35.9375 82.7314 35.9375 81.9375Z" fill="white"/>
<path d="M31.625 81.9375C31.625 81.1436 32.2686 80.5 33.0625 80.5C33.8564 80.5 34.5 81.1436 34.5 81.9375C34.5 82.7314 33.8564 83.375 33.0625 83.375C32.2686 83.375 31.625 82.7314 31.625 81.9375Z" fill="white"/>
<path d="M27.3125 81.9375C27.3125 81.1436 27.9561 80.5 28.75 80.5C29.5439 80.5 30.1875 81.1436 30.1875 81.9375C30.1875 82.7314 29.5439 83.375 28.75 83.375C27.9561 83.375 27.3125 82.7314 27.3125 81.9375Z" fill="white"/>
<path d="M18.6875 81.9375C18.6875 81.1436 19.3311 80.5 20.125 80.5C20.9189 80.5 21.5625 81.1436 21.5625 81.9375C21.5625 82.7314 20.9189 83.375 20.125 83.375C19.3311 83.375 18.6875 82.7314 18.6875 81.9375Z" fill="white"/>
<path d="M40.25 76.1875C40.25 75.3936 40.8936 74.75 41.6875 74.75C42.4814 74.75 43.125 75.3936 43.125 76.1875C43.125 76.9814 42.4814 77.625 41.6875 77.625C40.8936 77.625 40.25 76.9814 40.25 76.1875Z" fill="white"/>
<path d="M35.9375 76.1875C35.9375 75.3936 36.5811 74.75 37.375 74.75C38.1689 74.75 38.8125 75.3936 38.8125 76.1875C38.8125 76.9814 38.1689 77.625 37.375 77.625C36.5811 77.625 35.9375 76.9814 35.9375 76.1875Z" fill="white"/>
<path d="M31.625 76.1875C31.625 75.3936 32.2686 74.75 33.0625 74.75C33.8564 74.75 34.5 75.3936 34.5 76.1875C34.5 76.9814 33.8564 77.625 33.0625 77.625C32.2686 77.625 31.625 76.9814 31.625 76.1875Z" fill="white"/>
<path d="M27.3125 76.1875C27.3125 75.3936 27.9561 74.75 28.75 74.75C29.5439 74.75 30.1875 75.3936 30.1875 76.1875C30.1875 76.9814 29.5439 77.625 28.75 77.625C27.9561 77.625 27.3125 76.9814 27.3125 76.1875Z" fill="white"/>
<path d="M23 81.9375C23 81.1436 23.6436 80.5 24.4375 80.5C25.2314 80.5 25.875 81.1436 25.875 81.9375C25.875 82.7314 25.2314 83.375 24.4375 83.375C23.6436 83.375 23 82.7314 23 81.9375Z" fill="white"/>
<path d="M23 76.1875C23 75.3936 23.6436 74.75 24.4375 74.75C25.2314 74.75 25.875 75.3936 25.875 76.1875C25.875 76.9814 25.2314 77.625 24.4375 77.625C23.6436 77.625 23 76.9814 23 76.1875Z" fill="white"/>
<path d="M18.6875 76.1875C18.6875 75.3936 19.3311 74.75 20.125 74.75C20.9189 74.75 21.5625 75.3936 21.5625 76.1875C21.5625 76.9814 20.9189 77.625 20.125 77.625C19.3311 77.625 18.6875 76.9814 18.6875 76.1875Z" fill="white"/>
</svg>
