<svg width="142" height="32" viewBox="0 0 142 32" fill="none" xmlns="http://www.w3.org/2000/svg">
<g clip-path="url(#clip0)">
<path d="M12.7842 13.564C12.7842 13.564 16.448 11.888 18.9815 10.6797C21.515 9.47142 24.2434 7.44463 24.3993 4.71625C24.5162 2.84536 22.3335 1.24731 19.2543 0.506746C16.0582 -0.272791 11.7318 -0.0779066 10.6015 1.05242C9.31525 2.33866 9.23729 3.89773 10.2897 6.78202C11.342 9.66631 12.7842 13.564 12.7842 13.564Z" fill="#6AD035"/>
<path d="M13.4854 15.5129C13.4854 15.5129 15.9019 21.983 16.7594 24.3996C17.6169 26.8162 19.0201 31.0257 23.0737 29.1158C27.1273 27.2059 31.1808 14.4215 29.1151 11.4203C26.8544 8.10728 16.1358 14.4995 13.4854 15.5129Z" fill="#6AD035"/>
<path d="M11.6148 16.4093C11.6148 16.4093 12.979 20.0731 13.9145 22.6846C14.8499 25.296 15.5515 29.5835 14.1094 31.3374C13.1349 32.5457 10.0558 31.9221 8.34078 30.8697C6.27501 29.6225 2.84505 27.4787 2.37732 24.8283C1.83165 21.8661 3.97537 19.9562 6.74273 18.67C9.54906 17.3447 11.6148 16.4093 11.6148 16.4093Z" fill="#6AD035"/>
<path d="M10.8744 14.4215C10.8744 14.4215 9.47127 10.6017 8.45787 7.83436C7.48345 5.10598 5.84642 3.27407 3.196 5.49575C0.818409 7.52255 0.116826 11.732 -0.000104804 13.8758C-0.156012 16.838 1.40306 18.8258 4.59916 17.3057C7.83424 15.8636 10.8744 14.4215 10.8744 14.4215Z" fill="#6AD035"/>
<path d="M48.682 16.7212C49.4226 16.4093 50.0462 15.9806 50.514 15.357C51.0596 14.6554 51.3325 13.7979 51.3325 12.7845C51.3325 11.927 51.0986 11.1475 50.6699 10.4459C50.2411 9.7443 49.5785 9.23761 48.721 8.84784C47.8635 8.45807 46.8501 8.26318 45.6808 8.26318H38.1973V25.6079H45.9926C47.1619 25.6079 48.1753 25.413 49.0718 25.0232C49.9293 24.6335 50.5919 24.0488 51.0596 23.3472C51.5274 22.6456 51.7612 21.7882 51.7612 20.8917C51.7612 19.8393 51.4494 18.9428 50.8258 18.1243C50.2411 17.4227 49.5395 16.916 48.682 16.7212ZM41.8221 11.2644H45.1741C45.9537 11.2644 46.5773 11.4593 47.006 11.8101C47.4348 12.1609 47.6297 12.6676 47.6297 13.3302C47.6297 13.9928 47.4348 14.4995 47.006 14.8503C46.5773 15.2011 45.9537 15.3959 45.1741 15.3959H41.8221V11.2644ZM47.3958 22.061C46.9671 22.4508 46.3045 22.6456 45.4859 22.6456H41.8221V18.2023H45.408C46.2265 18.2023 46.8501 18.3972 47.3179 18.7869C47.7856 19.1767 48.0194 19.7224 48.0194 20.4629C48.0584 21.1645 47.8246 21.6712 47.3958 22.061Z" fill="white"/>
<path d="M74.4454 8.45801H70.7816V11.81H69.1445V14.8112H70.7816V21.2814C70.7816 24.1657 72.2627 25.6078 75.2249 25.6078H77.4856V22.2168H75.8096C75.3029 22.2168 74.9521 22.1389 74.7572 21.944C74.5623 21.7491 74.4454 21.4373 74.4454 21.0086V14.8502H77.4856V11.849H74.4454V8.45801Z" fill="white"/>
<path d="M87.4247 11.6152C86.5672 11.6152 85.7487 11.7711 85.0471 12.1219C84.4235 12.4337 83.8778 12.8235 83.4491 13.3302V11.8101H79.8242V25.6079H83.4491V18.0074C83.4491 16.9551 83.7219 16.1365 84.2286 15.5909C84.7743 15.0452 85.4759 14.7334 86.4113 14.7334C87.3078 14.7334 88.0483 15.0062 88.555 15.5909C89.0617 16.1365 89.3346 16.9551 89.3346 18.0074V25.6079H92.9594V17.5397C92.9594 15.6688 92.4527 14.2267 91.4393 13.1743C90.3869 12.1609 89.0617 11.6152 87.4247 11.6152Z" fill="white"/>
<path d="M102.08 11.5762C98.1434 11.5762 94.9473 14.7723 94.9473 18.7089C94.9473 22.6456 98.1434 25.8417 102.08 25.8417C106.017 25.8417 109.213 22.6456 109.213 18.7089C109.174 14.7723 105.978 11.5762 102.08 11.5762ZM102.08 22.3338C100.092 22.3338 98.4942 20.7357 98.4942 18.7479C98.4942 16.7601 100.092 15.162 102.08 15.162C104.068 15.162 105.666 16.7601 105.666 18.7479C105.666 20.7357 104.068 22.3338 102.08 22.3338Z" fill="white"/>
<path d="M128.702 11.6152C127.689 11.6152 126.753 11.8491 125.896 12.3558C125.077 12.8235 124.453 13.4082 124.025 14.1487C123.557 13.3692 122.933 12.7456 122.115 12.3168C121.257 11.8491 120.283 11.6152 119.231 11.6152C118.373 11.6152 117.594 11.7711 116.892 12.1219C116.268 12.3948 115.762 12.8235 115.333 13.2912V11.8101H111.708V25.6079H115.333V18.0074C115.333 16.9551 115.606 16.1755 116.112 15.6298C116.658 15.0842 117.36 14.8113 118.295 14.8113C119.192 14.8113 119.932 15.0842 120.439 15.6298C120.946 16.1755 121.218 16.9551 121.218 18.0074V25.6079H124.843V18.0074C124.843 16.9551 125.116 16.1755 125.623 15.6298C126.168 15.0842 126.87 14.8113 127.766 14.8113C128.663 14.8113 129.403 15.0842 129.91 15.6298C130.417 16.1755 130.69 16.9551 130.69 18.0074V25.6079H134.315V17.5397C134.315 15.6688 133.808 14.2267 132.756 13.1743C131.703 12.1219 130.378 11.6152 128.702 11.6152Z" fill="white"/>
<path d="M141.057 11.8101H137.433V25.6079H141.057V11.8101Z" fill="white"/>
<path d="M139.264 10.3679C139.887 10.3679 140.433 10.173 140.823 9.74427C141.252 9.3545 141.446 8.8478 141.446 8.22417C141.446 7.60054 141.252 7.13282 140.823 6.70407C140.394 6.31431 139.887 6.08044 139.264 6.08044C138.64 6.08044 138.094 6.27533 137.705 6.70407C137.276 7.09384 137.081 7.60054 137.081 8.22417C137.081 8.8478 137.276 9.31552 137.705 9.74427C138.133 10.173 138.64 10.3679 139.264 10.3679Z" fill="white"/>
<path d="M63.2985 21.2035C62.7528 22.2558 61.8954 22.8015 60.6481 22.8015C59.7906 22.8015 59.05 22.5287 58.4654 21.983C57.9197 21.4763 57.5689 20.7357 57.491 19.8393C57.452 19.6444 57.452 19.4495 57.452 19.4495H67.4691C67.508 19.1377 67.547 18.7869 67.547 18.4361C67.547 17.1109 67.2742 15.9026 66.6895 14.8502C66.1049 13.7979 65.2863 13.0183 64.2729 12.4337C63.2206 11.888 62.0513 11.5762 60.765 11.5762C59.4008 11.5762 58.1926 11.888 57.1402 12.4337C56.0878 13.0183 55.2693 13.8368 54.6846 14.9282C54.1 16.0195 53.8271 17.2668 53.8271 18.67C53.8271 20.0731 54.139 21.3204 54.7236 22.4117C55.3083 23.5031 56.1268 24.3216 57.1792 24.9063C58.2315 25.4909 59.4398 25.8027 60.765 25.8027C62.4021 25.8027 63.8052 25.374 64.9356 24.5165C66.0659 23.659 66.8454 22.5676 67.2352 21.2424L67.2742 21.1255H63.3765L63.2985 21.2035ZM58.5433 15.3569C59.089 14.8502 59.7906 14.6164 60.6091 14.6164C61.4666 14.6164 62.2461 14.8892 62.8308 15.3959C63.4155 15.9026 63.7273 16.5262 63.7662 17.3447H57.53C57.6859 16.4873 57.9977 15.8246 58.5433 15.3569Z" fill="white"/>
</g>
<defs>
<clipPath id="clip0">
<rect width="141.486" height="32" fill="white"/>
</clipPath>
</defs>
</svg>
