<svg width="148" height="34" viewBox="0 0 148 34" fill="none" xmlns="http://www.w3.org/2000/svg">
<path d="M143.773 1H4.51307C2.57286 1 1 2.57286 1 4.51307V29.4869C1 31.4271 2.57286 33 4.51307 33H143.773C145.713 33 147.286 31.4271 147.286 29.4869V4.51307C147.286 2.57286 145.713 1 143.773 1Z" fill="black"/>
<path d="M143.773 1.21948H4.51324C2.69428 1.21948 1.21973 2.69404 1.21973 4.51299V29.4868C1.21973 31.3058 2.69428 32.7804 4.51324 32.7804H143.773C145.592 32.7804 147.066 31.3058 147.066 29.4868V4.51299C147.066 2.69404 145.592 1.21948 143.773 1.21948Z" stroke="white" stroke-opacity="0.2" stroke-width="0.960606"/>
<path d="M17.0004 7.34021C19.5143 9.5958 22.8202 10.762 26.1929 10.5829C26.4585 11.6112 26.6004 12.6885 26.6004 13.8C26.6004 19.7648 22.5214 24.776 17.0004 26.1968C11.4793 24.776 7.40039 19.7637 7.40039 13.8C7.39953 12.7147 7.53644 11.6337 7.80785 10.5829C11.1806 10.762 14.4866 9.5958 17.0004 7.34021Z" fill="url(#paint0_linear)"/>
<path d="M12.8857 17.5943L15.2368 19.9714L21.1143 14.0286" stroke="white" stroke-width="2.66667" stroke-linecap="round" stroke-linejoin="round"/>
<path d="M39.4219 11.5811L36.9794 7.46736C36.9675 7.44702 36.9504 7.43011 36.9297 7.41831C36.909 7.40647 36.8855 7.40016 36.8615 7.40003C36.8375 7.39989 36.8138 7.40588 36.793 7.41744C36.7721 7.42901 36.7548 7.44574 36.7427 7.4659L36.0112 8.69854C35.9872 8.73886 35.9746 8.78462 35.9746 8.83125C35.9746 8.87783 35.9872 8.92359 36.0112 8.96396L37.6039 11.6476C37.6279 11.688 37.6623 11.7215 37.7039 11.7448C37.7454 11.7681 37.7926 11.7803 37.8405 11.7803H39.3035C39.3275 11.7802 39.351 11.7741 39.3717 11.7624C39.3924 11.7507 39.4097 11.7339 39.4216 11.7138C39.4336 11.6936 39.4399 11.6707 39.44 11.6474C39.44 11.6241 39.4338 11.6013 39.4219 11.5811Z" fill="#CACED4"/>
<path d="M33.0188 13.731L35.4613 9.61727C35.4733 9.59711 35.4906 9.58037 35.5113 9.56876C35.532 9.55715 35.5555 9.55103 35.5795 9.55103C35.6034 9.55103 35.6269 9.55715 35.6477 9.56876C35.6684 9.58037 35.6856 9.59711 35.6976 9.61727L36.4295 10.8488C36.4534 10.8892 36.466 10.9351 36.466 10.9817C36.466 11.0284 36.4534 11.0742 36.4295 11.1146L34.8368 13.7982C34.8129 13.8386 34.7785 13.8722 34.737 13.8955C34.6955 13.9188 34.6485 13.931 34.6005 13.931H33.1371C33.1131 13.931 33.0893 13.925 33.0684 13.9133C33.0475 13.9016 33.0302 13.8847 33.0182 13.8644C33.0062 13.8441 32.9999 13.8211 33 13.7976C33.0001 13.7742 33.0066 13.7512 33.0188 13.731Z" fill="#CACED4"/>
<path d="M35.6979 13.9301H40.5829C40.6068 13.9301 40.6304 13.9239 40.6511 13.9122C40.6719 13.9006 40.6891 13.8838 40.701 13.8636C40.713 13.8434 40.7193 13.8205 40.7192 13.7972C40.7192 13.7739 40.7128 13.751 40.7008 13.7308L39.9701 12.4986C39.9461 12.4582 39.9116 12.4246 39.87 12.4013C39.8285 12.378 39.7814 12.3658 39.7334 12.3658H36.5481C36.5001 12.3658 36.453 12.378 36.4114 12.4013C36.3699 12.4246 36.3354 12.4582 36.3114 12.4986L35.5799 13.7308C35.5679 13.751 35.5616 13.7739 35.5615 13.7972C35.5615 13.8205 35.5678 13.8434 35.5797 13.8636C35.5917 13.8838 35.6089 13.9006 35.6296 13.9122C35.6504 13.9239 35.6739 13.9301 35.6979 13.9301Z" fill="#CACED4"/>
<path d="M44.8261 11.438V11.3459C44.8261 11.1146 44.746 10.9375 44.5858 10.8148C44.4305 10.6873 44.2266 10.6236 43.9742 10.6236C43.78 10.6236 43.6271 10.6567 43.5154 10.7228C43.4086 10.7841 43.3067 10.8786 43.2096 11.006C43.1805 11.0438 43.1489 11.0697 43.1149 11.0839C43.081 11.098 43.0348 11.1051 42.9765 11.1051H42.7581C42.7047 11.1051 42.6562 11.0862 42.6125 11.0485C42.5737 11.0107 42.5567 10.9659 42.5615 10.9139C42.5761 10.7723 42.6464 10.6331 42.7727 10.4962C42.9038 10.3545 43.0761 10.2389 43.2897 10.1492C43.5033 10.0595 43.7314 10.0146 43.9742 10.0146C44.4256 10.0146 44.7897 10.1374 45.0664 10.3829C45.348 10.6284 45.4888 10.973 45.4888 11.4167V13.5764C45.4888 13.6284 45.4693 13.6732 45.4305 13.711C45.3917 13.7487 45.3455 13.7676 45.2921 13.7676H45.0227C44.9693 13.7676 44.9232 13.7487 44.8844 13.711C44.8455 13.6732 44.8261 13.6284 44.8261 13.5764V13.2861C44.7484 13.456 44.5834 13.5906 44.331 13.6897C44.0785 13.7889 43.8261 13.8384 43.5737 13.8384C43.3261 13.8384 43.1052 13.796 42.911 13.711C42.7168 13.6213 42.5663 13.5009 42.4596 13.3498C42.3576 13.1988 42.3066 13.0288 42.3066 12.84C42.3066 12.4859 42.4425 12.2098 42.7144 12.0115C42.9863 11.8085 43.3479 11.6716 43.7994 11.6008L44.8261 11.438ZM44.8261 12.0044L43.9669 12.1389C43.6513 12.1862 43.4062 12.2641 43.2314 12.3726C43.0567 12.4765 42.9693 12.6087 42.9693 12.7692C42.9693 12.8872 43.0251 12.9934 43.1368 13.0878C43.2484 13.1822 43.4183 13.2295 43.6465 13.2295C43.996 13.2295 44.28 13.1327 44.4985 12.9391C44.7169 12.7456 44.8261 12.493 44.8261 12.1815V12.0044Z" fill="#CACED4"/>
<path d="M47.2136 13.5764C47.2136 13.6283 47.1939 13.6732 47.155 13.7109C47.1162 13.7487 47.07 13.7676 47.017 13.7676H46.7473C46.694 13.7676 46.6479 13.7487 46.6091 13.7109C46.5702 13.6732 46.5508 13.6283 46.5508 13.5764V8.93121C46.5508 8.87928 46.5702 8.83444 46.6091 8.79668C46.6479 8.75887 46.694 8.73999 46.7473 8.73999H47.017C47.07 8.73999 47.1162 8.75887 47.155 8.79668C47.1939 8.83444 47.2136 8.87928 47.2136 8.93121V13.5764Z" fill="#CACED4"/>
<path d="M49.8361 13.2295C50.3216 13.2295 50.6493 13.0453 50.8194 12.6771C50.8532 12.6063 50.8875 12.5567 50.9213 12.5284C50.9552 12.5001 51.0013 12.4859 51.0594 12.4859H51.2779C51.3314 12.4859 51.3776 12.5048 51.4164 12.5426C51.4553 12.5757 51.4745 12.6157 51.4745 12.663C51.4745 12.8235 51.4091 12.9958 51.2779 13.1799C51.1472 13.364 50.9575 13.5198 50.7101 13.6472C50.4624 13.7747 50.1712 13.8384 49.8361 13.8384C49.4919 13.8384 49.1929 13.7676 48.9405 13.626C48.6882 13.4844 48.4939 13.2908 48.3581 13.0453C48.2224 12.7951 48.1469 12.5166 48.1323 12.2098C48.1277 12.1531 48.125 12.0445 48.125 11.884C48.125 11.7708 48.1277 11.6905 48.1323 11.6433C48.1762 11.1618 48.3435 10.77 48.6347 10.4679C48.9259 10.1657 49.3264 10.0146 49.8361 10.0146C50.1712 10.0146 50.4601 10.0784 50.7028 10.2058C50.9506 10.3286 51.1371 10.482 51.2633 10.6661C51.3945 10.8455 51.4649 11.0154 51.4745 11.1759C51.4795 11.2279 51.4603 11.2727 51.4164 11.3105C51.3776 11.3483 51.3314 11.3672 51.2779 11.3672H51.0594C51.0013 11.3672 50.9552 11.353 50.9213 11.3246C50.8875 11.2963 50.8532 11.2467 50.8194 11.1759C50.6493 10.8077 50.3216 10.6236 49.8361 10.6236C49.5691 10.6236 49.3364 10.711 49.1371 10.8856C48.9383 11.0603 48.824 11.3246 48.7952 11.6787C48.7901 11.7306 48.7879 11.8156 48.7879 11.9336C48.7879 12.0422 48.7901 12.1224 48.7952 12.1744C48.829 12.5284 48.9433 12.7928 49.1371 12.9675C49.3364 13.1421 49.5691 13.2295 49.8361 13.2295Z" fill="#CACED4"/>
<path d="M55.7098 13.5764C55.7098 13.6283 55.6902 13.6732 55.6518 13.7109C55.6129 13.7487 55.5667 13.7676 55.5132 13.7676H55.244C55.1905 13.7676 55.1443 13.7487 55.1055 13.7109C55.0666 13.6732 55.047 13.6283 55.047 13.5764V11.707C55.047 11.3529 54.9574 11.0839 54.7777 10.8997C54.598 10.7156 54.348 10.6236 54.0275 10.6236C53.7121 10.6236 53.462 10.7156 53.2778 10.8997C53.0982 11.0839 53.0081 11.3529 53.0081 11.707V13.5764C53.0081 13.6283 52.9889 13.6732 52.95 13.7109C52.9112 13.7487 52.865 13.7676 52.8115 13.7676H52.5423C52.4888 13.7676 52.4426 13.7487 52.4038 13.7109C52.3649 13.6732 52.3457 13.6283 52.3457 13.5764V8.93121C52.3457 8.87928 52.3649 8.83444 52.4038 8.79668C52.4426 8.75887 52.4888 8.73999 52.5423 8.73999H52.8115C52.865 8.73999 52.9112 8.75887 52.95 8.79668C52.9889 8.83444 53.0081 8.87928 53.0081 8.93121V10.4961C53.1151 10.3592 53.2609 10.2459 53.4451 10.1562C53.6344 10.0618 53.8652 10.0146 54.1368 10.0146C54.4426 10.0146 54.7146 10.0783 54.9523 10.2058C55.1905 10.3332 55.3747 10.5174 55.5059 10.7581C55.6417 10.9942 55.7098 11.275 55.7098 11.6007V13.5764Z" fill="#CACED4"/>
<path d="M58.2624 10.0146C58.7817 10.0146 59.1917 10.1752 59.493 10.4962C59.7938 10.8172 59.9442 11.2538 59.9442 11.8061V11.9974C59.9442 12.0493 59.925 12.0941 59.8861 12.1319C59.8473 12.1697 59.8011 12.1885 59.7476 12.1885H57.2429V12.231C57.2525 12.5426 57.3494 12.788 57.5341 12.9675C57.7234 13.1421 57.9661 13.2295 58.2624 13.2295C58.5051 13.2295 58.6921 13.1988 58.8228 13.1374C58.959 13.076 59.0802 12.9887 59.1872 12.8754C59.226 12.8376 59.2598 12.8117 59.2891 12.7975C59.3229 12.7833 59.3668 12.7762 59.4198 12.7762H59.6384C59.6969 12.7762 59.7453 12.7951 59.7842 12.8329C59.823 12.8707 59.84 12.9155 59.8349 12.9675C59.8157 13.0949 59.743 13.2271 59.6164 13.364C59.4953 13.4962 59.3179 13.6095 59.0852 13.7039C58.8571 13.7936 58.5828 13.8384 58.2624 13.8384C57.9515 13.8384 57.6749 13.77 57.4322 13.6331C57.1894 13.4914 56.9952 13.2979 56.8498 13.0524C56.709 12.807 56.624 12.5308 56.5947 12.2239C56.5851 12.0823 56.5801 11.9737 56.5801 11.8982C56.5801 11.8227 56.5851 11.7141 56.5947 11.5725C56.624 11.2798 56.709 11.0154 56.8498 10.7794C56.9952 10.5434 57.1872 10.3569 57.4249 10.22C57.6676 10.0831 57.9469 10.0146 58.2624 10.0146ZM59.2891 11.5937V11.5725C59.2891 11.2845 59.1945 11.0556 59.0048 10.8856C58.8205 10.711 58.5728 10.6236 58.2624 10.6236C57.9808 10.6236 57.7403 10.711 57.5414 10.8856C57.3472 11.0603 57.2475 11.2893 57.2429 11.5725V11.5937H59.2891Z" fill="#CACED4"/>
<path d="M61.4847 10.4962C61.6012 10.3498 61.7324 10.2342 61.8783 10.1492C62.0236 10.0595 62.2179 10.0146 62.4607 10.0146C63.0284 10.0146 63.4266 10.22 63.6547 10.6307C63.7955 10.4324 63.956 10.2814 64.1356 10.1775C64.3148 10.069 64.5503 10.0146 64.8419 10.0146C65.3174 10.0146 65.6694 10.1539 65.8975 10.4324C66.1306 10.711 66.2472 11.1051 66.2472 11.615V13.5764C66.2472 13.6284 66.2275 13.6732 66.1887 13.711C66.1498 13.7487 66.1041 13.7676 66.0506 13.7676H65.7809C65.7279 13.7676 65.6817 13.7487 65.6428 13.711C65.604 13.6732 65.5843 13.6284 65.5843 13.5764V11.6858C65.5843 10.9777 65.2982 10.6236 64.7254 10.6236C64.463 10.6236 64.2545 10.7086 64.0991 10.8786C63.9436 11.0485 63.8659 11.301 63.8659 11.6362V13.5764C63.8659 13.6284 63.8467 13.6732 63.8079 13.711C63.769 13.7487 63.7228 13.7676 63.6694 13.7676H63.4001C63.3466 13.7676 63.3004 13.7487 63.2616 13.711C63.2227 13.6732 63.2035 13.6284 63.2035 13.5764V11.6858C63.2035 10.9777 62.9169 10.6236 62.3441 10.6236C62.0821 10.6236 61.8732 10.7086 61.7178 10.8786C61.5624 11.0485 61.4847 11.301 61.4847 11.6362V13.5764C61.4847 13.6284 61.4655 13.6732 61.4266 13.711C61.3878 13.7487 61.3416 13.7676 61.2881 13.7676H61.0188C60.9654 13.7676 60.9192 13.7487 60.8803 13.711C60.8415 13.6732 60.8223 13.6284 60.8223 13.5764V10.2766C60.8223 10.2247 60.8415 10.1799 60.8803 10.1421C60.9192 10.1043 60.9654 10.0855 61.0188 10.0855H61.2881C61.3416 10.0855 61.3878 10.1043 61.4266 10.1421C61.4655 10.1799 61.4847 10.2247 61.4847 10.2766V10.4962Z" fill="#CACED4"/>
<path d="M68.2866 14.943C68.2427 15.0563 68.1723 15.113 68.0754 15.113H67.7769C67.7284 15.113 67.6873 15.0965 67.653 15.0634C67.6191 15.0304 67.6022 14.9903 67.6022 14.943C67.6022 14.9242 67.6045 14.9077 67.6095 14.8935L68.3085 13.4135L66.8667 10.305C66.8617 10.2908 66.8594 10.2743 66.8594 10.2554C66.8594 10.2082 66.8763 10.1681 66.9101 10.135C66.9444 10.102 66.9855 10.0854 67.034 10.0854H67.3325C67.4299 10.0854 67.5003 10.1421 67.5437 10.2554L68.6651 12.663L69.8011 10.2554C69.845 10.1421 69.9154 10.0854 70.0123 10.0854H70.3108C70.3593 10.0854 70.4009 10.102 70.4347 10.135C70.4685 10.1681 70.4854 10.2082 70.4854 10.2554C70.4854 10.2743 70.4832 10.2908 70.4786 10.305L68.2866 14.943Z" fill="#CACED4"/>
<path d="M37.2679 25.3602C38.8807 25.3602 39.8023 24.4715 40.3289 23.5609L38.9904 22.9136C38.6832 23.517 38.0249 23.9778 37.2679 23.9778C35.9404 23.9778 34.9749 22.9575 34.9749 21.5751C34.9749 20.1927 35.9404 19.1723 37.2679 19.1723C38.0249 19.1723 38.6832 19.6441 38.9904 20.2365L40.3289 19.5783C39.8133 18.6676 38.8807 17.7899 37.2679 17.7899C35.0736 17.7899 33.373 19.3259 33.373 21.5751C33.373 23.8242 35.0736 25.3602 37.2679 25.3602ZM43.4945 25.3602C44.3173 25.3602 45.1511 25.1079 45.6778 24.6251L45.0634 23.7255C44.7233 24.0546 44.0979 24.2521 43.6481 24.2521C42.7484 24.2521 42.2108 23.6925 42.123 23.0233H46.0618V22.7161C46.0618 20.9826 44.9866 19.7977 43.4067 19.7977C41.7939 19.7977 40.6638 21.0375 40.6638 22.5735C40.6638 24.274 41.8817 25.3602 43.4945 25.3602ZM44.7123 22.0797H42.1011C42.1669 21.5531 42.54 20.9058 43.4067 20.9058C44.3283 20.9058 44.6794 21.5751 44.7123 22.0797ZM48.2421 25.2285V21.7287C48.4725 21.3885 49.0869 21.1252 49.5477 21.1252C49.7013 21.1252 49.8329 21.1362 49.9317 21.1581V19.7977C49.2734 19.7977 48.6151 20.1817 48.2421 20.6535V19.9293H46.8487V25.2285H48.2421ZM52.3605 25.3602C52.942 25.3602 53.315 25.2066 53.5234 25.0201L53.2272 23.9668C53.1504 24.0436 52.9529 24.1204 52.7445 24.1204C52.4373 24.1204 52.2617 23.8681 52.2617 23.5389V21.1472H53.3369V19.9293H52.2617V18.4811H50.8574V19.9293H49.9797V21.1472H50.8574V23.912C50.8574 24.8555 51.384 25.3602 52.3605 25.3602ZM54.7618 19.3588C55.2226 19.3588 55.5957 18.9858 55.5957 18.525C55.5957 18.0642 55.2226 17.7021 54.7618 17.7021C54.312 17.7021 53.928 18.0642 53.928 18.525C53.928 18.9858 54.312 19.3588 54.7618 19.3588ZM55.464 25.2285V19.9293H54.0706V25.2285H55.464ZM58.3376 25.2285V21.1472H59.4128V19.9293H58.3376V19.6441C58.3376 19.1613 58.6009 18.898 58.9959 18.898C59.1824 18.898 59.336 18.9529 59.4457 19.0297L59.731 18.0203C59.4786 17.8887 59.1166 17.8009 58.7216 17.8009C57.6793 17.8009 56.9333 18.4921 56.9333 19.6441V19.9293H56.0556V21.1472H56.9333V25.2285H58.3376ZM60.9049 19.3588C61.3657 19.3588 61.7388 18.9858 61.7388 18.525C61.7388 18.0642 61.3657 17.7021 60.9049 17.7021C60.4551 17.7021 60.0711 18.0642 60.0711 18.525C60.0711 18.9858 60.4551 19.3588 60.9049 19.3588ZM61.6071 25.2285V19.9293H60.2137V25.2285H61.6071ZM65.2615 25.3602C66.0844 25.3602 66.9182 25.1079 67.4448 24.6251L66.8304 23.7255C66.4903 24.0546 65.8649 24.2521 65.4151 24.2521C64.5154 24.2521 63.9778 23.6925 63.8901 23.0233H67.8288V22.7161C67.8288 20.9826 66.7536 19.7977 65.1737 19.7977C63.5609 19.7977 62.4309 21.0375 62.4309 22.5735C62.4309 24.274 63.6487 25.3602 65.2615 25.3602ZM66.4793 22.0797H63.8681C63.934 21.5531 64.307 20.9058 65.1737 20.9058C66.0953 20.9058 66.4464 21.5751 66.4793 22.0797ZM73.6629 25.2285V17.9106H72.2585V20.6096C71.8416 20.072 71.2492 19.7977 70.6238 19.7977C69.2743 19.7977 68.2759 20.8509 68.2759 22.5844C68.2759 24.3508 69.2853 25.3602 70.6238 25.3602C71.2601 25.3602 71.8416 25.0749 72.2585 24.5483V25.2285H73.6629ZM71.0517 24.1204C70.2617 24.1204 69.7132 23.4951 69.7132 22.5844C69.7132 21.6628 70.2617 21.0375 71.0517 21.0375C71.5234 21.0375 72.0281 21.2898 72.2585 21.6409V23.517C72.0281 23.8681 71.5234 24.1204 71.0517 24.1204ZM79.0037 25.2285V17.9106H77.4457V25.2285H79.0037ZM85.1742 25.2285V21.4873C85.1742 20.456 84.6147 19.7977 83.4517 19.7977C82.5849 19.7977 81.9376 20.2146 81.5975 20.6205V19.9293H80.2041V25.2285H81.5975V21.6628C81.8279 21.3447 82.2558 21.0375 82.8044 21.0375C83.3968 21.0375 83.7808 21.2898 83.7808 22.0249V25.2285H85.1742ZM88.0496 25.2285V21.1472H89.1248V19.9293H88.0496V19.6441C88.0496 19.1504 88.3239 18.898 88.7079 18.898C88.9602 18.898 89.1468 18.9748 89.2894 19.1175L89.816 18.2946C89.4759 17.9325 88.9383 17.8009 88.4336 17.8009C87.3694 17.8009 86.6453 18.514 86.6453 19.6441V19.9293H85.7676V21.1472H86.6453V25.2285H88.0496ZM91.1015 25.2285V21.7287C91.3319 21.3885 91.9463 21.1252 92.4071 21.1252C92.5607 21.1252 92.6924 21.1362 92.7911 21.1581V19.7977C92.1328 19.7977 91.4745 20.1817 91.1015 20.6535V19.9293H89.7081V25.2285H91.1015ZM98.0172 25.2285V21.8055C98.0172 20.2804 96.909 19.7977 95.7022 19.7977C94.8684 19.7977 94.0345 20.061 93.3872 20.6315L93.9138 21.5641C94.3637 21.1472 94.8903 20.9387 95.4608 20.9387C96.163 20.9387 96.6238 21.2898 96.6238 21.8274V22.5405C96.2727 22.1236 95.6473 21.8932 94.9452 21.8932C94.1004 21.8932 93.102 22.365 93.102 23.6048C93.102 24.7897 94.1004 25.3602 94.9452 25.3602C95.6364 25.3602 96.2617 25.1079 96.6238 24.68V25.2285H98.0172ZM95.5047 24.4167C94.9561 24.4167 94.5063 24.1314 94.5063 23.6377C94.5063 23.122 94.9561 22.8368 95.5047 22.8368C95.9545 22.8368 96.3934 22.9904 96.6238 23.2976V23.9559C96.3934 24.2631 95.9545 24.4167 95.5047 24.4167ZM101.089 25.3602C102.559 25.3602 103.382 24.6251 103.382 23.6596C103.382 21.5202 100.244 22.1785 100.244 21.3885C100.244 21.0923 100.574 20.8619 101.078 20.8619C101.726 20.8619 102.329 21.1362 102.647 21.4763L103.207 20.5218C102.68 20.1049 101.967 19.7977 101.067 19.7977C99.6738 19.7977 98.8949 20.5767 98.8949 21.4653C98.8949 23.5499 102.044 22.8368 102.044 23.7145C102.044 24.0436 101.758 24.285 101.155 24.285C100.497 24.285 99.7068 23.9229 99.3228 23.5609L98.7193 24.5373C99.2789 25.053 100.168 25.3602 101.089 25.3602ZM105.966 25.3602C106.548 25.3602 106.921 25.2066 107.129 25.0201L106.833 23.9668C106.756 24.0436 106.559 24.1204 106.35 24.1204C106.043 24.1204 105.868 23.8681 105.868 23.5389V21.1472H106.943V19.9293H105.868V18.4811H104.463V19.9293H103.586V21.1472H104.463V23.912C104.463 24.8555 104.99 25.3602 105.966 25.3602ZM109.07 25.2285V21.7287C109.3 21.3885 109.915 21.1252 110.376 21.1252C110.529 21.1252 110.661 21.1362 110.76 21.1581V19.7977C110.101 19.7977 109.443 20.1817 109.07 20.6535V19.9293H107.677V25.2285H109.07ZM116.381 25.2285V19.9293H114.988V23.517C114.746 23.8242 114.318 24.1204 113.781 24.1204C113.188 24.1204 112.804 23.8791 112.804 23.144V19.9293H111.411V23.6925C111.411 24.7239 111.96 25.3602 113.123 25.3602C113.989 25.3602 114.626 24.9652 114.988 24.5593V25.2285H116.381ZM120.014 25.3602C121.1 25.3602 121.758 24.8884 122.109 24.3947L121.198 23.5499C120.946 23.901 120.562 24.1204 120.079 24.1204C119.235 24.1204 118.642 23.4951 118.642 22.5735C118.642 21.6519 119.235 21.0375 120.079 21.0375C120.562 21.0375 120.946 21.2349 121.198 21.608L122.109 20.7522C121.758 20.2695 121.1 19.7977 120.014 19.7977C118.379 19.7977 117.205 20.9497 117.205 22.5735C117.205 24.2082 118.379 25.3602 120.014 25.3602ZM124.578 25.3602C125.16 25.3602 125.533 25.2066 125.741 25.0201L125.445 23.9668C125.368 24.0436 125.171 24.1204 124.962 24.1204C124.655 24.1204 124.479 23.8681 124.479 23.5389V21.1472H125.555V19.9293H124.479V18.4811H123.075V19.9293H122.197V21.1472H123.075V23.912C123.075 24.8555 123.602 25.3602 124.578 25.3602ZM131.258 25.2285V19.9293H129.865V23.517C129.624 23.8242 129.196 24.1204 128.658 24.1204C128.066 24.1204 127.682 23.8791 127.682 23.144V19.9293H126.288V23.6925C126.288 24.7239 126.837 25.3602 128 25.3602C128.867 25.3602 129.503 24.9652 129.865 24.5593V25.2285H131.258ZM133.816 25.2285V21.7287C134.046 21.3885 134.661 21.1252 135.122 21.1252C135.275 21.1252 135.407 21.1362 135.506 21.1581V19.7977C134.847 19.7977 134.189 20.1817 133.816 20.6535V19.9293H132.423V25.2285H133.816ZM138.647 25.3602C139.47 25.3602 140.304 25.1079 140.83 24.6251L140.216 23.7255C139.876 24.0546 139.251 24.2521 138.801 24.2521C137.901 24.2521 137.363 23.6925 137.276 23.0233H141.214V22.7161C141.214 20.9826 140.139 19.7977 138.559 19.7977C136.947 19.7977 135.816 21.0375 135.816 22.5735C135.816 24.274 137.034 25.3602 138.647 25.3602ZM139.865 22.0797H137.254C137.32 21.5531 137.693 20.9058 138.559 20.9058C139.481 20.9058 139.832 21.5751 139.865 22.0797Z" fill="white"/>
<defs>
<linearGradient id="paint0_linear" x1="33.0964" y1="-0.808493" x2="6.35175" y2="0.405746" gradientUnits="userSpaceOnUse">
<stop stop-color="#05D5FF"/>
<stop offset="1" stop-color="#5533FF"/>
</linearGradient>
</defs>
</svg>
