<svg width="17" height="17" viewBox="0 0 17 17" fill="none" xmlns="http://www.w3.org/2000/svg">
<path d="M2.89226 10.8534C2.89226 10.8534 1.71918 11.7826 1.64469 14.3358C1.64296 14.405 1.65519 14.4739 1.68066 14.5383C1.70613 14.6027 1.74432 14.6613 1.79294 14.7106C1.84156 14.7599 1.89962 14.7989 1.96365 14.8252C2.02768 14.8516 2.09636 14.8648 2.1656 14.864C4.63586 14.818 5.64804 13.6092 5.64804 13.6092C6.00105 13.2373 6.19785 12.7441 6.19785 12.2313C6.19785 11.7185 6.00105 11.2253 5.64804 10.8534C4.8871 10.0923 3.75907 10.1293 2.89226 10.8534V10.8534Z" fill="white"/>
<path d="M8.3457 11.7626C8.6949 12.2227 8.90829 12.7714 8.9617 13.3466C9.01409 14.2461 8.93463 15.1484 8.72585 16.0249C8.70927 16.0975 8.7139 16.1734 8.73919 16.2434C8.76449 16.3135 8.80938 16.3748 8.86852 16.4201C8.92767 16.4653 8.99857 16.4926 9.0728 16.4988C9.14703 16.5049 9.22145 16.4896 9.28721 16.4546C11.3704 15.357 13.0905 13.2358 11.993 10.4688C10.8897 11.1683 9.64316 11.6105 8.3457 11.7626V11.7626Z" fill="white"/>
<path d="M3.15384 7.53834C3.72963 7.59189 4.27887 7.80583 4.73918 8.15586C4.88923 6.85755 5.33152 5.61013 6.03284 4.50728C3.26512 3.40868 1.14387 5.12978 0.0451087 7.2131C0.0103883 7.27831 -0.00481038 7.35214 0.00133104 7.42576C0.00747245 7.49938 0.0346939 7.56968 0.0797386 7.62823C0.124608 7.68801 0.185769 7.73357 0.255886 7.75945C0.326002 7.78534 0.402097 7.79045 0.475045 7.77417C1.35174 7.56558 2.25419 7.48613 3.15384 7.53834V7.53834Z" fill="white"/>
<path d="M15.9031 1.18203C15.8804 1.0355 15.8117 0.9 15.7068 0.795164C15.602 0.690327 15.4664 0.621604 15.3199 0.598954C14.4677 0.470663 13.6013 0.467097 12.748 0.588367C12.8492 1.39252 13.2153 2.14007 13.7886 2.71298C14.3619 3.28588 15.1097 3.65151 15.9139 3.75212C16.0349 2.89943 16.0313 2.03367 15.9031 1.18203V1.18203Z" fill="white"/>
<path d="M12.0302 0.721436C10.7493 1.01597 9.56824 1.64175 8.60516 2.53616C5.4442 5.46292 5.45557 8.43023 5.45557 8.43023L8.07187 11.0465C8.07187 11.0465 11.0394 11.0579 13.9659 7.89711C14.8607 6.93361 15.4867 5.75191 15.781 4.47037C14.8318 4.34192 13.9508 3.90567 13.2733 3.22849C12.5958 2.55132 12.1592 1.67062 12.0302 0.721436V0.721436ZM10.825 7.20199C10.523 7.20199 10.2277 7.11243 9.9766 6.94463C9.72547 6.77684 9.52974 6.53834 9.41416 6.2593C9.29858 5.98027 9.26834 5.67323 9.32726 5.377C9.38618 5.08078 9.53162 4.80868 9.74519 4.59512C9.95875 4.38155 10.2309 4.23611 10.5271 4.17719C10.8233 4.11827 11.1303 4.14851 11.4094 4.26409C11.6884 4.37967 11.9269 4.5754 12.0947 4.82652C12.2625 5.07765 12.3521 5.37289 12.3521 5.67492C12.3521 5.87546 12.3126 6.07403 12.2358 6.2593C12.1591 6.44458 12.0466 6.61292 11.9048 6.75472C11.763 6.89652 11.5947 7.00901 11.4094 7.08575C11.2241 7.16249 11.0255 7.20199 10.825 7.20199V7.20199Z" fill="white"/>
</svg>
