<svg width="142" height="32" viewBox="0 0 142 32" fill="none" xmlns="http://www.w3.org/2000/svg">
<g clip-path="url(#clip0)">
<path d="M12.7842 13.5639C12.7842 13.5639 16.448 11.8879 18.9815 10.6796C21.515 9.4713 24.2434 7.44451 24.3993 4.71613C24.5162 2.84524 22.3335 1.24718 19.2543 0.506624C16.0582 -0.272913 11.7318 -0.0780287 10.6015 1.0523C9.31525 2.33854 9.23729 3.89761 10.2897 6.7819C11.342 9.66619 12.7842 13.5639 12.7842 13.5639Z" fill="#6AD035"/>
<path d="M13.4858 15.5126C13.4858 15.5126 15.9024 21.9828 16.7599 24.3994C17.6174 26.8159 19.0206 31.0254 23.0741 29.1156C27.1277 27.2057 31.1813 14.4213 29.1156 11.4201C26.8549 8.10704 16.1363 14.4992 13.4858 15.5126Z" fill="#6AD035"/>
<path d="M11.6153 16.4092C11.6153 16.4092 12.9795 20.073 13.915 22.6845C14.8504 25.2959 15.552 29.5834 14.1098 31.3373C13.1354 32.5456 10.0563 31.922 8.34127 30.8696C6.2755 29.6223 2.84553 27.4786 2.37781 24.8282C1.83214 21.8659 3.97586 19.9561 6.74322 18.6698C9.54955 17.3446 11.6153 16.4092 11.6153 16.4092Z" fill="#6AD035"/>
<path d="M10.8744 14.4215C10.8744 14.4215 9.47127 10.6017 8.45787 7.83436C7.48345 5.10598 5.84642 3.27407 3.196 5.49575C0.818409 7.52255 0.116826 11.732 -0.000104804 13.8758C-0.156012 16.838 1.40306 18.8258 4.59916 17.3057C7.83424 15.8636 10.8744 14.4215 10.8744 14.4215Z" fill="#6AD035"/>
<path d="M48.682 16.7209C49.4226 16.4091 50.0462 15.9804 50.514 15.3567C51.0596 14.6551 51.3325 13.7977 51.3325 12.7843C51.3325 11.9268 51.0986 11.1472 50.6699 10.4456C50.2411 9.74406 49.5785 9.23736 48.721 8.84759C47.8635 8.45782 46.8501 8.26294 45.6808 8.26294H38.1973V25.6076H45.9926C47.1619 25.6076 48.1753 25.4128 49.0718 25.023C49.9293 24.6332 50.5919 24.0486 51.0596 23.347C51.5274 22.6454 51.7612 21.7879 51.7612 20.8914C51.7612 19.8391 51.4494 18.9426 50.8258 18.1241C50.2411 17.4225 49.5395 16.9158 48.682 16.7209ZM41.8221 11.2642H45.1741C45.9537 11.2642 46.5773 11.459 47.006 11.8098C47.4348 12.1606 47.6297 12.6673 47.6297 13.3299C47.6297 13.9925 47.4348 14.4992 47.006 14.85C46.5773 15.2008 45.9537 15.3957 45.1741 15.3957H41.8221V11.2642ZM47.3958 22.0607C46.9671 22.4505 46.3045 22.6454 45.4859 22.6454H41.8221V18.202H45.408C46.2265 18.202 46.8501 18.3969 47.3179 18.7867C47.7856 19.1765 48.0194 19.7221 48.0194 20.4627C48.0584 21.1643 47.8246 21.671 47.3958 22.0607Z" fill="white"/>
<path d="M74.4459 8.45801H70.7821V11.81H69.145V14.8112H70.7821V21.2814C70.7821 24.1657 72.2632 25.6078 75.2254 25.6078H77.4861V22.2168H75.8101C75.3034 22.2168 74.9526 22.1389 74.7577 21.944C74.5628 21.7491 74.4459 21.4373 74.4459 21.0086V14.8502H77.4861V11.849H74.4459V8.45801Z" fill="white"/>
<path d="M87.4252 11.615C86.5677 11.615 85.7492 11.7709 85.0476 12.1217C84.424 12.4335 83.8783 12.8233 83.4496 13.33V11.8099H79.8247V25.6077H83.4496V18.0072C83.4496 16.9548 83.7224 16.1363 84.2291 15.5906C84.7748 15.045 85.4763 14.7331 86.4118 14.7331C87.3083 14.7331 88.0488 15.006 88.5555 15.5906C89.0622 16.1363 89.3351 16.9548 89.3351 18.0072V25.6077H92.9599V17.5395C92.9599 15.6686 92.4532 14.2264 91.4398 13.1741C90.3874 12.1607 89.0622 11.615 87.4252 11.615Z" fill="white"/>
<path d="M102.08 11.5762C98.1434 11.5762 94.9473 14.7723 94.9473 18.7089C94.9473 22.6456 98.1434 25.8417 102.08 25.8417C106.017 25.8417 109.213 22.6456 109.213 18.7089C109.174 14.7723 105.978 11.5762 102.08 11.5762ZM102.08 22.3338C100.092 22.3338 98.4942 20.7357 98.4942 18.7479C98.4942 16.7601 100.092 15.162 102.08 15.162C104.068 15.162 105.666 16.7601 105.666 18.7479C105.666 20.7357 104.068 22.3338 102.08 22.3338Z" fill="white"/>
<path d="M128.701 11.615C127.688 11.615 126.753 11.8489 125.895 12.3556C125.077 12.8233 124.453 13.4079 124.024 14.1485C123.556 13.3689 122.933 12.7453 122.114 12.3166C121.257 11.8489 120.282 11.615 119.23 11.615C118.373 11.615 117.593 11.7709 116.891 12.1217C116.268 12.3945 115.761 12.8233 115.332 13.291V11.8099H111.708V25.6077H115.332V18.0072C115.332 16.9548 115.605 16.1753 116.112 15.6296C116.658 15.0839 117.359 14.8111 118.295 14.8111C119.191 14.8111 119.932 15.0839 120.438 15.6296C120.945 16.1753 121.218 16.9548 121.218 18.0072V25.6077H124.843V18.0072C124.843 16.9548 125.116 16.1753 125.622 15.6296C126.168 15.0839 126.87 14.8111 127.766 14.8111C128.662 14.8111 129.403 15.0839 129.91 15.6296C130.416 16.1753 130.689 16.9548 130.689 18.0072V25.6077H134.314V17.5395C134.314 15.6686 133.807 14.2264 132.755 13.1741C131.703 12.1217 130.377 11.615 128.701 11.615Z" fill="white"/>
<path d="M141.057 11.8098H137.433V25.6076H141.057V11.8098Z" fill="white"/>
<path d="M139.264 10.3678C139.888 10.3678 140.434 10.1729 140.823 9.74415C141.252 9.35438 141.447 8.84768 141.447 8.22405C141.447 7.60042 141.252 7.1327 140.823 6.70395C140.395 6.31418 139.888 6.08032 139.264 6.08032C138.641 6.08032 138.095 6.27521 137.705 6.70395C137.276 7.09372 137.082 7.60042 137.082 8.22405C137.082 8.84768 137.276 9.3154 137.705 9.74415C138.134 10.1729 138.641 10.3678 139.264 10.3678Z" fill="white"/>
<path d="M63.2985 21.2035C62.7528 22.2558 61.8954 22.8015 60.6481 22.8015C59.7906 22.8015 59.05 22.5287 58.4654 21.983C57.9197 21.4763 57.5689 20.7357 57.491 19.8393C57.452 19.6444 57.452 19.4495 57.452 19.4495H67.4691C67.508 19.1377 67.547 18.7869 67.547 18.4361C67.547 17.1109 67.2742 15.9026 66.6895 14.8502C66.1049 13.7979 65.2863 13.0183 64.2729 12.4337C63.2206 11.888 62.0513 11.5762 60.765 11.5762C59.4008 11.5762 58.1926 11.888 57.1402 12.4337C56.0878 13.0183 55.2693 13.8368 54.6846 14.9282C54.1 16.0195 53.8271 17.2668 53.8271 18.67C53.8271 20.0731 54.139 21.3204 54.7236 22.4117C55.3083 23.5031 56.1268 24.3216 57.1792 24.9063C58.2315 25.4909 59.4398 25.8027 60.765 25.8027C62.4021 25.8027 63.8052 25.374 64.9356 24.5165C66.0659 23.659 66.8454 22.5676 67.2352 21.2424L67.2742 21.1255H63.3765L63.2985 21.2035ZM58.5433 15.3569C59.089 14.8502 59.7906 14.6164 60.6091 14.6164C61.4666 14.6164 62.2461 14.8892 62.8308 15.3959C63.4155 15.9026 63.7273 16.5262 63.7662 17.3447H57.53C57.6859 16.4873 57.9977 15.8246 58.5433 15.3569Z" fill="white"/>
</g>
<defs>
<clipPath id="clip0">
<rect width="141.486" height="32" fill="white"/>
</clipPath>
</defs>
</svg>
