<svg width="199" height="32" viewBox="0 0 199 32" fill="none" xmlns="http://www.w3.org/2000/svg">
<path d="M35.5285 14.3965L28.1291 1.57047C27.8462 1.09201 27.4434 0.695521 26.9605 0.420122C26.4775 0.144722 25.9311 -7.85349e-05 25.3751 3.19549e-08H10.5748C10.0166 0.000113749 9.4683 0.147032 8.98491 0.426003C8.50151 0.704973 8.10004 1.10617 7.82082 1.58932L0.421434 14.4107C0.145247 14.8949 0 15.4426 0 16C0 16.5574 0.145247 17.1051 0.421434 17.5893L7.82082 30.4107C8.09882 30.8949 8.50001 31.297 8.98369 31.5761C9.46736 31.8552 10.0163 32.0015 10.5748 32H25.3736C25.9317 31.9999 26.48 31.853 26.9634 31.574C27.4468 31.295 27.8483 30.8938 28.1275 30.4107L35.5269 17.5893C35.8035 17.1028 35.9491 16.5528 35.9494 15.9931C35.9496 15.4335 35.8046 14.8834 35.5285 14.3965ZM17.9742 26.9996V24.8009C19.717 24.8009 21.4206 24.2843 22.8697 23.3164C24.3188 22.3485 25.4482 20.9727 26.1151 19.3631C26.7821 17.7535 26.9566 15.9824 26.6166 14.2736C26.2766 12.5649 25.4373 10.9953 24.205 9.76339C22.9727 8.53145 21.4026 7.6925 19.6932 7.35261C17.9839 7.01272 16.2122 7.18716 14.6021 7.85388C12.9919 8.5206 11.6157 9.64964 10.6475 11.0982C9.67925 12.5468 9.16245 14.2499 9.16245 15.9921C9.15754 17.9133 9.78894 19.7819 10.9581 21.3066L12.5479 19.7581C11.7757 18.6533 11.3641 17.3368 11.3697 15.989C11.3697 14.6804 11.7579 13.4012 12.4851 12.3131C13.2124 11.2251 14.2461 10.377 15.4555 9.87624C16.6649 9.37545 17.9956 9.24443 19.2795 9.49972C20.5634 9.75502 21.7427 10.3852 22.6684 11.3105C23.594 12.2358 24.2244 13.4147 24.4797 14.6982C24.7351 15.9817 24.604 17.312 24.1031 18.521C23.6022 19.73 22.7538 20.7633 21.6654 21.4903C20.577 22.2174 19.2973 22.6054 17.9883 22.6054V20.4067C18.8606 20.4043 19.7125 20.1434 20.4366 19.6572C21.1606 19.1709 21.7243 18.4811 22.0563 17.6748C22.3884 16.8685 22.474 15.9819 22.3023 15.127C22.1306 14.2721 21.7094 13.4872 21.0917 12.8715C20.4741 12.2558 19.6877 11.8369 18.832 11.6677C17.9764 11.4985 17.0897 11.5866 16.2841 11.9208C15.4785 12.2551 14.79 12.8205 14.3057 13.5457C13.8213 14.2709 13.5628 15.1233 13.5628 15.9953C13.5601 16.7675 13.7635 17.5265 14.1519 18.1939L15.7968 16.5905C15.7419 16.399 15.7144 16.2007 15.7151 16.0016C15.7151 15.5546 15.8477 15.1177 16.0961 14.746C16.3445 14.3744 16.6975 14.0847 17.1106 13.9137C17.5237 13.7426 17.9782 13.6979 18.4168 13.7851C18.8553 13.8723 19.2581 14.0875 19.5743 14.4036C19.8904 14.7196 20.1057 15.1223 20.193 15.5607C20.2802 15.9991 20.2354 16.4535 20.0643 16.8664C19.8932 17.2793 19.6035 17.6323 19.2317 17.8806C18.8599 18.1289 18.4229 18.2615 17.9757 18.2615C17.7565 18.2596 17.539 18.2225 17.3316 18.1515L11.6446 23.6985C11.5915 23.7514 11.5319 23.7973 11.4671 23.8351C11.453 23.8492 11.4263 23.8492 11.4121 23.8618C11.3695 23.8902 11.3236 23.9134 11.2754 23.9309C11.2487 23.945 11.2205 23.945 11.1938 23.9576L11.0696 23.9984C11.0431 23.9977 11.0168 24.0031 10.9927 24.0141C10.9518 24.0141 10.911 24.0283 10.8827 24.0283C10.8418 24.0283 10.801 24.0141 10.7586 24.0141C10.726 24.0153 10.6936 24.0105 10.6628 24L10.5386 23.9592C10.5119 23.945 10.4837 23.945 10.457 23.9325C10.4128 23.9148 10.3711 23.8916 10.3328 23.8634C10.3081 23.8529 10.2848 23.8392 10.2637 23.8225C10.2242 23.7941 10.1874 23.762 10.1538 23.7267C10.1396 23.7126 10.1129 23.7 10.0988 23.6718C8.32672 21.8515 7.23909 19.4746 7.02039 16.9441C6.80169 14.4136 7.46537 11.8853 8.89887 9.78827C10.3324 7.6912 12.4474 6.15441 14.8852 5.43859C17.323 4.72278 19.9334 4.87201 22.2737 5.86099C24.6139 6.84996 26.5399 8.61778 27.7249 10.8646C28.9099 13.1113 29.2809 15.6987 28.7751 18.1878C28.2692 20.6769 26.9176 22.9144 24.9495 24.5208C22.9814 26.1272 20.5181 27.0035 17.9773 27.0012L17.9742 26.9996ZM44.436 5.68512H51.2054C57.7549 5.61602 62.5794 9.85002 62.4836 15.9592C62.5794 21.9458 57.7565 26.4531 51.2054 26.3557H44.436V5.68512ZM51.1646 22.5489C55.3309 22.5489 58.1257 19.9466 58.1257 15.9733C58.1257 11.9592 55.3984 9.52179 51.1646 9.52179H48.651V22.5567H51.1646V22.5489ZM77.9956 26.3698H74.1043V24.8638C73.4856 25.4818 72.7473 25.967 71.9344 26.2897C71.1216 26.6124 70.2514 26.7658 69.3771 26.7405C66.0891 26.7405 64.0185 24.8229 64.0185 22.1107C64.0185 19.3168 66.2791 17.6034 69.883 17.6034H73.7744V16.9187C73.8071 16.5395 73.7538 16.1578 73.6187 15.802C73.4835 15.4462 73.2699 15.1254 72.9937 14.8634C72.7175 14.6015 72.3857 14.4051 72.0232 14.289C71.6606 14.1728 71.2765 14.1398 70.8994 14.1924C70.0969 14.2139 69.3098 14.4176 68.5976 14.7878C67.8854 15.1581 67.2666 15.6854 66.7881 16.3298L64.5888 13.7275C65.3962 12.7083 66.4286 11.8898 67.6051 11.3359C68.7817 10.782 70.0705 10.5078 71.3707 10.5347C72.2646 10.4497 73.1662 10.5632 74.011 10.867C74.8559 11.1708 75.6232 11.6574 76.2581 12.2921C76.893 12.9268 77.3798 13.6938 77.6837 14.5384C77.9876 15.383 78.1011 16.2843 78.0161 17.1778V26.3698H77.9956ZM73.7539 20.3832H70.4454C69.0614 20.3832 68.2806 20.9171 68.2806 21.9442C68.2806 22.9713 69.1572 23.6294 70.5004 23.6294C70.9188 23.653 71.3376 23.5913 71.7313 23.4479C72.1251 23.3046 72.4855 23.0826 72.7906 22.7955C73.0957 22.5083 73.3392 22.1621 73.5062 21.7779C73.6731 21.3937 73.7601 20.9795 73.7618 20.5607L73.7539 20.3832ZM90.1488 26.7405C89.2865 26.7679 88.428 26.6152 87.6281 26.2921C86.8282 25.9689 86.1045 25.4824 85.5034 24.8638V32H81.2617V10.8661H85.1531V12.8088C85.7363 12.0493 86.4963 11.4439 87.367 11.0451C88.2377 10.6463 89.1927 10.4662 90.1488 10.5206C91.1821 10.5303 92.2026 10.7503 93.148 11.1671C94.0935 11.5839 94.9441 12.1889 95.648 12.9451C96.352 13.7012 96.8945 14.5928 97.2426 15.5654C97.5906 16.538 97.7368 17.5713 97.6724 18.6023C97.738 19.6363 97.5929 20.6728 97.246 21.6491C96.8991 22.6254 96.3575 23.5212 95.6541 24.2821C94.9506 25.043 94.1 25.6532 93.1537 26.0758C92.2074 26.4983 91.1852 26.7245 90.1488 26.7405ZM89.3634 14.3431C88.8161 14.3329 88.273 14.439 87.7698 14.6542C87.2666 14.8694 86.8148 15.189 86.4444 15.5917C86.0739 15.9944 85.7931 16.4711 85.6206 16.9904C85.4481 17.5096 85.3878 18.0596 85.4437 18.6038C85.3876 19.1495 85.4476 19.7008 85.6197 20.2216C85.7918 20.7424 86.0721 21.2209 86.4422 21.6258C86.8124 22.0307 87.264 22.3527 87.7674 22.5708C88.2709 22.7889 88.8147 22.8981 89.3634 22.8912C89.9124 22.8934 90.4561 22.7828 90.9606 22.5662C91.4651 22.3496 91.9197 22.0317 92.2963 21.6322C92.6728 21.2327 92.9631 20.7601 93.1494 20.2438C93.3356 19.7274 93.4137 19.1783 93.3788 18.6305C93.4208 18.0803 93.3481 17.5273 93.1651 17.0066C92.9821 16.4859 92.6929 16.0089 92.3158 15.6059C91.9387 15.2028 91.482 14.8824 90.9746 14.665C90.4672 14.4477 89.9201 14.3381 89.3681 14.3431H89.3634ZM109.073 26.7405C108.211 26.7679 107.352 26.6152 106.552 26.2921C105.752 25.9689 105.029 25.4824 104.428 24.8638V32H100.186V10.8661H104.09V12.8088C104.672 12.0512 105.43 11.4468 106.298 11.0481C107.166 10.6494 108.119 10.4683 109.073 10.5206C110.106 10.5303 111.127 10.7503 112.072 11.1671C113.018 11.5839 113.868 12.1889 114.572 12.9451C115.276 13.7012 115.819 14.5928 116.167 15.5654C116.515 16.538 116.661 17.5713 116.597 18.6023C116.662 19.6363 116.517 20.6728 116.17 21.6491C115.823 22.6254 115.282 23.5212 114.578 24.2821C113.875 25.043 113.024 25.6532 112.078 26.0758C111.132 26.4983 110.109 26.7245 109.073 26.7405ZM108.288 14.3431C107.74 14.3329 107.197 14.439 106.694 14.6542C106.191 14.8694 105.739 15.189 105.369 15.5917C104.998 15.9944 104.717 16.4711 104.545 16.9904C104.372 17.5096 104.312 18.0596 104.368 18.6038C104.312 19.1495 104.372 19.7008 104.544 20.2216C104.716 20.7424 104.996 21.2209 105.366 21.6258C105.737 22.0307 106.188 22.3527 106.692 22.5708C107.195 22.7889 107.739 22.8981 108.288 22.8912C108.837 22.8934 109.38 22.7828 109.885 22.5662C110.389 22.3496 110.844 22.0317 111.22 21.6322C111.597 21.2327 111.887 20.7601 112.074 20.2438C112.26 19.7274 112.338 19.1783 112.303 18.6305C112.346 18.08 112.274 17.5265 112.092 17.0053C111.909 16.4841 111.62 16.0066 111.243 15.6033C110.865 15.2 110.408 14.8796 109.9 14.6626C109.392 14.4457 108.845 14.3369 108.292 14.3431H108.288ZM131.986 26.3698L126.627 19.0687H123.531V26.3698H119.289V5.68512H127.059C131.389 5.68512 134.514 8.38319 134.514 12.3565C134.536 13.5827 134.206 14.7896 133.562 15.8338C132.918 16.8779 131.989 17.7156 130.883 18.2473L136.748 26.3573H131.986V26.3698ZM123.518 15.3435H127.058C127.467 15.387 127.88 15.3413 128.27 15.2096C128.659 15.078 129.016 14.8635 129.314 14.5809C129.613 14.2984 129.847 13.9545 129.999 13.5729C130.152 13.1913 130.221 12.7811 130.2 12.3706C130.213 11.9634 130.139 11.5581 129.983 11.1817C129.827 10.8053 129.592 10.4665 129.295 10.1878C128.998 9.90916 128.644 9.69708 128.259 9.56571C127.873 9.43434 127.463 9.38671 127.058 9.42599H123.523L123.518 15.3435ZM150.964 26.3698H147.072V24.8638C146.454 25.4818 145.715 25.967 144.902 26.2897C144.09 26.6124 143.219 26.7658 142.345 26.7405C139.057 26.7405 136.987 24.8229 136.987 22.1107C136.987 19.3168 139.247 17.6034 142.851 17.6034H146.742V16.9187C146.775 16.5392 146.722 16.1572 146.587 15.8011C146.451 15.445 146.237 15.124 145.961 14.862C145.684 14.6 145.352 14.4038 144.989 14.2878C144.626 14.1719 144.242 14.1392 143.864 14.1924C143.062 14.2139 142.275 14.4176 141.562 14.7878C140.85 15.1581 140.232 15.6854 139.753 16.3298L137.554 13.7275C138.36 12.7103 139.39 11.8931 140.565 11.3396C141.739 10.786 143.025 10.5111 144.323 10.5363C145.217 10.4513 146.118 10.5648 146.963 10.8686C147.808 11.1723 148.576 11.659 149.21 12.2937C149.845 12.9283 150.332 13.6954 150.636 14.54C150.94 15.3846 151.053 16.2859 150.968 17.1794V26.3714L150.964 26.3698ZM146.722 20.3832H143.406C142.022 20.3832 141.241 20.9171 141.241 21.9442C141.241 22.9713 142.117 23.6294 143.461 23.6294C143.879 23.653 144.298 23.5913 144.691 23.4479C145.085 23.3046 145.446 23.0826 145.751 22.7955C146.056 22.5083 146.299 22.1621 146.466 21.7779C146.633 21.3937 146.72 20.9795 146.722 20.5607V20.3832ZM169.765 2.86297V26.3557H165.874V24.4382C165.292 25.1965 164.533 25.8013 163.664 26.2C162.794 26.5987 161.841 26.7794 160.886 26.7263C159.851 26.7157 158.828 26.4942 157.881 26.0752C156.934 25.6563 156.083 25.0487 155.379 24.2897C154.675 23.5307 154.133 22.6362 153.786 21.6607C153.439 20.6852 153.295 19.6494 153.363 18.6164C153.295 17.5834 153.439 16.5476 153.786 15.5721C154.133 14.5967 154.675 13.7021 155.379 12.9431C156.083 12.1841 156.934 11.5765 157.881 11.1576C158.828 10.7386 159.851 10.5171 160.886 10.5065C161.748 10.4651 162.608 10.6088 163.409 10.9279C164.211 11.2471 164.934 11.7342 165.532 12.3565V2.86297H169.765ZM161.681 14.3431C161.132 14.341 160.588 14.4516 160.084 14.6682C159.579 14.8847 159.125 15.2026 158.748 15.6022C158.372 16.0017 158.081 16.4743 157.895 16.9906C157.709 17.507 157.631 18.0561 157.666 18.6038C157.622 19.1548 157.694 19.7087 157.877 20.2302C158.06 20.7517 158.35 21.2294 158.727 21.6329C159.105 22.0363 159.563 22.3565 160.072 22.5732C160.58 22.7898 161.128 22.8982 161.681 22.8912C162.228 22.9014 162.771 22.7954 163.275 22.5802C163.778 22.365 164.23 22.0454 164.6 21.6427C164.97 21.24 165.251 20.7632 165.424 20.244C165.596 19.7247 165.657 19.1748 165.601 18.6305C165.654 18.0854 165.593 17.535 165.42 17.0152C165.247 16.4953 164.967 16.0177 164.597 15.6133C164.227 15.209 163.777 14.8869 163.274 14.6681C162.772 14.4492 162.229 14.3385 161.681 14.3431ZM186.181 26.3698H182.289V24.8638C181.671 25.4818 180.932 25.967 180.119 26.2897C179.307 26.6124 178.436 26.7658 177.562 26.7405C174.274 26.7405 172.204 24.8229 172.204 22.1107C172.204 19.3168 174.464 17.6034 178.068 17.6034H181.959V16.9187C181.992 16.5392 181.939 16.1572 181.804 15.8011C181.668 15.445 181.454 15.124 181.178 14.862C180.901 14.6 180.569 14.4038 180.206 14.2878C179.843 14.1719 179.459 14.1392 179.081 14.1924C178.279 14.2139 177.492 14.4176 176.78 14.7878C176.067 15.1581 175.449 15.6854 174.97 16.3298L172.771 13.7275C173.577 12.7103 174.607 11.8931 175.782 11.3396C176.956 10.786 178.242 10.5111 179.54 10.5363C180.434 10.4513 181.335 10.5648 182.18 10.8686C183.025 11.1723 183.793 11.659 184.427 12.2937C185.062 12.9283 185.549 13.6954 185.853 14.54C186.157 15.3846 186.27 16.2859 186.185 17.1794V26.3714L186.181 26.3698ZM181.959 20.3832H178.645C177.261 20.3832 176.48 20.9171 176.48 21.9442C176.48 22.9713 177.356 23.6294 178.7 23.6294C179.118 23.653 179.537 23.5913 179.931 23.4479C180.324 23.3046 180.685 23.0826 180.99 22.7955C181.295 22.5083 181.538 22.1621 181.705 21.7779C181.872 21.3937 181.959 20.9795 181.961 20.5607L181.959 20.3832ZM198.994 14.5897H197.87C197.319 14.5255 196.759 14.5848 196.233 14.7633C195.707 14.9418 195.227 15.2351 194.828 15.6219C194.429 16.0087 194.122 16.4793 193.927 16.9997C193.733 17.52 193.657 18.0771 193.704 18.6305V26.3698H189.462V10.863H193.354V12.713C193.861 12.0697 194.509 11.5512 195.248 11.1973C195.987 10.8433 196.797 10.6634 197.616 10.6714C198.085 10.659 198.552 10.7237 199 10.863V14.5897H198.994Z" fill="white"/>
</svg>
