<svg width="138" height="32" viewBox="0 0 138 32" fill="none" xmlns="http://www.w3.org/2000/svg">
<g clip-path="url(#clip0)">
<path d="M6.86311 15.2351C6.86315 15.0564 6.89847 14.8795 6.96706 14.7145C7.03565 14.5495 7.13616 14.3997 7.2628 14.2737C7.38945 14.1476 7.53974 14.0479 7.70505 13.9801C7.87036 13.9123 8.04744 13.8778 8.22611 13.8787L10.4858 13.886C10.8461 13.886 11.1916 14.0292 11.4464 14.2839C11.7012 14.5387 11.8443 14.8842 11.8443 15.2445V23.7896C12.0988 23.7142 12.4245 23.6338 12.783 23.5494C13.0313 23.4909 13.2526 23.3504 13.411 23.1504C13.5694 22.9504 13.6556 22.7028 13.6557 22.4477V11.8489C13.6557 11.4886 13.7988 11.143 14.0535 10.8882C14.3083 10.6334 14.6538 10.4902 15.0142 10.4902H17.2807C17.641 10.4902 17.9866 10.6334 18.2414 10.8882C18.4961 11.143 18.6392 11.4886 18.6392 11.8489V21.6863C18.6392 21.6863 19.2063 21.4569 19.7583 21.2237C19.9634 21.137 20.1384 20.9917 20.2615 20.8062C20.3847 20.6206 20.4504 20.4028 20.4506 20.1801V8.45253C20.4506 8.09228 20.5937 7.74678 20.8484 7.49201C21.1031 7.23725 21.4486 7.09409 21.8088 7.09402H24.073C24.4331 7.09437 24.7783 7.23766 25.0328 7.49239C25.2872 7.74712 25.4302 8.09246 25.4302 8.45253V18.1098C27.3932 16.6872 29.3826 14.9761 30.9613 12.9187C31.1903 12.62 31.3419 12.2693 31.4025 11.8978C31.463 11.5264 31.4307 11.1457 31.3084 10.7898C30.5776 8.68729 29.4159 6.76052 27.8977 5.13276C26.3796 3.50499 24.5383 2.21208 22.4918 1.33675C20.4453 0.46142 18.2385 0.0229529 16.0128 0.0494085C13.7871 0.0758642 11.5914 0.566658 9.56629 1.49038C7.54115 2.41411 5.73114 3.75043 4.25208 5.41382C2.77303 7.07721 1.6575 9.03105 0.97689 11.1503C0.296277 13.2696 0.0655659 15.5076 0.299519 17.7211C0.533472 19.9346 1.22694 22.075 2.33554 24.0051C2.52868 24.3381 2.81284 24.609 3.15463 24.7861C3.49642 24.9631 3.88164 25.039 4.26504 25.0047C4.69335 24.967 5.22662 24.9137 5.86065 24.8393C6.13659 24.8079 6.39135 24.6761 6.5764 24.469C6.76145 24.2619 6.86388 23.994 6.86417 23.7163V15.2351" fill="white"/>
<path d="M6.81445 28.9391C9.20107 30.6753 12.0215 31.7175 14.9636 31.9503C17.9058 32.183 20.8549 31.5974 23.4849 30.2581C26.1148 28.9187 28.323 26.878 29.8651 24.3616C31.4072 21.8452 32.2232 18.9512 32.2226 15.9999C32.2226 15.6307 32.2055 15.2672 32.1809 14.9048C26.3357 23.6227 15.5431 27.6982 6.81445 28.9391Z" fill="#F0B90B"/>
<path opacity="0.8" d="M41.1076 26.7445H38.8685L38.4728 27.8681H37.2939L39.3511 22.3454H40.6249L42.6742 27.8681H41.4953L41.1076 26.7445ZM40.8069 25.8979L39.9841 23.5401L39.1612 25.8979H40.8069ZM48.4105 23.4294C48.7613 23.4244 49.1066 23.5175 49.4074 23.6984C49.7093 23.885 49.95 24.1559 50.0997 24.4777C50.2734 24.8529 50.3586 25.263 50.3489 25.6764C50.3586 26.0898 50.2734 26.4998 50.0997 26.8751C49.95 27.1969 49.7093 27.4678 49.4074 27.6544C49.1066 27.8352 48.7613 27.9284 48.4105 27.9234C48.0755 27.9329 47.7457 27.84 47.465 27.6571C47.2088 27.4866 47.0134 27.2391 46.9072 26.9502V29.9568H45.7915V23.4847H46.9072V24.3946C47.0125 24.106 47.2081 23.8591 47.465 23.6905C47.7468 23.5105 48.0762 23.4195 48.4105 23.4294ZM48.0623 24.4025C47.9069 24.3977 47.7522 24.4257 47.6083 24.4848C47.4645 24.5439 47.3347 24.6327 47.2276 24.7454C46.9991 25 46.881 25.3348 46.8992 25.6764C46.8907 25.8443 46.9153 26.0122 46.9716 26.1706C47.0279 26.329 47.1149 26.4747 47.2276 26.5995C47.3347 26.7122 47.4645 26.801 47.6083 26.8601C47.7522 26.9192 47.9069 26.9472 48.0623 26.9423C48.218 26.949 48.3733 26.9225 48.5179 26.8645C48.6625 26.8065 48.7931 26.7184 48.901 26.6061C49.1238 26.3493 49.2373 26.0157 49.2175 25.6764C49.2368 25.336 49.1234 25.0013 48.901 24.7428C48.7937 24.6294 48.6633 24.5403 48.5186 24.4816C48.3739 24.4229 48.2183 24.3959 48.0623 24.4025ZM52.6513 24.3234C52.8075 24.0513 53.0309 23.8238 53.3001 23.6628C53.5729 23.5009 53.885 23.4174 54.2021 23.4214V24.6162H53.8777C53.0601 24.6162 52.6513 24.996 52.6513 25.7555V27.8681H51.5357V23.4847H52.6513V24.3234ZM57.2404 23.4294C57.6404 23.4229 58.0358 23.5153 58.3916 23.6984C58.729 23.875 59.008 24.1457 59.1947 24.4777C59.3965 24.8444 59.4975 25.258 59.4874 25.6764C59.4978 26.0936 59.3968 26.506 59.1947 26.8711C59.0065 27.2019 58.7279 27.4723 58.3916 27.6505C58.0366 27.836 57.6409 27.9299 57.2404 27.9234C56.8399 27.9299 56.4441 27.836 56.0892 27.6505C55.7528 27.4723 55.4743 27.2019 55.2861 26.8711C55.084 26.506 54.9829 26.0936 54.9933 25.6764C54.9832 25.258 55.0843 24.8444 55.2861 24.4777C55.4727 24.1457 55.7517 23.875 56.0892 23.6984C56.4449 23.5153 56.8403 23.4229 57.2404 23.4294ZM57.2404 24.3946C57.093 24.3919 56.9466 24.4197 56.8105 24.4762C56.6743 24.5327 56.5513 24.6167 56.4492 24.723C56.3344 24.8524 56.2466 25.0033 56.1909 25.167C56.1352 25.3307 56.1127 25.5039 56.1248 25.6764C56.1129 25.8487 56.1355 26.0216 56.1912 26.1851C56.2469 26.3485 56.3346 26.4993 56.4492 26.6285C56.5513 26.7348 56.6743 26.8188 56.8105 26.8753C56.9466 26.9318 57.093 26.9596 57.2404 26.9568C57.3878 26.9596 57.5341 26.9318 57.6703 26.8753C57.8064 26.8188 57.9294 26.7348 58.0316 26.6285C58.1461 26.4993 58.2338 26.3485 58.2895 26.1851C58.3452 26.0216 58.3678 25.8487 58.356 25.6764C58.368 25.5039 58.3455 25.3307 58.2898 25.167C58.2341 25.0033 58.1463 24.8524 58.0316 24.723C57.9294 24.6167 57.8064 24.5327 57.6703 24.4762C57.5341 24.4197 57.3878 24.3919 57.2404 24.3946ZM62.3911 23.4294C62.7254 23.4195 63.0548 23.5105 63.3366 23.6905C63.5943 23.8602 63.7921 24.1065 63.9024 24.3946V22.0131H65.0101V27.8681H63.9024V26.9502C63.791 27.2388 63.5929 27.4857 63.3353 27.6571C63.055 27.8397 62.7256 27.9326 62.3911 27.9234C62.0403 27.9284 61.695 27.8352 61.3942 27.6544C61.0923 27.4678 60.8516 27.1969 60.7019 26.8751C60.5282 26.4998 60.443 26.0898 60.4527 25.6764C60.443 25.263 60.5282 24.8529 60.7019 24.4777C60.8516 24.1559 61.0923 23.885 61.3942 23.6984C61.695 23.5175 62.0403 23.4244 62.3911 23.4294ZM62.7393 24.4025C62.5833 24.3959 62.4277 24.4229 62.283 24.4816C62.1383 24.5403 62.0079 24.6294 61.9006 24.7428C61.6782 25.0013 61.5648 25.336 61.5841 25.6764C61.5643 26.0157 61.6779 26.3493 61.9006 26.6061C62.0085 26.7184 62.1391 26.8065 62.2837 26.8645C62.4283 26.9225 62.5836 26.949 62.7393 26.9423C62.8946 26.9469 63.0491 26.9185 63.1927 26.8592C63.3364 26.7999 63.4658 26.711 63.5727 26.5982C63.6854 26.4734 63.7723 26.3277 63.8287 26.1693C63.885 26.0109 63.9096 25.843 63.901 25.6751C63.9185 25.3344 63.8005 25.0006 63.5727 24.7467C63.4658 24.6339 63.3364 24.545 63.1927 24.4856C63.0491 24.4263 62.8946 24.398 62.7393 24.4025ZM70.6118 23.4847V27.8681H69.4962V26.9819C69.3865 27.2695 69.1848 27.5129 68.9226 27.6742C68.645 27.8436 68.3247 27.9301 67.9995 27.9234C67.7736 27.9336 67.5482 27.8942 67.3391 27.8081C67.13 27.722 66.9422 27.5912 66.789 27.425C66.4682 27.0344 66.3071 26.5369 66.338 26.0324V23.4847H67.4457V25.9058C67.4273 26.2008 67.5237 26.4914 67.7147 26.7168C67.8083 26.8144 67.9216 26.8907 68.0472 26.9408C68.1728 26.9908 68.3076 27.0134 68.4426 27.0069C68.5852 27.0137 68.7275 26.9896 68.86 26.9363C68.9924 26.8831 69.1118 26.8019 69.2101 26.6984C69.4146 26.4502 69.5165 26.1331 69.4949 25.8122V23.4861L70.6118 23.4847ZM73.9903 23.4294C74.5004 23.4114 75.0005 23.5739 75.4026 23.8883C75.785 24.2031 76.0373 24.6485 76.1107 25.1384H74.9318C74.8937 24.9219 74.7784 24.7266 74.6074 24.5885C74.4236 24.449 74.1971 24.3777 73.9666 24.3867C73.8267 24.384 73.688 24.412 73.5602 24.4688C73.4324 24.5255 73.3186 24.6096 73.2268 24.7151C73.0113 24.9872 72.9054 25.3301 72.9301 25.6764C72.905 26.0225 73.0104 26.3654 73.2255 26.6377C73.3174 26.7434 73.4314 26.8276 73.5595 26.8843C73.6876 26.9411 73.8265 26.969 73.9666 26.9661C74.1971 26.9751 74.4236 26.9038 74.6074 26.7643C74.7784 26.6262 74.8937 26.4309 74.9318 26.2144H76.1107C76.0373 26.7043 75.785 27.1497 75.4026 27.4645C75.0005 27.7789 74.5004 27.9414 73.9903 27.9234C73.5935 27.9308 73.2013 27.8369 72.851 27.6505C72.522 27.4719 72.2525 27.201 72.0756 26.8711C71.8836 26.5028 71.7883 26.0917 71.7986 25.6764C71.7886 25.2599 71.8839 24.8476 72.0756 24.4777C72.251 24.1467 72.5209 23.8754 72.851 23.6984C73.2021 23.5145 73.594 23.422 73.9903 23.4294ZM79.6395 26.9107V27.8681H79.054C78.6468 27.8957 78.2441 27.7685 77.9266 27.512C77.6655 27.2746 77.5349 26.879 77.5349 26.3252V24.4263H76.9257V23.4847H77.5349V22.4008H78.6505V23.4847H79.6316V24.4263H78.6505V26.341C78.634 26.4995 78.6793 26.6583 78.7771 26.7841C78.8976 26.8804 79.0509 26.9258 79.2044 26.9107H79.6395ZM84.9802 23.4294C85.3802 23.4229 85.7757 23.5153 86.1314 23.6984C86.4689 23.875 86.7478 24.1457 86.9345 24.4777C87.1363 24.8444 87.2373 25.258 87.2273 25.6764C87.2377 26.0936 87.1366 26.506 86.9345 26.8711C86.7463 27.2019 86.4677 27.4723 86.1314 27.6505C85.7765 27.836 85.3807 27.9299 84.9802 27.9234C84.5793 27.9301 84.1831 27.8362 83.8277 27.6505C83.4919 27.4721 83.2138 27.2018 83.0259 26.8711C82.8238 26.506 82.7227 26.0936 82.7332 25.6764C82.7231 25.258 82.8241 24.8444 83.0259 24.4777C83.2122 24.1459 83.4907 23.8752 83.8277 23.6984C84.1838 23.5151 84.5797 23.4227 84.9802 23.4294ZM84.9802 24.3946C84.8328 24.3919 84.6865 24.4197 84.5503 24.4762C84.4142 24.5327 84.2912 24.6167 84.189 24.723C84.0743 24.8524 83.9865 25.0033 83.9308 25.167C83.8751 25.3307 83.8526 25.5039 83.8646 25.6764C83.8528 25.8487 83.8754 26.0216 83.9311 26.1851C83.9867 26.3485 84.0744 26.4993 84.189 26.6285C84.2912 26.7348 84.4142 26.8188 84.5503 26.8753C84.6865 26.9318 84.8328 26.9596 84.9802 26.9568C85.1276 26.9596 85.274 26.9318 85.4101 26.8753C85.5463 26.8188 85.6693 26.7348 85.7714 26.6285C85.886 26.4993 85.9737 26.3485 86.0294 26.1851C86.0851 26.0216 86.1077 25.8487 86.0958 25.6764C86.1078 25.5039 86.0853 25.3307 86.0296 25.167C85.9739 25.0033 85.8862 24.8524 85.7714 24.723C85.6693 24.6167 85.5463 24.5327 85.4101 24.4762C85.274 24.4197 85.1276 24.3919 84.9802 24.3946ZM90.582 22.7252C90.3428 22.6832 90.0966 22.7342 89.8936 22.8676C89.8195 22.9494 89.7636 23.046 89.7295 23.151C89.6954 23.256 89.6839 23.3671 89.6958 23.4768V23.4847H90.582V24.4263H89.6958V27.8681H88.5802V24.4263H88.0185V23.4847H88.5802V23.3819C88.5661 23.1607 88.5986 22.939 88.6756 22.7311C88.7526 22.5232 88.8724 22.3339 89.0273 22.1753C89.3976 21.8681 89.8727 21.7164 90.3525 21.752C90.4528 21.752 90.5292 21.7546 90.582 21.7599V22.7252ZM95.0761 23.3502V24.5212H96.9671V25.5419H95.0761V26.7841H97.2044V27.8681H93.7231V22.2742H97.2044V23.3502H95.0761ZM100.868 26.705V27.8681H100.258C99.8225 27.8949 99.3922 27.7581 99.0519 27.4843C98.7644 27.2285 98.6207 26.8052 98.6207 26.2144V24.5924H98.0273V23.4531H98.6207V22.3691H99.9737V23.4531H100.86V24.5924H99.9737V26.2382C99.9592 26.3687 99.9972 26.4995 100.079 26.6021C100.182 26.6807 100.31 26.7175 100.439 26.705H100.868ZM104.824 23.4056C105.05 23.3954 105.275 23.4355 105.484 23.5231C105.693 23.6107 105.879 23.7435 106.03 23.912C106.348 24.3044 106.507 24.8008 106.479 25.3045V27.8681H105.126V25.4628C105.141 25.2104 105.057 24.9622 104.892 24.7705C104.813 24.6871 104.716 24.6217 104.609 24.5788C104.502 24.5358 104.387 24.5162 104.271 24.5212C104.15 24.5154 104.029 24.5357 103.916 24.5807C103.804 24.6258 103.702 24.6945 103.618 24.7823C103.446 24.9902 103.359 25.2564 103.377 25.5261V27.8681H102.024V22.0131H103.377V24.2601C103.5 24.0006 103.697 23.7831 103.943 23.6351C104.209 23.478 104.515 23.3985 104.824 23.4056ZM111.961 25.5419C111.959 25.6642 111.946 25.7861 111.921 25.9058H108.859C108.848 26.1682 108.939 26.4245 109.112 26.6219C109.271 26.7691 109.481 26.8473 109.698 26.8395C109.876 26.8463 110.051 26.7934 110.196 26.6891C110.325 26.5935 110.417 26.4567 110.457 26.3015H111.889C111.834 26.6069 111.703 26.8937 111.51 27.1362C111.31 27.3845 111.056 27.5824 110.766 27.7138C110.45 27.8571 110.107 27.9292 109.761 27.9248C109.36 27.9324 108.964 27.8385 108.61 27.6518C108.276 27.471 108.003 27.197 107.822 26.8632C107.626 26.4934 107.528 26.0792 107.538 25.6606C107.527 25.241 107.624 24.8257 107.819 24.454C107.998 24.1212 108.272 23.8488 108.606 23.6707C108.962 23.4842 109.359 23.3904 109.761 23.3977C110.162 23.3891 110.56 23.4816 110.916 23.6667C111.241 23.8387 111.509 24.1012 111.688 24.4223C111.874 24.7655 111.968 25.1513 111.961 25.5419ZM110.592 25.3362C110.603 25.2169 110.588 25.0965 110.548 24.9837C110.508 24.8708 110.443 24.7683 110.358 24.6834C110.194 24.5372 109.981 24.4593 109.761 24.4658C109.534 24.4581 109.314 24.5373 109.144 24.6874C108.97 24.8587 108.87 25.0919 108.867 25.3362H110.592ZM114.413 24.2839C114.576 24.0208 114.8 23.8009 115.066 23.643C115.328 23.486 115.627 23.4039 115.932 23.4056V24.8535H115.545C115.249 24.8353 114.955 24.9161 114.71 25.083C114.603 25.1801 114.521 25.3008 114.47 25.4354C114.418 25.5701 114.399 25.7149 114.413 25.8584V27.8681H113.06V23.4531H114.413V24.2839ZM118.504 23.3977C118.987 23.373 119.462 23.5217 119.845 23.8171C120.181 24.0986 120.404 24.4919 120.474 24.9247H119.208C119.178 24.758 119.089 24.6077 118.957 24.5014C118.818 24.3952 118.646 24.3407 118.471 24.3472C118.347 24.3384 118.224 24.3734 118.123 24.4461C118.083 24.4807 118.051 24.524 118.031 24.5727C118.01 24.6214 118.001 24.6742 118.004 24.7269C118.004 24.7945 118.025 24.8603 118.064 24.9155C118.103 24.9707 118.158 25.0126 118.222 25.0355C118.442 25.1275 118.672 25.1965 118.907 25.2412C119.189 25.3039 119.467 25.3845 119.738 25.4826C119.956 25.5657 120.15 25.7033 120.3 25.8821C120.467 26.0929 120.551 26.3573 120.537 26.6259C120.541 26.8661 120.469 27.1015 120.332 27.2984C120.181 27.5042 119.975 27.6632 119.738 27.7573C119.447 27.8743 119.134 27.9308 118.82 27.9234C118.313 27.9489 117.811 27.8102 117.388 27.5278C117.208 27.3932 117.057 27.2236 116.944 27.0291C116.832 26.8347 116.759 26.6195 116.732 26.3964H118.037C118.043 26.4822 118.068 26.5656 118.109 26.6408C118.151 26.716 118.209 26.7811 118.278 26.8316C118.439 26.9377 118.628 26.9904 118.82 26.9819C118.946 26.9909 119.07 26.9528 119.168 26.8751C119.208 26.8398 119.239 26.7964 119.259 26.7478C119.28 26.6993 119.289 26.6469 119.287 26.5942C119.29 26.5236 119.27 26.4539 119.231 26.395C119.192 26.3361 119.136 26.2909 119.07 26.2658C118.84 26.1738 118.603 26.1032 118.361 26.0549C118.087 26.001 117.818 25.927 117.554 25.8333C117.343 25.7538 117.155 25.6217 117.008 25.4496C116.846 25.2445 116.764 24.9869 116.779 24.7256C116.774 24.5413 116.812 24.3584 116.89 24.1914C116.969 24.0245 117.085 23.8782 117.23 23.7643C117.599 23.4983 118.05 23.3687 118.504 23.3977ZM123.678 23.3977C124.196 23.3805 124.704 23.5472 125.11 23.8685C125.503 24.1959 125.762 24.6563 125.838 25.1621H124.406C124.374 24.9884 124.281 24.8317 124.145 24.719C124.002 24.61 123.826 24.554 123.647 24.5608C123.534 24.5587 123.422 24.583 123.321 24.6318C123.219 24.6806 123.13 24.7524 123.061 24.8417C122.893 25.0797 122.812 25.3685 122.832 25.6593C122.812 25.9505 122.893 26.2397 123.061 26.4782C123.13 26.5676 123.219 26.6397 123.32 26.6887C123.422 26.7377 123.534 26.7623 123.647 26.7604C123.826 26.7671 124.002 26.7112 124.145 26.6021C124.281 26.4895 124.374 26.3327 124.406 26.159H125.838C125.762 26.6644 125.503 27.1242 125.11 27.4513C124.704 27.7731 124.196 27.9403 123.678 27.9234C123.278 27.9311 122.882 27.8372 122.527 27.6505C122.194 27.4701 121.92 27.1965 121.74 26.8632C121.543 26.4934 121.445 26.0792 121.455 25.6606C121.444 25.241 121.541 24.8257 121.736 24.454C121.916 24.1212 122.19 23.8488 122.523 23.6707C122.879 23.4842 123.276 23.3904 123.678 23.3977ZM128.615 23.3977C128.922 23.3892 129.224 23.4689 129.486 23.6272C129.725 23.7758 129.912 23.9939 130.024 24.2522V23.4531H131.369V27.8681H130.024V27.0689C129.912 27.3273 129.725 27.5454 129.486 27.694C129.224 27.8523 128.922 27.9319 128.615 27.9234C128.27 27.9287 127.931 27.8339 127.638 27.6505C127.342 27.4578 127.106 27.1848 126.958 26.8632C126.785 26.4865 126.699 26.0752 126.709 25.6606C126.698 25.2446 126.784 24.8318 126.958 24.454C127.106 24.134 127.342 23.8625 127.638 23.6707C127.931 23.4873 128.27 23.3924 128.615 23.3977ZM129.051 24.5845C128.92 24.5791 128.79 24.6018 128.67 24.6509C128.549 24.7001 128.44 24.7746 128.35 24.8694C128.163 25.0889 128.068 25.3725 128.085 25.6606C128.068 25.9487 128.163 26.2322 128.35 26.4518C128.44 26.5466 128.549 26.6211 128.67 26.6702C128.79 26.7194 128.92 26.742 129.051 26.7366C129.182 26.7408 129.312 26.7168 129.433 26.6663C129.553 26.6158 129.662 26.5399 129.751 26.4439C129.94 26.2283 130.038 25.9472 130.024 25.6606C130.04 25.3725 129.942 25.0898 129.751 24.8733C129.661 24.7783 129.553 24.7034 129.432 24.6536C129.311 24.6038 129.181 24.5803 129.051 24.5845ZM135.499 23.4056C135.725 23.3954 135.951 23.4355 136.159 23.5231C136.368 23.6107 136.555 23.7435 136.706 23.912C137.023 24.3044 137.183 24.8008 137.154 25.3045V27.8681H135.801V25.4628C135.816 25.2104 135.732 24.9622 135.568 24.7705C135.488 24.6871 135.391 24.6217 135.284 24.5788C135.177 24.5358 135.062 24.5162 134.946 24.5212C134.825 24.5154 134.704 24.5357 134.592 24.5807C134.479 24.6258 134.377 24.6945 134.294 24.7823C134.121 24.9902 134.035 25.2564 134.052 25.5261V27.8681H132.698V23.4531H134.051V24.2601C134.174 24.0006 134.371 23.7831 134.617 23.6351C134.884 23.4777 135.189 23.3983 135.499 23.4056Z" fill="white"/>
<path d="M45.468 10.4066C46.2333 10.5445 46.9238 10.9521 47.4144 11.5554C47.9004 12.1527 48.1594 12.9027 48.1455 13.6727C48.1692 14.1736 48.08 14.6735 47.8844 15.1353C47.6888 15.5971 47.3919 16.0091 47.0156 16.3406C46.2624 16.9926 45.1705 17.3186 43.74 17.3186H37.9863V3.9123H43.6261C44.9799 3.9123 46.0212 4.2098 46.7498 4.80479C47.4784 5.39978 47.8424 6.23495 47.8417 7.31029C47.8731 8.04991 47.6409 8.77667 47.1865 9.36111C46.7486 9.8941 46.1427 10.2627 45.468 10.4066ZM40.6638 9.53307H43.0743C43.6212 9.57183 44.1638 9.41353 44.604 9.08682C44.7818 8.9262 44.9212 8.72753 45.0116 8.50561C45.102 8.28369 45.1412 8.04423 45.1262 7.80506C45.1408 7.56523 45.1025 7.32512 45.0138 7.10178C44.9252 6.87844 44.7886 6.67734 44.6135 6.51275C44.2717 6.20892 43.7463 6.05701 43.0374 6.05701H40.6638V9.53307ZM43.2083 15.1348C43.7901 15.1731 44.3671 15.0087 44.8414 14.6696C45.0349 14.5028 45.1871 14.2934 45.286 14.0578C45.3848 13.8222 45.4276 13.5668 45.4111 13.3119C45.426 13.0533 45.3815 12.7948 45.2809 12.5561C45.1803 12.3175 45.0263 12.105 44.8308 11.9352C44.3577 11.5848 43.7758 11.4133 43.1883 11.451H40.6638V15.1348H43.2083ZM53.6523 6.66572C54.9309 6.66572 55.9563 6.98853 56.7285 7.63416C57.5073 8.29109 58.0204 9.2091 58.1717 10.2167H55.6662C55.5847 9.74508 55.3433 9.31594 54.9826 9.00137C54.5918 8.68503 54.0986 8.52289 53.5964 8.54563C53.2143 8.52184 52.8364 8.63644 52.5319 8.86845C52.4065 8.97567 52.3071 9.11005 52.2413 9.26139C52.1755 9.41273 52.145 9.57707 52.1522 9.74195C52.1472 9.8743 52.1719 10.0061 52.2245 10.1277C52.2771 10.2492 52.3562 10.3575 52.456 10.4445C52.6788 10.633 52.9371 10.7751 53.2156 10.8623C53.5194 10.9636 53.9561 11.0838 54.5258 11.2231C55.1877 11.3607 55.8384 11.548 56.4722 11.7833C56.974 11.9804 57.4184 12.3003 57.7645 12.7137C58.1468 13.2023 58.339 13.8128 58.3057 14.4322C58.3159 14.8539 58.2256 15.2719 58.0421 15.6516C57.8587 16.0314 57.5874 16.362 57.2507 16.616C56.5481 17.1723 55.6018 17.4505 54.4119 17.4505C53.0447 17.4505 51.9496 17.1438 51.1268 16.5305C50.7128 16.2154 50.3667 15.8201 50.1089 15.3683C49.8512 14.9164 49.6871 14.4172 49.6266 13.9006H52.1901C52.2124 14.1411 52.2847 14.3743 52.4025 14.5852C52.5202 14.7962 52.6807 14.9801 52.8738 15.1253C53.323 15.4402 53.8639 15.5971 54.4119 15.5716C54.7896 15.5977 55.1631 15.4788 55.4563 15.2393C55.5752 15.1298 55.669 14.9959 55.7312 14.8468C55.7935 14.6976 55.8228 14.5368 55.8171 14.3753C55.8219 14.2365 55.7963 14.0983 55.7422 13.9704C55.6881 13.8425 55.6067 13.7279 55.5037 13.6347C55.2782 13.4354 55.0128 13.2865 54.7252 13.198C54.415 13.0967 53.9755 12.9764 53.4065 12.8372C52.759 12.6994 52.1215 12.5186 51.4981 12.296C51.0119 12.1133 50.5805 11.8093 50.2448 11.413C49.8735 10.9379 49.6878 10.3439 49.7226 9.74195C49.7116 9.31586 49.8003 8.89309 49.9816 8.50736C50.1629 8.12162 50.4319 7.78359 50.767 7.52023C51.4626 6.95055 52.4243 6.66572 53.6523 6.66572ZM65.0268 6.66572C66.251 6.62261 67.4512 7.0126 68.4163 7.76708C69.334 8.52287 69.9394 9.59165 70.1158 10.7674H67.2854C67.1935 10.2483 66.917 9.77989 66.5068 9.44867C66.0657 9.11401 65.522 8.94286 64.9687 8.96445C64.6332 8.95795 64.3003 9.02516 63.9935 9.16132C63.6867 9.29748 63.4135 9.49928 63.1933 9.7525C62.7185 10.2779 62.4812 11.0469 62.4812 12.0597C62.4812 13.0724 62.7185 13.8415 63.1933 14.3668C63.4135 14.6201 63.6867 14.8219 63.9935 14.958C64.3003 15.0942 64.6332 15.1614 64.9687 15.1549C65.522 15.1765 66.0657 15.0053 66.5068 14.6707C66.917 14.3394 67.1935 13.8711 67.2854 13.352H70.1148C69.9384 14.5277 69.333 15.5965 68.4152 16.3523C67.45 17.1054 66.2502 17.4942 65.0268 17.4505C64.0745 17.4685 63.1333 17.2434 62.2923 16.7964C61.5029 16.3678 60.856 15.7176 60.4314 14.926C59.9706 14.0419 59.742 13.0553 59.7668 12.0586C59.7428 11.059 59.9713 10.0695 60.4314 9.18177C60.8524 8.38744 61.5002 7.73634 62.2923 7.31135C63.1351 6.86998 64.0755 6.64795 65.0268 6.66572ZM81.2244 13.6547C81.2295 14.3196 81.0522 14.9731 80.7117 15.5442C80.3473 16.1411 79.8203 16.6219 79.1926 16.9304C78.4297 17.2981 77.5895 17.4765 76.743 17.4505C75.8706 17.4654 75.0044 17.3006 74.1985 16.9662C73.4864 16.6701 72.867 16.1881 72.4051 15.5705C71.9508 14.9496 71.6839 14.2116 71.636 13.4438H74.4844C74.534 13.9599 74.7663 14.4414 75.1395 14.8015C75.3397 14.9859 75.5746 15.1288 75.8305 15.2217C76.0864 15.3146 76.3582 15.3557 76.6301 15.3427C76.8628 15.3582 77.0962 15.3268 77.3165 15.2501C77.5367 15.1734 77.7392 15.0531 77.9119 14.8964C78.0606 14.7454 78.1769 14.5656 78.2536 14.3681C78.3303 14.1705 78.3659 13.9594 78.3581 13.7476C78.3722 13.3695 78.2434 13 77.9973 12.7127C77.7441 12.4313 77.4332 12.2079 77.0859 12.0576C76.7187 11.893 76.2124 11.7031 75.5667 11.4879C74.8638 11.2633 74.1783 10.9872 73.5159 10.6619C72.9745 10.3812 72.5087 9.9741 72.1582 9.47504C71.7612 8.87449 71.565 8.16343 71.598 7.44427C71.576 6.9242 71.6772 6.40629 71.8934 5.93275C72.1095 5.45921 72.4345 5.04344 72.8418 4.71934C73.671 4.05472 74.7692 3.72241 76.1364 3.72241C77.5543 3.72241 78.6841 4.06421 79.526 4.74782C79.9395 5.08081 80.28 5.49531 80.5265 5.96554C80.7729 6.43578 80.92 6.95169 80.9586 7.48119H78.0722C78.0109 7.02811 77.7969 6.60949 77.4656 6.29438C77.0944 5.96887 76.6104 5.80185 76.1174 5.82914C75.6845 5.80878 75.2591 5.94721 74.9211 6.21842C74.7648 6.36043 74.6426 6.53587 74.5635 6.73167C74.4844 6.92748 74.4505 7.1386 74.4643 7.34932C74.4521 7.70822 74.5778 8.05816 74.8156 8.32726C75.0661 8.59851 75.37 8.81508 75.7081 8.96339C76.1884 9.17315 76.6797 9.35698 77.1798 9.51408C77.8951 9.75815 78.5957 10.0435 79.278 10.3686C79.8296 10.6461 80.3029 11.0574 80.6547 11.5649C81.0594 12.1836 81.2588 12.9141 81.2244 13.6526V13.6547ZM87.9276 6.66572C89.1518 6.62261 90.352 7.0126 91.3171 7.76708C92.2348 8.52287 92.8402 9.59165 93.0166 10.7674H90.1873C90.0954 10.2483 89.8188 9.77989 89.4087 9.44867C88.9675 9.11401 88.4239 8.94286 87.8706 8.96445C87.535 8.95795 87.2021 9.02516 86.8953 9.16132C86.5886 9.29748 86.3154 9.49928 86.0951 9.7525C85.6204 10.2779 85.383 11.0469 85.383 12.0597C85.383 13.0724 85.6204 13.8415 86.0951 14.3668C86.3154 14.6201 86.5886 14.8219 86.8953 14.958C87.2021 15.0942 87.535 15.1614 87.8706 15.1549C88.4239 15.1765 88.9675 15.0053 89.4087 14.6707C89.8188 14.3394 90.0954 13.8711 90.1873 13.352H93.0166C92.8397 14.5269 92.2344 15.5949 91.3171 16.3501C90.3519 17.1042 89.1517 17.4939 87.9276 17.4505C86.9753 17.4685 86.0342 17.2434 85.1931 16.7964C84.4037 16.3678 83.7568 15.7176 83.3322 14.926C82.8714 14.0419 82.6428 13.0553 82.6676 12.0586C82.6436 11.059 82.8722 10.0695 83.3322 9.18177C83.7532 8.38744 84.401 7.73634 85.1931 7.31135C86.036 6.86998 86.9763 6.64795 87.9276 6.66572ZM99.0362 6.66572C99.8412 6.64297 100.635 6.86118 101.315 7.29236C101.936 7.69471 102.409 8.28782 102.663 8.98238V6.79864H105.322V17.3186H102.663V15.1159C102.407 15.8121 101.935 16.4079 101.315 16.8154C100.637 17.2521 99.8424 17.4735 99.0362 17.4505C98.194 17.4624 97.3653 17.2388 96.6435 16.8048C95.9189 16.357 95.3413 15.7067 94.982 14.9344C94.5652 14.0338 94.3605 13.0496 94.3838 12.0576C94.3605 11.0655 94.5652 10.0813 94.982 9.18071C95.3413 8.40837 95.9189 7.75814 96.6435 7.31029C97.3654 6.87669 98.1941 6.65344 99.0362 6.66572ZM99.8717 9.00137C99.4972 8.98568 99.1237 9.05055 98.7765 9.1916C98.4292 9.33265 98.1163 9.54658 97.8588 9.81896C97.3525 10.364 97.0993 11.1113 97.0993 12.0607C97.0993 13.0102 97.3525 13.7539 97.8588 14.2919C98.1179 14.5616 98.4313 14.773 98.7784 14.9122C99.1254 15.0513 99.4981 15.115 99.8717 15.099C100.245 15.1104 100.617 15.0428 100.962 14.9004C101.308 14.758 101.619 14.5442 101.876 14.2729C102.421 13.669 102.705 12.8734 102.664 12.0607C102.707 11.242 102.424 10.4397 101.876 9.82951C101.619 9.55787 101.308 9.34364 100.963 9.20091C100.617 9.05818 100.245 8.99018 99.8717 9.00137ZM114.019 6.64673C114.561 6.62245 115.102 6.71693 115.603 6.92357C116.105 7.13022 116.556 7.44402 116.924 7.84304C117.645 8.64058 118.005 9.76094 118.005 11.2041V17.3186H115.347V11.5079C115.347 10.6724 115.132 10.0236 114.701 9.56155C114.473 9.32665 114.197 9.14326 113.893 9.02371C113.588 8.90417 113.261 8.85123 112.934 8.86845C112.595 8.85357 112.256 8.91203 111.942 9.03983C111.627 9.16763 111.344 9.36178 111.111 9.60902C110.655 10.1027 110.427 10.8117 110.427 11.7358V17.3186H107.752V6.79864H110.43V8.90537C110.693 8.21491 111.177 7.63079 111.806 7.24383C112.472 6.83801 113.24 6.63085 114.02 6.64673H114.019Z" fill="white"/>
</g>
<defs>
<clipPath id="clip0">
<rect width="136.941" height="32" fill="white" transform="translate(0.210938)"/>
</clipPath>
</defs>
</svg>
