<svg width="146" height="32" viewBox="0 0 146 32" fill="none" xmlns="http://www.w3.org/2000/svg">
<g clip-path="url(#clip0)">
<path d="M5.18939 11.6535C4.92635 12.6135 4.79118 13.604 4.78738 14.5994C4.78738 14.6694 4.78738 14.7377 4.78738 14.806C4.79572 16.0091 4.66077 17.2088 4.38537 18.3799C3.8306 18.1829 3.25974 17.7841 2.71462 17.0935C1.28024 15.2764 1.75703 12.3626 3.52587 11.6768C4.19482 11.4179 4.75442 11.4726 5.1918 11.6422C5.19064 11.6459 5.18983 11.6497 5.18939 11.6535Z" fill="#A16552"/>
<path d="M5.18939 11.6535C4.92635 12.6135 4.79118 13.604 4.78738 14.5994C4.78738 14.6694 4.78738 14.7377 4.78738 14.806C4.79572 16.0091 4.66077 17.2088 4.38537 18.3799C3.8306 18.1829 3.25974 17.7841 2.71462 17.0935C1.28024 15.2764 1.75703 12.3626 3.52587 11.6768C4.19482 11.4179 4.75442 11.4726 5.1918 11.6422C5.19064 11.6459 5.18983 11.6497 5.18939 11.6535Z" fill="#F5DCB4"/>
<path d="M31.6174 17.0943C31.0731 17.7833 30.5015 18.1821 29.9467 18.3807C29.6717 17.2098 29.5367 16.0104 29.5447 14.8076C29.5447 14.7393 29.5447 14.6709 29.5447 14.601C29.541 13.6016 29.4045 12.6072 29.1387 11.6438C29.5761 11.4742 30.1356 11.4195 30.8046 11.6784C32.5734 12.3626 33.051 15.2764 31.6174 17.0943Z" fill="#A16552"/>
<path d="M31.6174 17.0943C31.0731 17.7833 30.5015 18.1821 29.9467 18.3807C29.6717 17.2098 29.5367 16.0104 29.5447 14.8076C29.5447 14.7393 29.5447 14.6709 29.5447 14.601C29.541 13.6016 29.4045 12.6072 29.1387 11.6438C29.5761 11.4742 30.1356 11.4195 30.8046 11.6784C32.5734 12.3626 33.051 15.2764 31.6174 17.0943Z" fill="#F5DCB4"/>
<path d="M26.1063 18.4169C25.8456 18.8194 25.6787 19.2753 25.6177 19.7509C25.5568 20.2266 25.6034 20.7098 25.7541 21.165C25.9897 21.8581 26.2004 22.6428 26.2004 23.2265C26.1987 27.4975 22.1553 30.9548 17.1656 30.9548C12.1758 30.9548 8.12999 27.4975 8.12999 23.2265C8.12999 22.6428 8.34065 21.8597 8.57622 21.165C8.72713 20.71 8.77391 20.2269 8.7131 19.7514C8.65228 19.2759 8.48543 18.8201 8.22487 18.4177C7.71644 17.6218 7.44535 16.6976 7.44336 15.7532C7.44336 12.919 9.85542 10.6203 12.8343 10.6203C13.796 10.6179 14.7419 10.8645 15.58 11.3359C16.0633 11.6108 16.6096 11.7553 17.1656 11.7553C17.7215 11.7553 18.2679 11.6108 18.7511 11.3359C19.589 10.8646 20.5347 10.6183 21.496 10.6211C24.4709 10.6211 26.8878 12.9198 26.8878 15.754C26.8886 16.462 26.7358 17.1618 26.44 17.805C26.3432 18.0166 26.2317 18.221 26.1063 18.4169Z" fill="#A16552"/>
<path d="M26.1063 18.4169C25.8456 18.8194 25.6787 19.2753 25.6177 19.7509C25.5568 20.2266 25.6034 20.7098 25.7541 21.165C25.9897 21.8581 26.2004 22.6428 26.2004 23.2265C26.1987 27.4975 22.1553 30.9548 17.1656 30.9548C12.1758 30.9548 8.12999 27.4975 8.12999 23.2265C8.12999 22.6428 8.34065 21.8597 8.57622 21.165C8.72713 20.71 8.77391 20.2269 8.7131 19.7514C8.65228 19.2759 8.48543 18.8201 8.22487 18.4177C7.71644 17.6218 7.44535 16.6976 7.44336 15.7532C7.44336 12.919 9.85542 10.6203 12.8343 10.6203C13.796 10.6179 14.7419 10.8645 15.58 11.3359C16.0633 11.6108 16.6096 11.7553 17.1656 11.7553C17.7215 11.7553 18.2679 11.6108 18.7511 11.3359C19.589 10.8646 20.5347 10.6183 21.496 10.6211C24.4709 10.6211 26.8878 12.9198 26.8878 15.754C26.8886 16.462 26.7358 17.1618 26.44 17.805C26.3432 18.0166 26.2317 18.221 26.1063 18.4169Z" fill="#F5DCB4"/>
<path d="M12.5637 24.1817C12.4898 24.1815 12.4167 24.1972 12.3494 24.2275C12.282 24.2579 12.2219 24.3023 12.1731 24.3579C12.1243 24.4134 12.0879 24.4786 12.0664 24.5494C12.0449 24.6201 12.0387 24.6946 12.0484 24.7678C12.37 27.0553 14.5408 28.8241 17.1659 28.8241C19.7911 28.8241 21.9635 27.0553 22.2835 24.7678C22.2932 24.6946 22.287 24.6202 22.2656 24.5496C22.2441 24.4789 22.2078 24.4136 22.1591 24.3582C22.1104 24.3027 22.0504 24.2582 21.9831 24.2278C21.9158 24.1974 21.8428 24.1816 21.769 24.1817H12.5637Z" fill="#4E3F3F"/>
<path d="M14.1934 27.9726C15.085 28.5291 16.1148 28.8241 17.1658 28.8241C18.2168 28.8241 19.2467 28.5291 20.1383 27.9726C19.7652 26.6814 18.5728 26.9789 17.1634 26.9789C15.754 26.9789 14.5664 26.6814 14.1934 27.9726Z" fill="#E6646E"/>
<path d="M31.4169 10.7224C30.3476 10.3075 29.4993 10.5262 28.9028 10.8695C28.7572 10.4407 28.5894 10.0196 28.4002 9.60804C28.262 9.3068 28.1127 9.00958 27.9524 8.71638C26.3162 5.72302 23.5649 3.23859 20.4099 2.18854L20.3456 0.488844L18.3018 1.71578L18.0557 1.68844C17.9046 1.67477 17.755 1.66432 17.6023 1.65789L17.304 0.371457L17.2163 0C17.1142 0 17.0145 0 16.9172 0.0112563C15.0157 0.165628 14.0694 1.89347 13.9215 2.18935C10.7617 3.2394 8.01513 5.72462 6.37895 8.71638C6.21814 9.00905 6.06886 9.30626 5.93111 9.60804C5.74216 10.0198 5.57417 10.4408 5.42779 10.8695L5.35141 10.8269C4.75965 10.5093 3.93794 10.326 2.91442 10.7224C0.667188 11.594 0.0609573 15.2973 1.88206 17.608C2.62498 18.5471 3.4097 19.0617 4.15905 19.2909C4.1494 19.3327 4.13975 19.3753 4.13091 19.4179C3.99542 20.0383 3.92722 20.6715 3.92749 21.3065C3.92749 25.715 7.17895 29.5075 11.8374 31.1743C12.9312 31.5654 14.0656 31.8316 15.2191 31.9678C15.818 32.0388 16.4203 32.0764 17.0234 32.0804H17.1665C24.4774 32.0804 30.4039 27.2563 30.4039 21.3065C30.4043 20.671 30.3361 20.0372 30.2004 19.4163C30.1908 19.3737 30.182 19.3311 30.1715 19.2892C30.9249 19.0601 31.7064 18.5455 32.4485 17.6056C34.2704 15.2973 33.6634 11.5932 31.4169 10.7224ZM5.189 11.6535C4.92596 12.6135 4.79079 13.604 4.78699 14.5994C4.78699 14.6693 4.78699 14.7377 4.78699 14.806C4.79533 16.0091 4.66037 17.2088 4.38498 18.3799C3.8302 18.1829 3.25935 17.7841 2.71422 17.0935C1.27985 15.2764 1.75664 12.3626 3.52548 11.6768C4.19442 11.4179 4.75402 11.4726 5.19141 11.6422C5.19024 11.6459 5.18944 11.6496 5.189 11.6535ZM26.4401 17.805C26.3433 18.0166 26.2318 18.221 26.1064 18.4169C25.8457 18.8194 25.6788 19.2753 25.6178 19.7509C25.5569 20.2265 25.6035 20.7098 25.7542 21.165C25.9898 21.8581 26.2005 22.6428 26.2005 23.2265C26.1988 27.4975 22.1554 30.9548 17.1657 30.9548C12.1759 30.9548 8.1301 27.4975 8.1301 23.2265C8.1301 22.6428 8.34075 21.8597 8.57633 21.165C8.72724 20.71 8.77402 20.2269 8.7132 19.7514C8.65239 19.2759 8.48554 18.8201 8.22498 18.4177C7.71655 17.6218 7.44546 16.6976 7.44347 15.7532C7.44347 12.919 9.85553 10.6203 12.8344 10.6203C13.7961 10.6179 14.742 10.8644 15.5802 11.3359C16.0634 11.6108 16.6097 11.7553 17.1657 11.7553C17.7216 11.7553 18.268 11.6108 18.7512 11.3359C19.5891 10.8646 20.5348 10.6183 21.4961 10.6211C24.471 10.6211 26.8879 12.9198 26.8879 15.754C26.8887 16.462 26.7359 17.1618 26.4401 17.805ZM31.6179 17.0943C31.0736 17.7833 30.502 18.1821 29.9472 18.3807C29.6721 17.2098 29.5372 16.0104 29.5452 14.8076C29.5452 14.7393 29.5452 14.671 29.5452 14.601C29.5415 13.6016 29.405 12.6072 29.1391 11.6438C29.5765 11.4742 30.1361 11.4195 30.8051 11.6784C32.5739 12.3626 33.0515 15.2764 31.6179 17.0943Z" fill="#A16552"/>
<path d="M14.9211 20.3195L14.9104 20.3429C14.8137 20.5545 14.9069 20.8044 15.1186 20.9011L16.1454 21.3701C16.357 21.4668 16.607 21.3736 16.7036 21.162L16.7143 21.1386C16.811 20.9269 16.7178 20.677 16.5062 20.5803L15.4794 20.1113C15.2677 20.0146 15.0178 20.1078 14.9211 20.3195Z" fill="#4E3F3F"/>
<path d="M17.617 21.1398L17.6277 21.1632C17.7244 21.3749 17.9743 21.4681 18.186 21.3714L19.2128 20.9024C19.4244 20.8057 19.5176 20.5558 19.4209 20.3441L19.4102 20.3207C19.3136 20.1091 19.0636 20.0159 18.852 20.1125L17.8252 20.5816C17.6135 20.6782 17.5203 20.9282 17.617 21.1398Z" fill="#4E3F3F"/>
<path d="M12.5233 17.8034C11.6687 17.8034 10.9756 17.1473 10.9756 16.3369V15.8481C10.9756 15.0384 11.6687 14.3815 12.5233 14.3815C13.378 14.3815 14.0703 15.0384 14.0703 15.8481V16.3369C14.0703 17.1473 13.378 17.8034 12.5233 17.8034Z" fill="#4E3F3F"/>
<path d="M12.5234 14.3815V16.0925C12.5325 16.2915 12.618 16.4794 12.762 16.617C12.9061 16.7547 13.0977 16.8315 13.2969 16.8315C13.4961 16.8315 13.6877 16.7547 13.8318 16.617C13.9758 16.4794 14.0613 16.2915 14.0704 16.0925V15.8513C14.0704 15.0352 13.3781 14.3815 12.5234 14.3815Z" fill="#5D5360"/>
<path d="M12.523 15.8481C12.8081 15.8481 13.0392 15.6292 13.0392 15.3592C13.0392 15.0892 12.8081 14.8704 12.523 14.8704C12.2379 14.8704 12.0068 15.0892 12.0068 15.3592C12.0068 15.6292 12.2379 15.8481 12.523 15.8481Z" fill="white"/>
<path d="M21.8077 17.8034C20.953 17.8034 20.2607 17.1473 20.2607 16.3369V15.8481C20.2607 15.0384 20.953 14.3815 21.8077 14.3815C22.6624 14.3815 23.3554 15.0384 23.3554 15.8481V16.3369C23.3554 17.1473 22.6607 17.8034 21.8077 17.8034Z" fill="#4E3F3F"/>
<path d="M21.8086 14.3815V16.0925C21.8196 16.2903 21.906 16.4763 22.0499 16.6124C22.1938 16.7485 22.3844 16.8244 22.5825 16.8244C22.7805 16.8244 22.9711 16.7485 23.115 16.6124C23.2589 16.4763 23.3453 16.2903 23.3563 16.0925V15.8513C23.3563 15.0352 22.6617 14.3815 21.8086 14.3815Z" fill="#5D5360"/>
<path d="M21.8082 15.8481C22.0933 15.8481 22.3244 15.6292 22.3244 15.3592C22.3244 15.0892 22.0933 14.8704 21.8082 14.8704C21.5231 14.8704 21.292 15.0892 21.292 15.3592C21.292 15.6292 21.5231 15.8481 21.8082 15.8481Z" fill="white"/>
<path opacity="0.35" d="M17.304 0.374673C16.9574 0.340905 16.1992 0.885226 15.2939 1.82995C15.068 2.06553 14.8316 2.32683 14.5904 2.60985C12.8095 4.69628 10.7472 7.98633 10.038 11.3624C8.85292 17.0308 8.37131 23.6076 10.4634 27.2555C12.2362 30.3461 15.2159 31.9662 15.2159 31.9662C14.0624 31.83 12.928 31.5638 11.8342 31.1727C7.17814 29.5075 3.92749 25.7134 3.92749 21.3065C3.92737 20.6709 3.99584 20.0372 4.13171 19.4163C4.14055 19.3737 4.1502 19.3311 4.15985 19.2892C3.40648 19.0553 2.62498 18.5439 1.88206 17.608C0.0609573 15.3005 0.667188 11.5972 2.91442 10.7256C3.93794 10.3292 4.76367 10.5126 5.35141 10.8302L5.42779 10.8728C5.57417 10.444 5.74216 10.023 5.93111 9.61126C6.0694 9.31002 6.21868 9.0128 6.37895 8.7196C8.01513 5.72462 10.7617 3.2394 13.9215 2.18935C14.0694 1.89347 15.0157 0.165628 16.9172 0.0112563C17.0145 0 17.1134 0 17.2163 0L17.304 0.374673Z" fill="#4E3F3F"/>
<path d="M45.4151 24.3007C45.0153 24.4551 44.2976 24.532 43.262 24.5315C42.2264 24.5309 41.3629 24.4363 40.6714 24.2477C39.9784 24.059 39.6318 23.8178 39.6318 23.524C39.6318 23.188 40.255 21.042 41.5012 17.0862C42.7474 13.1305 43.4616 10.8524 43.6439 10.2521C43.7141 10.0704 44.2769 9.91973 45.3323 9.8002C46.4623 9.67733 47.5983 9.61774 48.7349 9.62171C49.9469 9.62171 50.6169 9.83182 50.745 10.2521C53.3918 19.0464 54.7152 23.5136 54.7152 23.6535C54.7152 23.7934 54.6314 23.9333 54.4636 24.0732C54.0712 24.3819 53.294 24.536 52.1319 24.5355C49.6529 24.5355 48.3855 24.2407 48.3297 23.6511L48.1826 22.2842H46.1629L46.0584 23.4605C46.0294 23.8663 45.815 24.1463 45.4151 24.3007ZM47.7355 18.2931L47.4212 14.5142H46.9589L46.6019 18.2931H47.7355Z" fill="#A16552"/>
<path d="M56.0771 27.073V13.7134C56.0771 13.4197 56.4692 13.1187 57.2534 12.8105C58.0639 12.4975 58.9262 12.3407 59.7949 12.3482C60.2154 12.3482 60.5443 12.398 60.7823 12.4953C61.0203 12.5926 61.1674 12.6915 61.2237 12.7896C61.28 12.8877 61.3845 13.3074 61.5389 14.0495H61.7069C61.7342 13.9241 61.8602 13.7281 62.0848 13.4617C62.2852 13.2179 62.5144 12.9992 62.7674 12.8105C62.9979 12.6422 63.3305 12.4916 63.7652 12.3586C64.2602 12.2175 64.7733 12.1503 65.288 12.1592C65.841 12.1522 66.3866 12.2862 66.8735 12.5484C67.3495 12.8073 67.7033 13.1082 67.9348 13.4513C68.1896 13.8512 68.3742 14.2917 68.4808 14.7538C68.5936 15.1664 68.6708 15.5879 68.7115 16.0137C68.733 16.3289 68.7437 16.7845 68.7437 17.3805C68.7437 17.9766 68.7225 18.5649 68.6802 19.1454C68.6364 19.741 68.5593 20.3336 68.4494 20.9206C68.3577 21.4577 68.1955 21.9802 67.967 22.4748C67.7605 22.9042 67.4914 23.3006 67.1686 23.6511C66.5254 24.3517 65.5801 24.7017 64.3328 24.7011C63.9283 24.7085 63.526 24.6409 63.1461 24.5017C62.803 24.3688 62.5476 24.2112 62.3799 24.029C62.0293 23.6511 61.8262 23.315 61.7704 23.0207L61.7495 22.8109H61.5815L61.8757 24.7011V27.0746C61.8757 27.229 61.4737 27.3515 60.6697 27.4421C59.847 27.5344 59.0196 27.5801 58.1917 27.5787C57.3443 27.5787 56.7815 27.5404 56.5033 27.4638C56.217 27.385 56.0771 27.2563 56.0771 27.073ZM62.8623 15.877C62.7358 15.401 62.5466 15.163 62.2946 15.163C62.0427 15.163 61.8607 15.3032 61.7487 15.5836V21.0863C61.7487 21.4513 61.9377 21.6335 62.3155 21.633C62.806 21.633 63.0512 20.5476 63.0512 18.3767C63.0512 17.1868 62.9882 16.3535 62.8623 15.877Z" fill="#A16552"/>
<path d="M75.9475 19.7845C75.9475 20.6958 76.3816 21.1514 77.25 21.1514C77.7538 21.1514 78.4121 20.9799 79.2247 20.6368C80.0373 20.2938 80.4645 20.1222 80.5063 20.1222C80.7716 20.1222 81.1216 20.5213 81.5563 21.3194C81.991 22.1175 82.2081 22.7056 82.2076 23.0834C82.2076 23.6302 81.6474 24.0434 80.5272 24.3232C79.4526 24.5972 78.3485 24.7382 77.2395 24.7429C76.1675 24.7429 75.2713 24.6591 74.5509 24.4913C73.8305 24.3235 73.2425 24.1091 72.7869 23.8481C71.953 23.3679 71.2719 22.6619 70.8218 21.8115C70.6449 21.4452 70.5101 21.06 70.4198 20.6633C70.2787 20.0361 70.2083 19.3951 70.21 18.7522C70.21 16.2034 70.8752 14.4459 72.2056 13.4794C72.8631 12.99 73.6135 12.6399 74.411 12.4503C75.2231 12.2541 76.1825 12.156 77.2894 12.156C80.8319 12.156 82.6032 13.3888 82.6032 15.8545C82.6032 18.4729 80.6148 19.7824 76.6381 19.7829L75.9475 19.7845ZM75.9057 16.7172V18.1041C76.0982 18.108 76.289 18.0663 76.4623 17.9825C76.6357 17.8986 76.7869 17.775 76.9035 17.6217C77.1668 17.2873 77.3046 16.871 77.2926 16.4455C77.2926 15.6055 77.0755 15.1853 76.6413 15.1847C76.1509 15.1842 75.9057 15.695 75.9057 16.7172Z" fill="#A16552"/>
<path d="M95.0839 23.6494C94.6632 23.9577 94.0784 24.2131 93.3296 24.4157C92.5807 24.6183 91.6159 24.7199 90.4351 24.7204C89.3044 24.7252 88.1757 24.6267 87.063 24.4261C85.9985 24.2305 85.2352 24.0137 84.7731 23.7757C84.3111 23.5377 84.0801 23.3064 84.0801 23.0818C84.0858 22.2552 84.1987 21.4327 84.4162 20.6352C84.6397 19.7877 84.9058 19.364 85.2146 19.364C85.2682 19.364 85.8492 19.5532 86.9577 19.9317C88.0661 20.3101 88.8994 20.4977 89.4574 20.4945C90.0181 20.4945 90.3823 20.435 90.55 20.316C90.6322 20.2586 90.6984 20.1812 90.7424 20.0912C90.7864 20.0012 90.8068 19.9015 90.8017 19.8014C90.8017 19.5768 90.6476 19.3771 90.3394 19.2024C89.9735 19.0042 89.5858 18.8493 89.184 18.7409C88.6694 18.5875 88.1675 18.3942 87.6829 18.1628C87.161 17.9226 86.6581 17.6431 86.1786 17.3266C85.6913 16.9907 85.2944 16.5397 85.0232 16.0137C84.7072 15.4157 84.5481 14.7473 84.5609 14.0712C84.5609 10.9623 86.4163 9.40784 90.1271 9.40784C91.5133 9.40784 92.7107 9.49521 93.7195 9.66995C94.7283 9.84469 95.4388 10.0409 95.851 10.2585C96.2642 10.4729 96.4709 10.6873 96.4709 10.9017C96.4709 11.6296 96.2993 12.4138 95.9563 13.2543C95.6132 14.0947 95.2806 14.5147 94.9585 14.5142C94.9022 14.5142 94.7203 14.4512 94.4126 14.3252C93.488 13.9195 92.7212 13.7163 92.1123 13.7158C91.5034 13.7152 91.0904 13.7713 90.8733 13.8838C90.7739 13.9276 90.6898 14 90.6318 14.0918C90.5738 14.1836 90.5445 14.2906 90.5476 14.3992C90.5476 14.6302 90.7015 14.8192 91.0091 14.966C91.3773 15.1358 91.7606 15.2704 92.1541 15.368C92.6658 15.5078 93.1647 15.6907 93.6455 15.9148C94.1725 16.1532 94.6755 16.4415 95.1475 16.7759C95.61 17.1045 95.9952 17.57 96.3028 18.1725C96.6105 18.7749 96.7646 19.4752 96.7651 20.2734C96.7738 21.0833 96.5476 21.8783 96.1139 22.5624C95.8419 22.9862 95.4925 23.355 95.0839 23.6494Z" fill="#A16552"/>
<path d="M114.388 24.0273C114.205 24.3634 113.257 24.5315 111.541 24.5315C109.826 24.5315 108.934 24.3634 108.863 24.0273L108.149 20.2042H107.855L107.183 24.0273C107.141 24.3634 105.915 24.5315 103.507 24.5315C102.835 24.5315 102.39 24.4929 102.173 24.4157C102.075 24.3859 101.984 24.3359 101.906 24.2691C101.828 24.2022 101.765 24.1199 101.721 24.0273C99.1172 17.6284 97.815 14.2606 97.8145 13.924C97.8139 13.5874 98.3215 13.2409 99.3373 12.8844C100.276 12.5405 101.267 12.3591 102.267 12.3481C103.472 12.3481 104.095 12.6697 104.137 13.313L104.851 19.0681H105.103L105.355 14.4265C105.369 14.077 105.726 13.7688 106.426 13.5019C107.103 13.2396 107.822 13.1033 108.548 13.0999C109.262 13.0999 109.798 13.1873 110.156 13.362C110.514 13.5367 110.7 13.7511 110.713 14.0052L110.943 19.0705H111.175L111.867 13.6683C111.909 13.3322 112.381 13.0278 113.285 12.755C114.188 12.4821 114.982 12.3454 115.669 12.3449C116.355 12.3449 116.894 12.443 117.286 12.6392C117.929 12.9469 118.251 13.3111 118.251 13.7318C118.251 13.7737 117.617 15.4819 116.35 18.8567C115.083 22.2314 114.429 23.955 114.388 24.0273Z" fill="#A16552"/>
<path d="M122.664 24.7204C121.39 24.7204 120.388 24.4195 119.66 23.8175C119.366 23.565 119.11 23.1939 118.893 22.7039C118.676 22.214 118.567 21.641 118.567 20.9849C118.553 20.377 118.718 19.7783 119.04 19.2627C119.328 18.7982 119.722 18.4083 120.189 18.125C120.683 17.8396 121.213 17.6206 121.764 17.4738C122.746 17.2271 123.755 17.1071 124.768 17.1168H125.462C125.462 16.5427 125.266 16.1367 124.873 15.8987C124.705 15.8006 124.449 15.7516 124.106 15.7516C123.763 15.7516 123.35 15.8424 122.867 16.0241C122.45 16.1757 122.047 16.3621 121.661 16.5813C121.34 16.7705 121.122 16.8649 121.01 16.8643C120.757 16.8643 120.414 16.5317 119.981 15.8665C119.547 15.2014 119.33 14.5957 119.329 14.0495C119.329 13.8678 119.589 13.6298 120.107 13.3355C120.625 13.0412 121.357 12.7716 122.302 12.5266C123.203 12.2877 124.131 12.1642 125.064 12.1592C125.843 12.1479 126.622 12.2218 127.385 12.3795C127.937 12.4926 128.473 12.6727 128.982 12.9158C129.387 13.1195 129.744 13.4057 130.032 13.756C130.28 14.0485 130.498 14.365 130.683 14.7007C130.848 15.0454 130.957 15.4143 131.005 15.7934C131.112 16.4247 131.161 17.0643 131.152 17.7045V24.0274C131.152 24.1817 130.777 24.3042 130.026 24.3948C129.288 24.4855 128.544 24.5312 127.8 24.5315C127.064 24.5315 126.588 24.5106 126.371 24.4688C126.154 24.4262 126.025 24.3779 125.983 24.3216C125.928 24.2319 125.892 24.1317 125.877 24.0274L125.709 22.8342H125.541C125.189 24.0917 124.23 24.7204 122.664 24.7204ZM125.478 21.2334V18.7763C125.304 18.7734 125.131 18.8141 124.977 18.8947C124.823 18.9753 124.691 19.0933 124.593 19.2378C124.371 19.5426 124.253 19.9113 124.257 20.2887C124.257 21.2122 124.467 21.6743 124.888 21.6748C125.043 21.6837 125.197 21.6351 125.319 21.5381C125.366 21.5023 125.405 21.4564 125.433 21.4037C125.461 21.351 125.476 21.2929 125.479 21.2334H125.478Z" fill="#A16552"/>
<path d="M133.039 27.0729V13.7133C133.039 13.4196 133.431 13.1186 134.215 12.8104C135.026 12.4975 135.889 12.3406 136.758 12.3481C137.177 12.3481 137.506 12.3979 137.745 12.4952C137.984 12.5925 138.129 12.6914 138.186 12.7895C138.242 12.8876 138.346 13.3073 138.501 14.0494H138.669C138.697 13.924 138.823 13.7281 139.047 13.4617C139.247 13.218 139.477 12.9994 139.729 12.8104C139.961 12.6421 140.293 12.4915 140.727 12.3586C141.222 12.2175 141.735 12.1503 142.25 12.1592C142.803 12.1521 143.349 12.286 143.836 12.5483C144.312 12.8072 144.666 13.1082 144.897 13.4512C145.152 13.8508 145.337 14.2914 145.443 14.7537C145.556 15.1662 145.634 15.5878 145.674 16.0136C145.695 16.3288 145.706 16.7844 145.706 17.3805C145.706 17.9765 145.685 18.5648 145.643 19.1453C145.599 19.7409 145.522 20.3336 145.411 20.9206C145.32 21.4578 145.158 21.9804 144.929 22.4747C144.722 22.9039 144.454 23.3003 144.131 23.651C143.488 24.3516 142.543 24.7016 141.296 24.7011C140.891 24.7085 140.489 24.6409 140.109 24.5017C139.766 24.3687 139.51 24.2111 139.342 24.0289C138.992 23.651 138.789 23.3149 138.732 23.0207L138.711 22.8108H138.543L138.838 24.7011V27.0745C138.838 27.2289 138.436 27.3514 137.632 27.442C136.809 27.5343 135.981 27.58 135.153 27.5787C134.305 27.5787 133.743 27.5403 133.464 27.4637C133.179 27.3849 133.039 27.2562 133.039 27.0729ZM139.824 15.8769C139.698 15.401 139.511 15.163 139.261 15.163C139.012 15.163 138.83 15.3031 138.715 15.5835V21.0862C138.715 21.4512 138.904 21.6335 139.282 21.6329C139.772 21.6329 140.017 20.5475 140.017 18.3766C140.014 17.1867 139.95 16.3535 139.824 15.8769Z" fill="#A16552"/>
</g>
<defs>
<clipPath id="clip0">
<rect width="144.884" height="32" fill="white" transform="translate(0.791992)"/>
</clipPath>
</defs>
</svg>
