<svg width="16" height="16" viewBox="0 0 16 16" fill="none" xmlns="http://www.w3.org/2000/svg">
<path d="M3.78 0.16C3.66114 0.0708587 3.51981 0.0165753 3.37184 0.00323294C3.22388 -0.0101094 3.07511 0.0180162 2.94223 0.0844585C2.80934 0.150901 2.69759 0.253035 2.61948 0.379415C2.54137 0.505796 2.5 0.651431 2.5 0.8V15.2C2.5 15.3486 2.54137 15.4942 2.61948 15.6206C2.69759 15.747 2.80934 15.8491 2.94223 15.9155C3.07511 15.982 3.22388 16.0101 3.37184 15.9968C3.51981 15.9834 3.66114 15.9291 3.78 15.84L13.38 8.64C13.4794 8.56548 13.56 8.46885 13.6155 8.35777C13.6711 8.24669 13.7 8.1242 13.7 8C13.7 7.8758 13.6711 7.75331 13.6155 7.64223C13.56 7.53114 13.4794 7.43452 13.38 7.36L3.78 0.16Z" fill="white"/>
</svg>
