<svg width="158" height="158" viewBox="0 0 158 158" fill="none" xmlns="http://www.w3.org/2000/svg">
<g opacity="0.05" filter="url(#filter0_d)">
<circle cx="79" cy="71" r="54.5" stroke="url(#paint0_linear)" shape-rendering="crispEdges"/>
</g>
<g opacity="0.1" filter="url(#filter1_d)">
<circle cx="79" cy="71" r="44.5" stroke="url(#paint1_linear)" shape-rendering="crispEdges"/>
</g>
<g opacity="0.2" filter="url(#filter2_d)">
<circle cx="79" cy="71" r="35.5" stroke="url(#paint2_linear)" shape-rendering="crispEdges"/>
</g>
<g filter="url(#filter3_d)">
<circle cx="79" cy="71" r="26" fill="url(#paint3_linear)"/>
</g>
<path d="M87.2422 70.453H70.7578C69.7885 70.453 69 71.2415 69 72.2108V79.2421C69 80.2114 69.7885 80.9999 70.7578 80.9999H87.2422C88.2115 80.9999 89 80.2114 89 79.2421V72.2108C89 71.2415 88.2115 70.453 87.2422 70.453ZM74.3125 78.6561H71.9688C71.6449 78.6561 71.3828 78.3941 71.3828 78.0702V73.3827C71.3828 73.0588 71.6449 72.7968 71.9688 72.7968C72.2926 72.7968 72.5547 73.0588 72.5547 73.3827V77.4843H74.3125C74.6364 77.4843 74.8984 77.7463 74.8984 78.0702C74.8984 78.3941 74.6364 78.6561 74.3125 78.6561ZM77.2422 78.0702C77.2422 78.3941 76.9801 78.6561 76.6562 78.6561C76.3324 78.6561 76.0703 78.3941 76.0703 78.0702V73.3827C76.0703 73.0588 76.3324 72.7968 76.6562 72.7968C76.9801 72.7968 77.2422 73.0588 77.2422 73.3827V78.0702ZM81.912 73.5246L80.7401 78.2121C80.6748 78.473 80.4408 78.6561 80.1719 78.6561C79.9029 78.6561 79.6689 78.473 79.6037 78.2121L78.4318 73.5246C78.3529 73.211 78.5439 72.8929 78.8581 72.8145C79.1711 72.7332 79.4898 72.9266 79.5682 73.2408L80.1719 75.6544L80.7755 73.2408C80.8534 72.9267 81.1715 72.7327 81.4857 72.8145C81.7998 72.8929 81.9909 73.211 81.912 73.5246V73.5246ZM86.0312 75.1405C86.3551 75.1405 86.6172 75.4026 86.6172 75.7264C86.6172 76.0503 86.3551 76.3124 86.0312 76.3124H84.2734V77.4843H86.0312C86.3551 77.4843 86.6172 77.7463 86.6172 78.0702C86.6172 78.3941 86.3551 78.6561 86.0312 78.6561H83.6875C83.3636 78.6561 83.1016 78.3941 83.1016 78.0702V73.3827C83.1016 73.0588 83.3636 72.7968 83.6875 72.7968H86.0312C86.3551 72.7968 86.6172 73.0588 86.6172 73.3827C86.6172 73.7066 86.3551 73.9686 86.0312 73.9686H84.2734V75.1405H86.0312Z" fill="white"/>
<path d="M73.8429 68.9691C72.1331 66.6917 72.1331 63.5114 73.8429 61.234C74.0369 60.976 74.4048 60.9227 74.6634 61.1173C74.9221 61.3119 74.9741 61.6792 74.7801 61.9379C73.3811 63.8004 73.3811 66.4028 74.7801 68.2653C74.9741 68.5239 74.9221 68.8913 74.6634 69.0858C74.4059 69.279 74.0378 69.229 73.8429 68.9691Z" fill="white"/>
<path d="M83.336 69.0858C83.0774 68.8913 83.0253 68.5239 83.2193 68.2653C84.6183 66.4027 84.6183 63.8004 83.2193 61.9379C83.0253 61.6792 83.0774 61.3119 83.336 61.1173C83.5946 60.9233 83.9632 60.976 84.1566 61.234C85.8663 63.5114 85.8663 66.6917 84.1566 68.9691C83.9619 69.2286 83.5941 69.2793 83.336 69.0858Z" fill="white"/>
<path d="M75.9426 67.8359C74.5465 66.2773 74.5465 63.9255 75.9426 62.3668C76.1589 62.1259 76.5309 62.1065 76.7701 62.321C77.011 62.5367 77.0315 62.9076 76.8158 63.1484C75.819 64.262 75.819 65.9408 76.8158 67.0543C77.0315 67.2952 77.011 67.666 76.7701 67.8817C76.53 68.0972 76.1586 68.0776 75.9426 67.8359Z" fill="white"/>
<path d="M81.2297 67.8818C80.9888 67.6661 80.9682 67.2953 81.1839 67.0544C82.1807 65.9409 82.1807 64.262 81.1839 63.1485C80.9682 62.9076 80.9888 62.5368 81.2297 62.3211C81.47 62.1059 81.8414 62.1254 82.0571 62.3669C83.4533 63.9256 83.4533 66.2773 82.0571 67.836C81.8412 68.0775 81.4698 68.0973 81.2297 67.8818Z" fill="white"/>
<path d="M79 66.8593C78.0307 66.8593 77.2422 66.0707 77.2422 65.1014C77.2422 64.1321 78.0307 63.3436 79 63.3436C79.9693 63.3436 80.7578 64.1321 80.7578 65.1014C80.7578 66.0707 79.9693 66.8593 79 66.8593Z" fill="white"/>
<defs>
<filter id="filter0_d" x="0" y="0" width="158" height="158" filterUnits="userSpaceOnUse" color-interpolation-filters="sRGB">
<feFlood flood-opacity="0" result="BackgroundImageFix"/>
<feColorMatrix in="SourceAlpha" type="matrix" values="0 0 0 0 0 0 0 0 0 0 0 0 0 0 0 0 0 0 127 0" result="hardAlpha"/>
<feOffset dy="8"/>
<feGaussianBlur stdDeviation="12"/>
<feComposite in2="hardAlpha" operator="out"/>
<feColorMatrix type="matrix" values="0 0 0 0 0.110104 0 0 0 0 0.121556 0 0 0 0 0.175 0 0 0 0.15 0"/>
<feBlend mode="normal" in2="BackgroundImageFix" result="effect1_dropShadow"/>
<feBlend mode="normal" in="SourceGraphic" in2="effect1_dropShadow" result="shape"/>
</filter>
<filter id="filter1_d" x="10" y="10" width="138" height="138" filterUnits="userSpaceOnUse" color-interpolation-filters="sRGB">
<feFlood flood-opacity="0" result="BackgroundImageFix"/>
<feColorMatrix in="SourceAlpha" type="matrix" values="0 0 0 0 0 0 0 0 0 0 0 0 0 0 0 0 0 0 127 0" result="hardAlpha"/>
<feOffset dy="8"/>
<feGaussianBlur stdDeviation="12"/>
<feComposite in2="hardAlpha" operator="out"/>
<feColorMatrix type="matrix" values="0 0 0 0 0.110104 0 0 0 0 0.121556 0 0 0 0 0.175 0 0 0 0.15 0"/>
<feBlend mode="normal" in2="BackgroundImageFix" result="effect1_dropShadow"/>
<feBlend mode="normal" in="SourceGraphic" in2="effect1_dropShadow" result="shape"/>
</filter>
<filter id="filter2_d" x="19" y="19" width="120" height="120" filterUnits="userSpaceOnUse" color-interpolation-filters="sRGB">
<feFlood flood-opacity="0" result="BackgroundImageFix"/>
<feColorMatrix in="SourceAlpha" type="matrix" values="0 0 0 0 0 0 0 0 0 0 0 0 0 0 0 0 0 0 127 0" result="hardAlpha"/>
<feOffset dy="8"/>
<feGaussianBlur stdDeviation="12"/>
<feComposite in2="hardAlpha" operator="out"/>
<feColorMatrix type="matrix" values="0 0 0 0 0.110104 0 0 0 0 0.121556 0 0 0 0 0.175 0 0 0 0.15 0"/>
<feBlend mode="normal" in2="BackgroundImageFix" result="effect1_dropShadow"/>
<feBlend mode="normal" in="SourceGraphic" in2="effect1_dropShadow" result="shape"/>
</filter>
<filter id="filter3_d" x="29" y="29" width="100" height="100" filterUnits="userSpaceOnUse" color-interpolation-filters="sRGB">
<feFlood flood-opacity="0" result="BackgroundImageFix"/>
<feColorMatrix in="SourceAlpha" type="matrix" values="0 0 0 0 0 0 0 0 0 0 0 0 0 0 0 0 0 0 127 0" result="hardAlpha"/>
<feOffset dy="8"/>
<feGaussianBlur stdDeviation="12"/>
<feComposite in2="hardAlpha" operator="out"/>
<feColorMatrix type="matrix" values="0 0 0 0 0.110104 0 0 0 0 0.121556 0 0 0 0 0.175 0 0 0 0.15 0"/>
<feBlend mode="normal" in2="BackgroundImageFix" result="effect1_dropShadow"/>
<feBlend mode="normal" in="SourceGraphic" in2="effect1_dropShadow" result="shape"/>
</filter>
<linearGradient id="paint0_linear" x1="79" y1="16" x2="79" y2="126" gradientUnits="userSpaceOnUse">
<stop stop-color="#70B7FF"/>
<stop offset="1" stop-color="#4FA1F5"/>
</linearGradient>
<linearGradient id="paint1_linear" x1="79" y1="26" x2="79" y2="116" gradientUnits="userSpaceOnUse">
<stop stop-color="#70B7FF"/>
<stop offset="1" stop-color="#4FA1F5"/>
</linearGradient>
<linearGradient id="paint2_linear" x1="79" y1="35" x2="79" y2="107" gradientUnits="userSpaceOnUse">
<stop stop-color="#70B7FF"/>
<stop offset="1" stop-color="#4FA1F5"/>
</linearGradient>
<linearGradient id="paint3_linear" x1="81.0233" y1="44.8203" x2="81.5755" y2="84.9829" gradientUnits="userSpaceOnUse">
<stop stop-color="#71B7FF"/>
<stop offset="1" stop-color="#4EA0F4"/>
</linearGradient>
</defs>
</svg>
