<svg width="130" height="32" viewBox="0 0 130 32" fill="none" xmlns="http://www.w3.org/2000/svg">
<path d="M30.6667 0H1.33333C0.979711 0 0.640573 0.140476 0.390524 0.390524C0.140476 0.640573 0 0.979711 0 1.33333L0 30.6667C0 31.0203 0.140476 31.3594 0.390524 31.6095C0.640573 31.8595 0.979711 32 1.33333 32H30.6667C31.0203 32 31.3594 31.8595 31.6095 31.6095C31.8595 31.3594 32 31.0203 32 30.6667V1.33333C32 0.979711 31.8595 0.640573 31.6095 0.390524C31.3594 0.140476 31.0203 0 30.6667 0V0ZM26.584 7.58133L24.868 9.22667C24.7954 9.28196 24.7393 9.356 24.7057 9.44082C24.6721 9.52564 24.6623 9.61802 24.6773 9.708V21.7987C24.6623 21.8887 24.6721 21.981 24.7057 22.0658C24.7393 22.1507 24.7954 22.2247 24.868 22.28L26.544 23.9253V24.2867H18.1147V23.9253L19.848 22.24C20.0187 22.0693 20.0187 22.0187 20.0187 21.7587V11.9867L15.1907 24.2533H14.5387L8.92133 11.9867V20.204C8.89821 20.3744 8.91416 20.5478 8.96799 20.7112C9.02181 20.8745 9.11209 21.0234 9.232 21.1467L11.4907 23.8853V24.2467H5.09067V23.8853L7.34533 21.1467C7.46426 21.0233 7.55253 20.8737 7.60302 20.71C7.65351 20.5462 7.66481 20.3729 7.636 20.204V10.7027C7.6497 10.5728 7.6327 10.4416 7.58638 10.3196C7.54006 10.1975 7.46571 10.0881 7.36933 10L5.35867 7.58133V7.22H11.5907L16.408 17.7853L20.6427 7.22H26.584V7.58133Z" fill="#6AD035"/>
<path d="M70.5215 9.49V22H68.4515V12.622L64.8335 22H63.0335L59.3975 12.622V22H57.3455V9.49H59.8295L63.9695 19.48L68.0375 9.49H70.5215ZM82.206 16.564C82.206 16.9 82.182 17.194 82.134 17.446H74.502C74.538 18.466 74.82 19.222 75.348 19.714C75.876 20.206 76.53 20.452 77.31 20.452C77.994 20.452 78.57 20.278 79.038 19.93C79.518 19.582 79.812 19.12 79.92 18.544H82.116C81.984 19.24 81.708 19.858 81.288 20.398C80.868 20.938 80.322 21.364 79.65 21.676C78.978 21.976 78.228 22.126 77.4 22.126C76.44 22.126 75.588 21.922 74.844 21.514C74.112 21.106 73.536 20.518 73.116 19.75C72.696 18.982 72.486 18.076 72.486 17.032C72.486 16 72.696 15.1 73.116 14.332C73.536 13.564 74.112 12.976 74.844 12.568C75.588 12.16 76.44 11.956 77.4 11.956C78.372 11.956 79.218 12.16 79.938 12.568C80.67 12.964 81.228 13.516 81.612 14.224C82.008 14.92 82.206 15.7 82.206 16.564ZM80.136 16.51C80.16 15.862 80.046 15.322 79.794 14.89C79.554 14.446 79.218 14.122 78.786 13.918C78.366 13.702 77.904 13.594 77.4 13.594C76.596 13.594 75.924 13.84 75.384 14.332C74.844 14.824 74.55 15.55 74.502 16.51H80.136ZM88.1653 11.956C89.0653 11.956 89.8333 12.178 90.4693 12.622C91.1053 13.066 91.5493 13.654 91.8013 14.386V8.68H93.8713V22H91.8013V19.696C91.5493 20.428 91.1053 21.016 90.4693 21.46C89.8333 21.904 89.0653 22.126 88.1653 22.126C87.3013 22.126 86.5273 21.922 85.8433 21.514C85.1713 21.106 84.6433 20.518 84.2593 19.75C83.8753 18.982 83.6833 18.076 83.6833 17.032C83.6833 16 83.8753 15.1 84.2593 14.332C84.6433 13.564 85.1713 12.976 85.8433 12.568C86.5273 12.16 87.3013 11.956 88.1653 11.956ZM88.7953 13.756C87.8833 13.756 87.1513 14.05 86.5993 14.638C86.0593 15.214 85.7893 16.012 85.7893 17.032C85.7893 18.052 86.0593 18.856 86.5993 19.444C87.1513 20.02 87.8833 20.308 88.7953 20.308C89.3713 20.308 89.8873 20.176 90.3433 19.912C90.7993 19.636 91.1593 19.252 91.4233 18.76C91.6873 18.268 91.8193 17.692 91.8193 17.032C91.8193 16.384 91.6873 15.814 91.4233 15.322C91.1593 14.818 90.7993 14.434 90.3433 14.17C89.8873 13.894 89.3713 13.756 88.7953 13.756ZM96.0458 9.202C96.0458 8.854 96.1658 8.566 96.4058 8.338C96.6458 8.11 96.9638 7.996 97.3598 7.996C97.7558 7.996 98.0738 8.11 98.3138 8.338C98.5658 8.566 98.6918 8.854 98.6918 9.202C98.6918 9.55 98.5658 9.832 98.3138 10.048C98.0738 10.264 97.7558 10.372 97.3598 10.372C96.9638 10.372 96.6458 10.264 96.4058 10.048C96.1658 9.832 96.0458 9.55 96.0458 9.202ZM98.3858 12.082V22H96.3338V12.082H98.3858ZM110.013 12.082V22H107.943V19.84C107.691 20.572 107.253 21.142 106.629 21.55C106.005 21.946 105.279 22.144 104.451 22.144C103.299 22.144 102.375 21.772 101.679 21.028C100.983 20.284 100.635 19.222 100.635 17.842V12.082H102.687V17.626C102.687 18.526 102.915 19.222 103.371 19.714C103.827 20.194 104.451 20.434 105.243 20.434C106.059 20.434 106.713 20.17 107.205 19.642C107.697 19.114 107.943 18.346 107.943 17.338V12.082H110.013ZM124.873 11.92C126.049 11.92 126.985 12.292 127.681 13.036C128.389 13.78 128.743 14.842 128.743 16.222V22H126.691V16.438C126.691 15.574 126.475 14.908 126.043 14.44C125.611 13.96 125.017 13.72 124.261 13.72C123.457 13.72 122.815 13.978 122.335 14.494C121.867 14.998 121.633 15.742 121.633 16.726V22H119.581V16.438C119.581 15.574 119.365 14.908 118.933 14.44C118.501 13.96 117.907 13.72 117.151 13.72C116.347 13.72 115.705 13.978 115.225 14.494C114.757 14.998 114.523 15.742 114.523 16.726V22H112.471V12.082H114.523V14.152C114.775 13.432 115.195 12.88 115.783 12.496C116.371 12.112 117.061 11.92 117.853 11.92C118.681 11.92 119.395 12.124 119.995 12.532C120.607 12.94 121.051 13.528 121.327 14.296C121.615 13.552 122.077 12.97 122.713 12.55C123.349 12.13 124.069 11.92 124.873 11.92Z" fill="white"/>
</svg>
