<svg width="143" height="32" viewBox="0 0 143 32" fill="none" xmlns="http://www.w3.org/2000/svg">
<g clip-path="url(#clip0)">
<path d="M31.9376 3.36928C31.9117 3.25112 31.855 3.14191 31.7733 3.0527C31.6916 2.96349 31.5877 2.89746 31.4723 2.86128C31.0518 2.77801 30.6168 2.80886 30.2123 2.95061C30.2123 2.95061 2.17362 13.0293 0.572283 14.1453C0.228283 14.3853 0.112283 14.5253 0.0549493 14.6893C-0.222384 15.4893 0.640283 15.8333 0.640283 15.8333L7.86695 18.1879C7.98914 18.2099 8.11479 18.2026 8.23362 18.1666C9.87628 17.1279 24.767 7.72128 25.6323 7.40528C25.7656 7.36528 25.8683 7.40528 25.8416 7.50528C25.4976 8.71194 12.6296 20.1426 12.559 20.2119C12.5245 20.2401 12.4977 20.2765 12.4809 20.3177C12.4642 20.359 12.458 20.4037 12.463 20.4479L11.7883 27.5039C11.7883 27.5039 11.5056 29.6999 13.7016 27.5039C15.259 25.9453 16.7536 24.6546 17.5003 24.0266C19.9856 25.7426 22.659 27.6399 23.8123 28.6333C24.0063 28.8211 24.2362 28.9678 24.4882 29.0647C24.7402 29.1616 25.0091 29.2067 25.279 29.1973C25.6112 29.1568 25.9233 29.0161 26.1736 28.7938C26.424 28.5716 26.6007 28.2784 26.6803 27.9533C26.6803 27.9533 31.787 7.38928 31.9576 4.63461C31.975 4.36794 31.9976 4.19194 32.0003 4.00661C32.0086 3.7923 31.9875 3.57787 31.9376 3.36928Z" fill="#696E87"/>
</g>
<path d="M65.5224 9.292V10.948H61.9764V22H59.9064V10.948H56.3784V9.292H65.5224ZM76.2695 16.564C76.2695 16.9 76.2455 17.194 76.1975 17.446H68.5655C68.6015 18.466 68.8835 19.222 69.4115 19.714C69.9395 20.206 70.5935 20.452 71.3735 20.452C72.0575 20.452 72.6335 20.278 73.1015 19.93C73.5815 19.582 73.8755 19.12 73.9835 18.544H76.1795C76.0475 19.24 75.7715 19.858 75.3515 20.398C74.9315 20.938 74.3855 21.364 73.7135 21.676C73.0415 21.976 72.2915 22.126 71.4635 22.126C70.5035 22.126 69.6515 21.922 68.9075 21.514C68.1755 21.106 67.5995 20.518 67.1795 19.75C66.7595 18.982 66.5495 18.076 66.5495 17.032C66.5495 16 66.7595 15.1 67.1795 14.332C67.5995 13.564 68.1755 12.976 68.9075 12.568C69.6515 12.16 70.5035 11.956 71.4635 11.956C72.4355 11.956 73.2815 12.16 74.0015 12.568C74.7335 12.964 75.2915 13.516 75.6755 14.224C76.0715 14.92 76.2695 15.7 76.2695 16.564ZM74.1995 16.51C74.2235 15.862 74.1095 15.322 73.8575 14.89C73.6175 14.446 73.2815 14.122 72.8495 13.918C72.4295 13.702 71.9675 13.594 71.4635 13.594C70.6595 13.594 69.9875 13.84 69.4475 14.332C68.9075 14.824 68.6135 15.55 68.5655 16.51H74.1995ZM80.3028 8.68V22H78.2508V8.68H80.3028ZM92.0019 16.564C92.0019 16.9 91.9779 17.194 91.9299 17.446H84.2979C84.3339 18.466 84.6159 19.222 85.1439 19.714C85.6719 20.206 86.3259 20.452 87.1059 20.452C87.7899 20.452 88.3659 20.278 88.8339 19.93C89.3139 19.582 89.6079 19.12 89.7159 18.544H91.9119C91.7799 19.24 91.5039 19.858 91.0839 20.398C90.6639 20.938 90.1179 21.364 89.4459 21.676C88.7739 21.976 88.0239 22.126 87.1959 22.126C86.2359 22.126 85.3839 21.922 84.6399 21.514C83.9079 21.106 83.3319 20.518 82.9119 19.75C82.4919 18.982 82.2819 18.076 82.2819 17.032C82.2819 16 82.4919 15.1 82.9119 14.332C83.3319 13.564 83.9079 12.976 84.6399 12.568C85.3839 12.16 86.2359 11.956 87.1959 11.956C88.1679 11.956 89.0139 12.16 89.7339 12.568C90.4659 12.964 91.0239 13.516 91.4079 14.224C91.8039 14.92 92.0019 15.7 92.0019 16.564ZM89.9319 16.51C89.9559 15.862 89.8419 15.322 89.5899 14.89C89.3499 14.446 89.0139 14.122 88.5819 13.918C88.1619 13.702 87.6999 13.594 87.1959 13.594C86.3919 13.594 85.7199 13.84 85.1799 14.332C84.6399 14.824 84.3459 15.55 84.2979 16.51H89.9319ZM97.9612 11.956C98.8612 11.956 99.6292 12.178 100.265 12.622C100.901 13.066 101.351 13.654 101.615 14.386V12.082H103.667V22.108C103.667 23.032 103.475 23.848 103.091 24.556C102.719 25.276 102.179 25.84 101.471 26.248C100.763 26.656 99.9232 26.86 98.9512 26.86C97.5592 26.86 96.4312 26.53 95.5672 25.87C94.7152 25.21 94.1812 24.316 93.9652 23.188H95.9992C96.1672 23.776 96.4912 24.232 96.9712 24.556C97.4512 24.892 98.0632 25.06 98.8072 25.06C99.6232 25.06 100.295 24.808 100.823 24.304C101.351 23.8 101.615 23.068 101.615 22.108V19.696C101.351 20.428 100.901 21.016 100.265 21.46C99.6292 21.904 98.8612 22.126 97.9612 22.126C97.0972 22.126 96.3232 21.922 95.6392 21.514C94.9672 21.106 94.4392 20.518 94.0552 19.75C93.6712 18.982 93.4792 18.076 93.4792 17.032C93.4792 16 93.6712 15.1 94.0552 14.332C94.4392 13.564 94.9672 12.976 95.6392 12.568C96.3232 12.16 97.0972 11.956 97.9612 11.956ZM98.5912 13.756C97.6792 13.756 96.9472 14.05 96.3952 14.638C95.8552 15.214 95.5852 16.012 95.5852 17.032C95.5852 18.052 95.8552 18.856 96.3952 19.444C96.9472 20.02 97.6792 20.308 98.5912 20.308C99.1672 20.308 99.6832 20.176 100.139 19.912C100.595 19.636 100.955 19.252 101.219 18.76C101.483 18.268 101.615 17.692 101.615 17.032C101.615 16.384 101.483 15.814 101.219 15.322C100.955 14.818 100.595 14.434 100.139 14.17C99.6832 13.894 99.1672 13.756 98.5912 13.756ZM108.182 14.026C108.518 13.378 108.998 12.868 109.622 12.496C110.246 12.112 110.966 11.92 111.782 11.92V14.152H111.17C110.27 14.152 109.544 14.374 108.992 14.818C108.452 15.25 108.182 15.97 108.182 16.978V22H106.13V12.082H108.182V14.026ZM117.297 11.956C118.197 11.956 118.965 12.178 119.601 12.622C120.237 13.066 120.687 13.654 120.951 14.386V12.082H123.003V22H120.951V19.696C120.687 20.428 120.237 21.016 119.601 21.46C118.965 21.904 118.197 22.126 117.297 22.126C116.433 22.126 115.659 21.922 114.975 21.514C114.303 21.106 113.775 20.518 113.391 19.75C113.007 18.982 112.815 18.076 112.815 17.032C112.815 16 113.007 15.1 113.391 14.332C113.775 13.564 114.303 12.976 114.975 12.568C115.659 12.16 116.433 11.956 117.297 11.956ZM117.927 13.756C117.015 13.756 116.283 14.05 115.731 14.638C115.191 15.214 114.921 16.012 114.921 17.032C114.921 18.052 115.191 18.856 115.731 19.444C116.283 20.02 117.015 20.308 117.927 20.308C118.503 20.308 119.019 20.176 119.475 19.912C119.931 19.636 120.291 19.252 120.555 18.76C120.819 18.268 120.951 17.692 120.951 17.032C120.951 16.384 120.819 15.814 120.555 15.322C120.291 14.818 119.931 14.434 119.475 14.17C119.019 13.894 118.503 13.756 117.927 13.756ZM137.868 11.92C139.044 11.92 139.98 12.292 140.676 13.036C141.384 13.78 141.738 14.842 141.738 16.222V22H139.686V16.438C139.686 15.574 139.47 14.908 139.038 14.44C138.606 13.96 138.012 13.72 137.256 13.72C136.452 13.72 135.81 13.978 135.33 14.494C134.862 14.998 134.628 15.742 134.628 16.726V22H132.576V16.438C132.576 15.574 132.36 14.908 131.928 14.44C131.496 13.96 130.902 13.72 130.146 13.72C129.342 13.72 128.7 13.978 128.22 14.494C127.752 14.998 127.518 15.742 127.518 16.726V22H125.466V12.082H127.518V14.152C127.77 13.432 128.19 12.88 128.778 12.496C129.366 12.112 130.056 11.92 130.848 11.92C131.676 11.92 132.39 12.124 132.99 12.532C133.602 12.94 134.046 13.528 134.322 14.296C134.61 13.552 135.072 12.97 135.708 12.55C136.344 12.13 137.064 11.92 137.868 11.92Z" fill="white"/>
<defs>
<clipPath id="clip0">
<rect width="32" height="32" fill="white"/>
</clipPath>
</defs>
</svg>
