<svg width="21" height="24" viewBox="0 0 21 24" fill="none" xmlns="http://www.w3.org/2000/svg">
<path fill-rule="evenodd" clip-rule="evenodd" d="M20.7027 4.78565L20.7051 4.78961C20.7051 4.79587 20.7049 4.80205 20.7046 4.80824C20.7045 4.81347 20.7043 4.81871 20.7042 4.82397C20.7043 4.82735 20.7045 4.83081 20.7047 4.83428C20.7049 4.83801 20.7051 4.84175 20.7051 4.84539L20.7037 4.84316C20.6897 5.7141 20.3364 6.49696 19.768 7.06541C19.1879 7.64551 18.3847 8.0025 17.4922 8.0025C16.5997 8.0025 15.7965 7.64551 15.2164 7.06541C14.6363 6.4853 14.2793 5.68208 14.2793 4.78961C14.2793 3.46891 15.5605 1.97448 16.4948 0.884761L16.5328 0.840437C16.6064 0.750399 16.6801 0.663364 16.7494 0.581535C16.8689 0.440311 16.9753 0.314594 17.046 0.215709C17.2468 -0.0297202 17.6037 -0.0743436 17.8492 0.126462C17.8803 0.142018 17.9006 0.16842 17.9175 0.190544C17.9249 0.200152 17.9317 0.208953 17.9384 0.215709L18.0477 0.396378C19.0137 1.50298 20.6539 3.47383 20.7027 4.78565ZM17.4922 6.8646C18.0723 6.8646 18.5855 6.64149 18.9648 6.26219C19.3441 5.88289 19.5672 5.36972 19.5672 4.78961C19.5672 3.85846 18.4437 2.5528 17.6195 1.59501L17.6037 1.57672L17.4922 1.44285L17.3806 1.57672L17.3649 1.59501C16.5407 2.5528 15.4172 3.85846 15.4172 4.78961C15.4172 5.36972 15.6403 5.88289 16.0196 6.26219C16.3989 6.64149 16.9121 6.8646 17.4922 6.8646ZM10.8881 3.47335C11.2897 3.96421 11.8252 4.58894 12.4053 5.25829L12.4645 5.32714C15.0475 8.33306 18.5634 12.4245 18.5634 15.8787C18.5634 18.1098 17.6486 20.1402 16.176 21.6128C14.7257 23.0854 12.6731 24.0001 10.4419 24.0001C8.21072 24.0001 6.18035 23.0854 4.70777 21.6128C3.2352 20.1625 2.32042 18.1322 2.32042 15.8787C2.32042 15.4771 2.36504 15.0754 2.45429 14.6738C2.49096 14.4722 2.54268 14.2856 2.5971 14.0893C2.60891 14.0467 2.62085 14.0036 2.63278 13.9599C2.18655 13.7144 1.78494 13.4244 1.42795 13.0674C0.557793 12.1749 0 10.9701 0 9.60908C0 7.53408 2.07499 5.12442 3.59219 3.40641C3.77643 3.18532 3.95391 2.97776 4.11346 2.79116C4.24374 2.6388 4.36206 2.50042 4.46235 2.38008C4.66315 2.13465 5.02014 2.09002 5.26557 2.29083C5.27232 2.29758 5.28112 2.30434 5.29073 2.31171C5.31286 2.3287 5.33926 2.34896 5.35482 2.38008C5.55562 2.64782 5.86798 3.0048 6.20266 3.3841C6.80508 4.07577 7.49674 4.87899 8.09916 5.70452C8.17488 5.59851 8.26089 5.50278 8.35019 5.40337C8.39246 5.35632 8.43546 5.30846 8.47846 5.25829C9.05856 4.58894 9.59404 3.96421 9.99565 3.47335C10.1965 3.22792 10.5534 3.1833 10.7989 3.3841C10.8056 3.39086 10.8144 3.39761 10.824 3.40499C10.8462 3.42197 10.8726 3.44224 10.8881 3.47335ZM1.11559 9.6537C1.11559 10.68 1.53951 11.6394 2.20886 12.3088C2.63278 12.7327 3.14595 13.0451 3.70375 13.2236C3.7149 13.2236 3.72606 13.2292 3.73721 13.2347C3.74837 13.2403 3.75953 13.2459 3.77068 13.2459C3.8153 13.257 3.8655 13.2682 3.91569 13.2794C3.9659 13.2905 4.01611 13.3017 4.06073 13.3128C4.08305 13.3351 4.10536 13.3351 4.12767 13.3351C4.18345 13.3463 4.23923 13.3519 4.29501 13.3574C4.35079 13.363 4.40657 13.3686 4.46235 13.3798H4.50697C4.64084 13.4021 4.7524 13.4021 4.88627 13.4021C5.53331 13.4021 6.13573 13.2459 6.67121 12.9558C6.98357 12.7773 7.29594 12.5542 7.54136 12.3088C7.78679 12.0411 8.00991 11.751 8.18841 11.4386C8.47846 10.9032 8.63464 10.3007 8.63464 9.6537C8.63464 9.54214 8.63464 9.45289 8.61233 9.34134C8.60025 9.31718 8.59471 9.28648 8.58863 9.25278C8.58348 9.22424 8.57794 9.19354 8.5677 9.16284C8.5677 9.14053 8.56213 9.11822 8.55655 9.09591C8.55097 9.0736 8.54539 9.05128 8.54539 9.02897L8.47846 8.76123C8.45615 8.73892 8.45615 8.71661 8.45615 8.69429C8.43892 8.60817 8.4084 8.53535 8.37484 8.45528C8.36493 8.43164 8.35476 8.40736 8.34459 8.38193V8.35962C8.16609 7.89107 7.87604 7.42253 7.56368 6.93167C6.89432 5.92764 6.04648 4.94592 5.3325 4.12039C5.28207 4.06275 5.23164 4.00744 5.18195 3.95295C5.07778 3.8387 4.97691 3.72808 4.88627 3.60722C4.7524 3.7634 4.59622 3.9419 4.44003 4.12039C3.05671 5.72683 1.1379 7.95801 1.11559 9.6537ZM10.3973 22.8622C12.3161 22.8622 14.0564 22.0813 15.3282 20.8096C16.5999 19.5601 17.3808 17.8198 17.3808 15.8787C17.3808 12.7997 13.9671 8.85048 11.4905 5.99458C11.2627 5.7131 11.0348 5.44773 10.8166 5.19363C10.6716 5.02475 10.5309 4.86084 10.3973 4.7005C10.3153 4.79889 10.2319 4.89996 10.1469 5.00306C9.88499 5.32076 9.60721 5.65767 9.30399 5.99458C9.28439 6.01662 9.26453 6.03894 9.24442 6.06152C9.0814 6.24464 8.90265 6.44545 8.72389 6.66393C8.99163 7.08785 9.21474 7.51177 9.39324 7.9357C9.41555 7.95801 9.41555 7.98032 9.39324 7.98032C9.40439 8.00263 9.40997 8.02494 9.41555 8.04725C9.42113 8.06957 9.42671 8.09188 9.43786 8.11419C9.45118 8.14748 9.4645 8.17879 9.47722 8.2087C9.50713 8.27902 9.53377 8.34163 9.54942 8.40424C9.56058 8.43771 9.56615 8.4656 9.57173 8.49349C9.57731 8.52138 9.58289 8.54927 9.59404 8.58274C9.6052 8.62736 9.61636 8.66641 9.62751 8.70545C9.63867 8.7445 9.64982 8.78354 9.66098 8.82817C9.67213 8.86163 9.67771 8.90068 9.68329 8.93972C9.68887 8.97877 9.69445 9.01782 9.7056 9.05128C9.7056 9.08475 9.71118 9.11264 9.71676 9.14053C9.72234 9.16842 9.72791 9.19631 9.72791 9.22978C9.75023 9.36365 9.75023 9.49752 9.75023 9.63139C9.75023 10.8139 9.3263 11.8849 8.63464 12.7327C8.54539 12.8666 8.43383 12.9781 8.32228 13.0897C7.42981 13.9599 6.22497 14.5177 4.86396 14.5177C4.70777 14.5177 4.55159 14.5177 4.39541 14.4953C4.35079 14.4842 4.30616 14.4786 4.26154 14.473C4.21692 14.4675 4.17229 14.4619 4.12767 14.4507C4.10536 14.4507 4.07747 14.4451 4.04958 14.4396C4.02169 14.434 3.9938 14.4284 3.97149 14.4284H3.94918C3.92686 14.4173 3.89897 14.4117 3.87109 14.4061C3.8432 14.4005 3.81531 14.3949 3.79299 14.3838C3.78375 14.3838 3.77068 14.38 3.75537 14.3755C3.73372 14.3691 3.70758 14.3615 3.68144 14.3615L3.54756 14.897C3.48063 15.2316 3.43601 15.5663 3.43601 15.8787C3.43601 17.7975 4.21692 19.5378 5.46637 20.8096C6.71583 22.0813 8.45615 22.8622 10.3973 22.8622Z" fill="#C3C5CF"/>
</svg>
