<svg width="19" height="26" viewBox="0 0 19 26" fill="none" xmlns="http://www.w3.org/2000/svg">
<mask id="path-1-outside-1" maskUnits="userSpaceOnUse" x="0" y="0" width="19" height="26" fill="black">
<rect fill="white" width="19" height="26"/>
<path fill-rule="evenodd" clip-rule="evenodd" d="M16.6 7.79996V12.2C17.7027 12.2 18.6 13.0972 18.6 14.2V23C18.6 24.1027 17.7027 25 16.6 25H3.00001C1.89728 25 1 24.1027 1 23V14.2C1 13.0973 1.89728 12.2 3.00001 12.2V7.8C3.00001 4.05038 6.0504 1 9.80001 1C13.5496 1 16.6 4.05038 16.6 7.79996ZM9.80001 1.80001C6.49163 1.80001 3.80003 4.49162 3.80003 7.8V12.2H5.00002V7.8C5.00002 5.15335 7.15336 3.00001 9.80001 3.00001C12.4467 3.00001 14.6 5.15335 14.6 7.8V12.2H15.8V7.8C15.8 4.49162 13.1084 1.80001 9.80001 1.80001ZM13.8 12.2V7.8C13.8 5.59435 12.0057 3.79998 9.80001 3.80003C7.59436 3.80003 5.80004 5.59435 5.80004 7.8V12.2H13.8ZM16.6 24.1999C17.2617 24.1999 17.8 23.6617 17.8 22.9999H17.8V14.2C17.8 13.5382 17.2617 13 16.6 13H16.2H14.2H5.40001H3.4H3.00001C2.33828 13 1.80001 13.5382 1.80001 14.2V22.9999C1.80001 23.6617 2.33828 24.1999 3.00001 24.1999H16.6ZM7.7998 17.4C7.7998 16.2973 8.69709 15.4 9.79982 15.4C10.9026 15.4 11.7998 16.2973 11.7998 17.4C11.7998 18.032 11.4984 18.625 10.9998 18.9986V20.6C10.9998 21.2617 10.4616 21.8 9.79982 21.8C9.13809 21.8 8.59982 21.2617 8.59982 20.6V18.9986C8.10116 18.625 7.7998 18.032 7.7998 17.4ZM10.1998 18.784C10.1998 18.6408 10.2764 18.5086 10.4004 18.4371C10.7701 18.2246 10.9998 17.8273 10.9998 17.4C10.9998 16.7383 10.4616 16.2 9.79982 16.2C9.13809 16.2 8.59982 16.7383 8.59982 17.4C8.59982 17.8273 8.82951 18.2246 9.19926 18.4371C9.32329 18.5086 9.39983 18.6408 9.39983 18.784V20.6C9.39983 20.8205 9.57932 21 9.79982 21C10.0203 21 10.1998 20.8205 10.1998 20.6V18.784Z"/>
</mask>
<path fill-rule="evenodd" clip-rule="evenodd" d="M16.6 7.79996V12.2C17.7027 12.2 18.6 13.0972 18.6 14.2V23C18.6 24.1027 17.7027 25 16.6 25H3.00001C1.89728 25 1 24.1027 1 23V14.2C1 13.0973 1.89728 12.2 3.00001 12.2V7.8C3.00001 4.05038 6.0504 1 9.80001 1C13.5496 1 16.6 4.05038 16.6 7.79996ZM9.80001 1.80001C6.49163 1.80001 3.80003 4.49162 3.80003 7.8V12.2H5.00002V7.8C5.00002 5.15335 7.15336 3.00001 9.80001 3.00001C12.4467 3.00001 14.6 5.15335 14.6 7.8V12.2H15.8V7.8C15.8 4.49162 13.1084 1.80001 9.80001 1.80001ZM13.8 12.2V7.8C13.8 5.59435 12.0057 3.79998 9.80001 3.80003C7.59436 3.80003 5.80004 5.59435 5.80004 7.8V12.2H13.8ZM16.6 24.1999C17.2617 24.1999 17.8 23.6617 17.8 22.9999H17.8V14.2C17.8 13.5382 17.2617 13 16.6 13H16.2H14.2H5.40001H3.4H3.00001C2.33828 13 1.80001 13.5382 1.80001 14.2V22.9999C1.80001 23.6617 2.33828 24.1999 3.00001 24.1999H16.6ZM7.7998 17.4C7.7998 16.2973 8.69709 15.4 9.79982 15.4C10.9026 15.4 11.7998 16.2973 11.7998 17.4C11.7998 18.032 11.4984 18.625 10.9998 18.9986V20.6C10.9998 21.2617 10.4616 21.8 9.79982 21.8C9.13809 21.8 8.59982 21.2617 8.59982 20.6V18.9986C8.10116 18.625 7.7998 18.032 7.7998 17.4ZM10.1998 18.784C10.1998 18.6408 10.2764 18.5086 10.4004 18.4371C10.7701 18.2246 10.9998 17.8273 10.9998 17.4C10.9998 16.7383 10.4616 16.2 9.79982 16.2C9.13809 16.2 8.59982 16.7383 8.59982 17.4C8.59982 17.8273 8.82951 18.2246 9.19926 18.4371C9.32329 18.5086 9.39983 18.6408 9.39983 18.784V20.6C9.39983 20.8205 9.57932 21 9.79982 21C10.0203 21 10.1998 20.8205 10.1998 20.6V18.784Z" fill="#C3C5CF"/>
<path d="M16.6 12.2H16.5V12.3H16.6V12.2ZM3.00001 12.2V12.3H3.10001V12.2H3.00001ZM3.80003 12.2H3.70003V12.3H3.80003V12.2ZM5.00002 12.2V12.3H5.10002V12.2H5.00002ZM14.6 12.2H14.5V12.3H14.6V12.2ZM15.8 12.2V12.3H15.9V12.2H15.8ZM13.8 12.2V12.3H13.9V12.2H13.8ZM9.80001 3.80003V3.90003H9.80002L9.80001 3.80003ZM5.80004 12.2H5.70004V12.3H5.80004V12.2ZM17.8 22.9999H17.9V22.8999H17.8V22.9999ZM17.8 22.9999H17.7V23.0999H17.8V22.9999ZM10.9998 18.9986L10.9399 18.9186L10.8998 18.9486V18.9986H10.9998ZM8.59982 18.9986H8.69982V18.9486L8.65978 18.9186L8.59982 18.9986ZM10.4004 18.4371L10.3505 18.3504L10.3504 18.3505L10.4004 18.4371ZM9.19926 18.4371L9.24919 18.3505L9.24908 18.3504L9.19926 18.4371ZM16.7 12.2V7.79996H16.5V12.2H16.7ZM18.7 14.2C18.7 13.042 17.758 12.1 16.6 12.1V12.3C17.6475 12.3 18.5 13.1525 18.5 14.2H18.7ZM18.7 23V14.2H18.5V23H18.7ZM16.6 25.1C17.7579 25.1 18.7 24.158 18.7 23H18.5C18.5 24.0475 17.6475 24.9 16.6 24.9V25.1ZM3.00001 25.1H16.6V24.9H3.00001V25.1ZM0.9 23C0.9 24.158 1.84205 25.1 3.00001 25.1V24.9C1.95251 24.9 1.1 24.0475 1.1 23H0.9ZM0.9 14.2V23H1.1V14.2H0.9ZM3.00001 12.1C1.84205 12.1 0.9 13.0421 0.9 14.2H1.1C1.1 13.1525 1.95251 12.3 3.00001 12.3V12.1ZM2.90001 7.8V12.2H3.10001V7.8H2.90001ZM9.80001 0.9C5.99517 0.9 2.90001 3.99516 2.90001 7.8H3.10001C3.10001 4.10561 6.10563 1.1 9.80001 1.1V0.9ZM16.7 7.79996C16.7 3.99516 13.6049 0.9 9.80001 0.9V1.1C13.4944 1.1 16.5 4.10561 16.5 7.79996H16.7ZM3.90003 7.8C3.90003 4.54685 6.54686 1.90001 9.80001 1.90001V1.70001C6.4364 1.70001 3.70003 4.43639 3.70003 7.8H3.90003ZM3.90003 12.2V7.8H3.70003V12.2H3.90003ZM5.00002 12.1H3.80003V12.3H5.00002V12.1ZM4.90002 7.8V12.2H5.10002V7.8H4.90002ZM9.80001 2.90001C7.09813 2.90001 4.90002 5.09812 4.90002 7.8H5.10002C5.10002 5.20858 7.20859 3.10001 9.80001 3.10001V2.90001ZM14.7 7.8C14.7 5.09812 12.5019 2.90001 9.80001 2.90001V3.10001C12.3914 3.10001 14.5 5.20858 14.5 7.8H14.7ZM14.7 12.2V7.8H14.5V12.2H14.7ZM15.8 12.1H14.6V12.3H15.8V12.1ZM15.7 7.8V12.2H15.9V7.8H15.7ZM9.80001 1.90001C13.0532 1.90001 15.7 4.54685 15.7 7.8H15.9C15.9 4.43639 13.1636 1.70001 9.80001 1.70001V1.90001ZM13.7 7.8V12.2H13.9V7.8H13.7ZM9.80002 3.90003C11.9504 3.89998 13.7 5.64958 13.7 7.8H13.9C13.9 5.53912 12.0609 3.69998 9.80001 3.70003L9.80002 3.90003ZM5.90004 7.8C5.90004 5.64958 7.64959 3.90003 9.80001 3.90003V3.70003C7.53913 3.70003 5.70004 5.53912 5.70004 7.8H5.90004ZM5.90004 12.2V7.8H5.70004V12.2H5.90004ZM13.8 12.1H5.80004V12.3H13.8V12.1ZM17.7 22.9999C17.7 23.6064 17.2065 24.0999 16.6 24.0999V24.2999C17.317 24.2999 17.9 23.7169 17.9 22.9999H17.7ZM17.8 23.0999H17.8V22.8999H17.8V23.0999ZM17.7 14.2V22.9999H17.9V14.2H17.7ZM16.6 13.1C17.2065 13.1 17.7 13.5935 17.7 14.2H17.9C17.9 13.483 17.3169 12.9 16.6 12.9V13.1ZM16.2 13.1H16.6V12.9H16.2V13.1ZM14.2 13.1H16.2V12.9H14.2V13.1ZM5.40001 13.1H14.2V12.9H5.40001V13.1ZM3.4 13.1H5.40001V12.9H3.4V13.1ZM3.00001 13.1H3.4V12.9H3.00001V13.1ZM1.90001 14.2C1.90001 13.5935 2.39351 13.1 3.00001 13.1V12.9C2.28305 12.9 1.70001 13.483 1.70001 14.2H1.90001ZM1.90001 22.9999V14.2H1.70001V22.9999H1.90001ZM3.00001 24.0999C2.39351 24.0999 1.90001 23.6064 1.90001 22.9999H1.70001C1.70001 23.7169 2.28305 24.2999 3.00001 24.2999V24.0999ZM16.6 24.0999H3.00001V24.2999H16.6V24.0999ZM9.79982 15.3C8.64186 15.3 7.6998 16.242 7.6998 17.4H7.8998C7.8998 16.3525 8.75231 15.5 9.79982 15.5V15.3ZM11.8998 17.4C11.8998 16.242 10.9578 15.3 9.79982 15.3V15.5C10.8473 15.5 11.6998 16.3525 11.6998 17.4H11.8998ZM11.0598 19.0786C11.5834 18.6863 11.8998 18.0638 11.8998 17.4H11.6998C11.6998 18.0002 11.4135 18.5637 10.9399 18.9186L11.0598 19.0786ZM11.0998 20.6V18.9986H10.8998V20.6H11.0998ZM9.79982 21.9C10.5168 21.9 11.0998 21.317 11.0998 20.6H10.8998C10.8998 21.2065 10.4063 21.7 9.79982 21.7V21.9ZM8.49982 20.6C8.49982 21.317 9.08286 21.9 9.79982 21.9V21.7C9.19331 21.7 8.69982 21.2065 8.69982 20.6H8.49982ZM8.49982 18.9986V20.6H8.69982V18.9986H8.49982ZM7.6998 17.4C7.6998 18.0638 8.01621 18.6863 8.53986 19.0786L8.65978 18.9186C8.18611 18.5637 7.8998 18.0002 7.8998 17.4H7.6998ZM10.3504 18.3505C10.1955 18.4398 10.0998 18.605 10.0998 18.784H10.2998C10.2998 18.6766 10.3572 18.5774 10.4503 18.5237L10.3504 18.3505ZM10.8998 17.4C10.8998 17.7916 10.6892 18.1557 10.3505 18.3504L10.4502 18.5238C10.8511 18.2934 11.0998 17.863 11.0998 17.4H10.8998ZM9.79982 16.3C10.4063 16.3 10.8998 16.7935 10.8998 17.4H11.0998C11.0998 16.683 10.5168 16.1 9.79982 16.1V16.3ZM8.69982 17.4C8.69982 16.7935 9.19331 16.3 9.79982 16.3V16.1C9.08286 16.1 8.49982 16.683 8.49982 17.4H8.69982ZM9.24908 18.3504C8.91044 18.1558 8.69982 17.7916 8.69982 17.4H8.49982C8.49982 17.8631 8.74858 18.2934 9.14943 18.5238L9.24908 18.3504ZM9.49984 18.784C9.49984 18.605 9.40414 18.4398 9.24919 18.3505L9.14932 18.5237C9.24243 18.5774 9.29983 18.6766 9.29983 18.784H9.49984ZM9.49984 20.6V18.784H9.29983V20.6H9.49984ZM9.79982 20.9C9.63455 20.9 9.49984 20.7653 9.49984 20.6H9.29983C9.29983 20.8757 9.52409 21.1 9.79982 21.1V20.9ZM10.0998 20.6C10.0998 20.7653 9.96509 20.9 9.79982 20.9V21.1C10.0755 21.1 10.2998 20.8757 10.2998 20.6H10.0998ZM10.0998 18.784V20.6H10.2998V18.784H10.0998Z" fill="#C3C5CF" mask="url(#path-1-outside-1)"/>
</svg>
