<svg width="24" height="24" viewBox="0 0 24 24" fill="none" xmlns="http://www.w3.org/2000/svg">
<path fill-rule="evenodd" clip-rule="evenodd" d="M15.5016 16.1607C15.3303 15.9899 15.0617 15.9645 14.8631 16.1024C14.0239 16.6803 13.0424 16.9856 12.0247 16.9856C9.26217 16.9856 7.0144 14.7378 7.0144 11.9753C7.0144 9.55915 8.73816 7.48902 11.1131 7.05204C11.3509 7.0085 11.5237 6.80103 11.5237 6.55931V0.502477C11.5237 0.362032 11.4649 0.227975 11.3612 0.133046C11.258 0.0376466 11.1181 -0.0142099 10.9796 0.00340438C4.82289 0.534323 0 5.79316 0 11.9753C0 18.6056 5.3944 24 12.0247 24C14.8454 24 17.5904 22.9994 19.7535 21.1822C19.8606 21.0916 19.9257 20.9605 19.9316 20.8201C19.9375 20.6802 19.8846 20.5437 19.7853 20.4443L15.5016 16.1607ZM12.0247 22.9979C5.94678 22.9979 1.00204 18.0532 1.00204 11.9753C1.00204 6.49181 5.14094 1.80105 10.5216 1.06224V6.15667C7.88487 6.83334 6.01235 9.21668 6.01235 11.9753C6.01235 15.2907 8.70932 17.9876 12.0247 17.9876C13.106 17.9876 14.1531 17.7004 15.0774 17.1539L18.6805 20.757C16.7703 22.2058 14.4276 22.9979 12.0247 22.9979ZM23.4977 12.4763H17.4408C17.199 12.4763 16.9916 12.649 16.948 12.8868C16.8193 13.5851 16.5517 14.2334 16.152 14.8137C16.0145 15.0128 16.0394 15.2814 16.2102 15.4522L20.4939 19.7359C20.5879 19.8303 20.7156 19.8827 20.8482 19.8827C20.8555 19.8827 20.8629 19.8827 20.8697 19.8822C21.0101 19.8763 21.1418 19.8113 21.2317 19.7041C22.8273 17.8042 23.7839 15.4928 23.9967 13.0204C24.0089 12.8805 23.9615 12.742 23.8671 12.6388C23.7721 12.535 23.6381 12.4763 23.4977 12.4763ZM20.8066 18.6316L17.2029 15.0279C17.4892 14.544 17.7035 14.0254 17.8434 13.4784H22.9378C22.683 15.3582 21.9535 17.1211 20.8066 18.6316ZM16.9479 11.0638C16.5751 9.03712 14.9629 7.42496 12.9363 7.0521C12.6984 7.00856 12.5257 6.80108 12.5258 6.55937V0.502486C12.5258 0.362041 12.5845 0.227985 12.6882 0.133055C12.7915 0.0381729 12.9338 -0.00931533 13.0699 0.00341395C18.8982 0.506432 23.4936 5.1018 23.9971 10.9302C24.0093 11.0701 23.9623 11.2086 23.8674 11.3119C23.7725 11.4156 23.6384 11.4743 23.498 11.4743H17.4406C17.1989 11.4743 16.9915 11.3016 16.9479 11.0638ZM22.9383 10.4722C22.2724 5.57006 18.4295 1.72769 13.5278 1.06225H13.5278V6.15715C15.6307 6.70127 17.2987 8.36923 17.8428 10.4722H22.9383Z" fill="#C3C5CF"/>
</svg>
