<svg width="24" height="24" viewBox="0 0 24 24" fill="none" xmlns="http://www.w3.org/2000/svg">
<path fill-rule="evenodd" clip-rule="evenodd" d="M21.0759 9.14859L22.41 9.38297C23.3295 9.54417 24.0001 10.3428 24 11.2763V12.7238C24.0013 13.6575 23.3303 14.4567 22.4105 14.617C22.079 14.6753 21.763 14.4538 21.7048 14.1223C21.6465 13.7908 21.868 13.4748 22.1995 13.4166C22.536 13.3576 22.7814 13.0653 22.7813 12.7238V11.2763C22.7805 10.9354 22.5353 10.6442 22.1995 10.5853L20.4919 10.2858C20.2586 10.2449 20.0701 10.0725 20.0086 9.84375C19.8229 9.15094 19.5476 8.48531 19.1897 7.86375C19.0705 7.65806 19.0819 7.40184 19.2188 7.2075L20.2139 5.79C20.4099 5.51039 20.3767 5.13042 20.1352 4.88906L19.1114 3.86531C18.87 3.62381 18.4901 3.59058 18.2105 3.78656L16.7925 4.78125C16.5982 4.91813 16.3419 4.92947 16.1363 4.81031C15.5147 4.45238 14.8491 4.17708 14.1563 3.99141C13.9283 3.9293 13.7567 3.74095 13.7161 3.50813L13.4166 1.80047C13.3576 1.464 13.0653 1.21861 12.7238 1.21875H11.2763C10.9356 1.21978 10.6446 1.46489 10.5858 1.80047L10.2863 3.50813C10.2453 3.74156 10.0727 3.93005 9.84375 3.99141C9.15075 4.17694 8.48494 4.45224 7.86328 4.81031C7.6576 4.92947 7.40138 4.91813 7.20703 4.78125L5.78953 3.78609C5.50992 3.59011 5.12995 3.62335 4.8886 3.86485L3.86485 4.8886C3.62334 5.12995 3.59011 5.50992 3.78609 5.78953L4.78078 7.20703C4.91766 7.40138 4.929 7.6576 4.80984 7.86328C4.45186 8.48499 4.17656 9.1508 3.99094 9.84375C3.92906 10.0718 3.74091 10.2435 3.50813 10.2844L1.80047 10.5839C1.46419 10.6429 1.21885 10.9349 1.21875 11.2763V12.7238C1.21978 13.0644 1.46489 13.3554 1.80047 13.4142L3.50766 13.7138C3.7411 13.7547 3.92963 13.9273 3.99094 14.1563C4.17666 14.8493 4.45214 15.5151 4.81031 16.1367C4.92947 16.3424 4.91813 16.5986 4.78125 16.793L3.78609 18.2105C3.59011 18.4901 3.62334 18.87 3.86485 19.1114L4.8886 20.1352C5.12995 20.3767 5.50992 20.4099 5.78953 20.2139L7.2075 19.2192C7.40184 19.0823 7.65806 19.071 7.86375 19.1902C8.48527 19.548 9.15094 19.8232 9.84375 20.0086C10.0718 20.0707 10.2433 20.2591 10.2839 20.4919L10.5834 22.1995C10.6424 22.536 10.9347 22.7814 11.2763 22.7813H12.7238C13.0651 22.7812 13.3571 22.5358 13.4161 22.1995C13.4744 21.868 13.7903 21.6465 14.1218 21.7048C14.4533 21.763 14.6748 22.079 14.6166 22.4105C14.4563 23.3302 13.6573 24.0011 12.7238 24H11.2763C10.3428 24.0011 9.54394 23.3305 9.38344 22.4109L9.14906 21.0769C8.61356 20.9095 8.094 20.6947 7.59656 20.4352L6.48891 21.2119C5.72517 21.7488 4.68586 21.6582 4.02656 20.9972L3.00281 19.9734C2.34183 19.3141 2.25122 18.2748 2.78813 17.5111L3.56531 16.4034C3.30577 15.906 3.09103 15.3864 2.92359 14.8509L1.59 14.6166C0.670689 14.4554 9.50476e-05 13.6571 1.29758e-06 12.7238V11.2763C-0.00107683 10.3427 0.669798 9.54375 1.58953 9.38344L2.92313 9.14906C3.09061 8.61356 3.30535 8.09405 3.56485 7.59656L2.78813 6.48891C2.25122 5.72517 2.34183 4.68586 3.00281 4.02656L4.02656 3.00281C4.68586 2.34183 5.72517 2.25122 6.48891 2.78813L7.59656 3.56531C8.094 3.30577 8.61356 3.09103 9.14906 2.92359L9.38344 1.59C9.54356 0.670079 10.3425 -0.00107683 11.2763 1.29704e-06H12.7238C13.6568 0.000282547 14.4548 0.670595 14.6161 1.58953L14.8505 2.92359C15.386 3.09108 15.9055 3.30581 16.403 3.56531L17.5111 2.78813C18.2748 2.25122 19.3141 2.34183 19.9734 3.00281L20.9967 4.02609C21.6577 4.68539 21.7483 5.7247 21.2114 6.48844L20.4342 7.5961C20.6937 8.09358 20.9085 8.6131 21.0759 9.14859ZM18.3708 14.3363L22.2689 18.353C22.5034 18.5945 22.4976 18.9804 22.2561 19.2148C22.0146 19.4492 21.6287 19.4435 21.3943 19.2019L17.4985 15.1875C16.741 14.4117 16.3608 13.3434 16.4579 12.2635C16.4783 12.0304 16.4809 11.796 16.4656 11.5625C16.3001 9.02858 14.1117 7.10858 11.5777 7.27409L13.1883 8.91472C14.0008 9.74304 13.988 11.0731 13.1597 11.8857L11.8594 13.1611C11.4675 13.5469 10.9393 13.7623 10.3894 13.7607H10.3688C9.81121 13.7569 9.27833 13.5302 8.88894 13.1311L7.27832 11.4905C7.25868 11.7236 7.25685 11.9577 7.27283 12.1911C7.44646 14.7245 9.64096 16.6376 12.1744 16.4639C13.2573 16.388 14.3191 16.7896 15.0807 17.5632L18.9788 21.5794C19.2132 21.821 19.2074 22.2068 18.9659 22.4412C18.7243 22.6756 18.3385 22.6699 18.1041 22.4283L14.2083 18.4144C13.6963 17.8964 12.9834 17.6282 12.2569 17.6803C11.9164 17.7036 11.5745 17.6968 11.2351 17.6601C8.0413 17.3145 5.73229 14.4453 6.07785 11.2514C6.10466 10.9855 6.22415 10.7375 6.41535 10.5507C6.87988 10.0961 7.62463 10.1032 8.08035 10.5666L9.75988 12.2789C10.101 12.6267 10.6594 12.6321 11.0072 12.2911L12.3075 11.0157L12.3078 11.0154C12.6555 10.674 12.6606 10.1155 12.3193 9.76784L10.6397 8.0555C10.1852 7.59097 10.1923 6.84622 10.6557 6.3905C10.8461 6.20319 11.0963 6.08872 11.3625 6.06706C11.7023 6.03687 12.0441 6.03664 12.3838 6.06636C15.5841 6.34611 17.9517 9.16723 17.6719 12.3675C17.6057 13.0944 17.8611 13.8139 18.3708 14.3363Z" fill="#C3C5CF"/>
</svg>
