<svg width="26" height="26" viewBox="0 0 26 26" fill="none" xmlns="http://www.w3.org/2000/svg">
<mask id="path-1-outside-1" maskUnits="userSpaceOnUse" x="0" y="0" width="26" height="26" fill="black">
<rect fill="white" width="26" height="26"/>
<path d="M24.8125 2.66673L22.0127 1.05024C21.9557 1.01733 21.891 1 21.8252 1C21.7593 1 21.6947 1.01733 21.6377 1.05024L18.8377 2.66673C18.7807 2.69964 18.7334 2.74698 18.7005 2.80398C18.6676 2.86099 18.6502 2.92565 18.6502 2.99148V6.22454C18.6502 6.29037 18.6676 6.35503 18.7005 6.41204C18.7334 6.46904 18.7807 6.51638 18.8377 6.54929L21.6377 8.16583C21.6947 8.19874 21.7593 8.21607 21.8252 8.21607C21.891 8.21607 21.9557 8.19874 22.0127 8.16583L24.8125 6.54929C24.8695 6.51638 24.9169 6.46904 24.9498 6.41204C24.9827 6.35503 25 6.29037 25 6.22454V2.99148C25 2.92565 24.9827 2.86099 24.9498 2.80398C24.9169 2.74698 24.8695 2.69964 24.8125 2.66673ZM21.8252 1.80798L23.875 2.99148L21.8252 4.17498L19.7752 2.99148L21.8252 1.80798ZM19.4002 3.64102L21.4502 4.82452V7.19171L19.4002 6.00821V3.64102ZM22.2002 7.19153V4.82452L24.25 3.64102V6.00821L22.2002 7.19153ZM14.7953 13.375V21.7402H16.3469C16.4463 21.7402 16.5417 21.7797 16.6121 21.8501C16.6824 21.9204 16.7219 22.0158 16.7219 22.1152C16.7219 22.2147 16.6824 22.3101 16.6121 22.3804C16.5417 22.4507 16.4463 22.4902 16.3469 22.4902H14.4203C14.3209 22.4902 14.2255 22.4507 14.1552 22.3804C14.0848 22.3101 14.0453 22.2147 14.0453 22.1152V13.375H12.2986C12.1992 13.375 12.1038 13.3355 12.0335 13.2652C11.9631 13.1948 11.9236 13.0995 11.9236 13C11.9236 12.9005 11.9631 12.8052 12.0335 12.7348C12.1038 12.6645 12.1992 12.625 12.2986 12.625H14.0453V3.88477C14.0453 3.78532 14.0848 3.68994 14.1552 3.61961C14.2255 3.54928 14.3209 3.50977 14.4203 3.50977H16.3469C16.4463 3.50977 16.5417 3.54928 16.6121 3.61961C16.6824 3.68994 16.7219 3.78532 16.7219 3.88477C16.7219 3.98423 16.6824 4.07961 16.6121 4.14994C16.5417 4.22027 16.4463 4.25977 16.3469 4.25977H14.7953V12.625H16.3469C16.4463 12.625 16.5417 12.6645 16.6121 12.7348C16.6824 12.8052 16.7219 12.9005 16.7219 13C16.7219 13.0995 16.6824 13.1948 16.6121 13.2652C16.5417 13.3355 16.4463 13.375 16.3469 13.375H14.7953ZM24.8125 11.0587L22.0127 9.44219C21.9557 9.40927 21.891 9.39194 21.8252 9.39194C21.7593 9.39194 21.6947 9.40927 21.6377 9.44219L18.8377 11.0587C18.7807 11.0916 18.7334 11.139 18.7005 11.196C18.6676 11.253 18.6502 11.3176 18.6502 11.3835V14.6165C18.6502 14.6823 18.6676 14.747 18.7005 14.804C18.7334 14.861 18.7807 14.9083 18.8377 14.9412L21.6377 16.5578C21.6947 16.5908 21.7593 16.6081 21.8252 16.6081C21.891 16.6081 21.9557 16.5908 22.0127 16.5578L24.8125 14.9412C24.8695 14.9083 24.9169 14.861 24.9498 14.804C24.9827 14.747 25 14.6823 25 14.6165V11.3835C25 11.3176 24.9827 11.253 24.9498 11.196C24.9169 11.139 24.8695 11.0916 24.8125 11.0587ZM21.8252 10.2L23.875 11.3835L21.8252 12.567L19.7752 11.3835L21.8252 10.2ZM19.4002 12.0328L21.4502 13.2163V15.5835L19.4002 14.4V12.0328ZM22.2002 15.5833V13.2161L24.25 12.033V14.4L22.2002 15.5833ZM24.8125 19.4505L22.0127 17.8342C21.9557 17.8013 21.891 17.784 21.8252 17.784C21.7593 17.784 21.6947 17.8013 21.6377 17.8342L18.8377 19.4507C18.7807 19.4836 18.7334 19.531 18.7005 19.588C18.6676 19.645 18.6502 19.7096 18.6502 19.7755V23.0085C18.6502 23.0743 18.6676 23.139 18.7005 23.196C18.7334 23.253 18.7807 23.3003 18.8377 23.3332L21.6377 24.9498C21.6947 24.9827 21.7593 25 21.8252 25C21.891 25 21.9557 24.9827 22.0127 24.9498L24.8125 23.3332C24.8695 23.3003 24.9169 23.253 24.9498 23.196C24.9827 23.139 25 23.0743 25 23.0085V19.7755C25 19.7096 24.9827 19.645 24.9498 19.588C24.9169 19.531 24.8695 19.4836 24.8125 19.4507V19.4505ZM21.8252 18.5922L23.875 19.7755L21.8252 20.959L19.7752 19.7755L21.8252 18.5922ZM19.4002 20.425L21.4502 21.6085V23.9757L19.4002 22.7922V20.425ZM22.2002 23.9756V21.6084L24.25 20.425V22.7922L22.2002 23.9756ZM11.0565 9.93437L6.30954 7.19387C6.25252 7.16098 6.18786 7.14367 6.12204 7.14367C6.05621 7.14367 5.99155 7.16098 5.93454 7.19387L1.1875 9.93437C1.13049 9.96729 1.08316 10.0146 1.05024 10.0716C1.01733 10.1286 1 10.1933 1 10.2591V15.7407C0.999969 15.8065 1.01728 15.8713 1.0502 15.9283C1.08311 15.9853 1.13047 16.0327 1.1875 16.0656L5.93454 18.8062C5.99153 18.8392 6.0562 18.8565 6.12204 18.8565C6.18787 18.8565 6.25254 18.8392 6.30954 18.8062L11.0565 16.0656C11.1135 16.0327 11.1608 15.9854 11.1937 15.9284C11.2266 15.8714 11.244 15.8067 11.244 15.7409V10.2593C11.244 10.1935 11.2267 10.1288 11.1938 10.0717C11.1609 10.0147 11.1135 9.9673 11.0565 9.93437ZM6.12204 7.95156L10.119 10.2592L6.12204 12.5669L2.125 10.2593L6.12204 7.95156ZM1.75 10.9089L5.74704 13.2165V17.8318L1.75 15.5242V10.9089ZM6.49704 17.8318V13.2165L10.494 10.9089V15.5242L6.49704 17.8318Z"/>
</mask>
<path d="M24.8125 2.66673L22.0127 1.05024C21.9557 1.01733 21.891 1 21.8252 1C21.7593 1 21.6947 1.01733 21.6377 1.05024L18.8377 2.66673C18.7807 2.69964 18.7334 2.74698 18.7005 2.80398C18.6676 2.86099 18.6502 2.92565 18.6502 2.99148V6.22454C18.6502 6.29037 18.6676 6.35503 18.7005 6.41204C18.7334 6.46904 18.7807 6.51638 18.8377 6.54929L21.6377 8.16583C21.6947 8.19874 21.7593 8.21607 21.8252 8.21607C21.891 8.21607 21.9557 8.19874 22.0127 8.16583L24.8125 6.54929C24.8695 6.51638 24.9169 6.46904 24.9498 6.41204C24.9827 6.35503 25 6.29037 25 6.22454V2.99148C25 2.92565 24.9827 2.86099 24.9498 2.80398C24.9169 2.74698 24.8695 2.69964 24.8125 2.66673ZM21.8252 1.80798L23.875 2.99148L21.8252 4.17498L19.7752 2.99148L21.8252 1.80798ZM19.4002 3.64102L21.4502 4.82452V7.19171L19.4002 6.00821V3.64102ZM22.2002 7.19153V4.82452L24.25 3.64102V6.00821L22.2002 7.19153ZM14.7953 13.375V21.7402H16.3469C16.4463 21.7402 16.5417 21.7797 16.6121 21.8501C16.6824 21.9204 16.7219 22.0158 16.7219 22.1152C16.7219 22.2147 16.6824 22.3101 16.6121 22.3804C16.5417 22.4507 16.4463 22.4902 16.3469 22.4902H14.4203C14.3209 22.4902 14.2255 22.4507 14.1552 22.3804C14.0848 22.3101 14.0453 22.2147 14.0453 22.1152V13.375H12.2986C12.1992 13.375 12.1038 13.3355 12.0335 13.2652C11.9631 13.1948 11.9236 13.0995 11.9236 13C11.9236 12.9005 11.9631 12.8052 12.0335 12.7348C12.1038 12.6645 12.1992 12.625 12.2986 12.625H14.0453V3.88477C14.0453 3.78532 14.0848 3.68994 14.1552 3.61961C14.2255 3.54928 14.3209 3.50977 14.4203 3.50977H16.3469C16.4463 3.50977 16.5417 3.54928 16.6121 3.61961C16.6824 3.68994 16.7219 3.78532 16.7219 3.88477C16.7219 3.98423 16.6824 4.07961 16.6121 4.14994C16.5417 4.22027 16.4463 4.25977 16.3469 4.25977H14.7953V12.625H16.3469C16.4463 12.625 16.5417 12.6645 16.6121 12.7348C16.6824 12.8052 16.7219 12.9005 16.7219 13C16.7219 13.0995 16.6824 13.1948 16.6121 13.2652C16.5417 13.3355 16.4463 13.375 16.3469 13.375H14.7953ZM24.8125 11.0587L22.0127 9.44219C21.9557 9.40927 21.891 9.39194 21.8252 9.39194C21.7593 9.39194 21.6947 9.40927 21.6377 9.44219L18.8377 11.0587C18.7807 11.0916 18.7334 11.139 18.7005 11.196C18.6676 11.253 18.6502 11.3176 18.6502 11.3835V14.6165C18.6502 14.6823 18.6676 14.747 18.7005 14.804C18.7334 14.861 18.7807 14.9083 18.8377 14.9412L21.6377 16.5578C21.6947 16.5908 21.7593 16.6081 21.8252 16.6081C21.891 16.6081 21.9557 16.5908 22.0127 16.5578L24.8125 14.9412C24.8695 14.9083 24.9169 14.861 24.9498 14.804C24.9827 14.747 25 14.6823 25 14.6165V11.3835C25 11.3176 24.9827 11.253 24.9498 11.196C24.9169 11.139 24.8695 11.0916 24.8125 11.0587ZM21.8252 10.2L23.875 11.3835L21.8252 12.567L19.7752 11.3835L21.8252 10.2ZM19.4002 12.0328L21.4502 13.2163V15.5835L19.4002 14.4V12.0328ZM22.2002 15.5833V13.2161L24.25 12.033V14.4L22.2002 15.5833ZM24.8125 19.4505L22.0127 17.8342C21.9557 17.8013 21.891 17.784 21.8252 17.784C21.7593 17.784 21.6947 17.8013 21.6377 17.8342L18.8377 19.4507C18.7807 19.4836 18.7334 19.531 18.7005 19.588C18.6676 19.645 18.6502 19.7096 18.6502 19.7755V23.0085C18.6502 23.0743 18.6676 23.139 18.7005 23.196C18.7334 23.253 18.7807 23.3003 18.8377 23.3332L21.6377 24.9498C21.6947 24.9827 21.7593 25 21.8252 25C21.891 25 21.9557 24.9827 22.0127 24.9498L24.8125 23.3332C24.8695 23.3003 24.9169 23.253 24.9498 23.196C24.9827 23.139 25 23.0743 25 23.0085V19.7755C25 19.7096 24.9827 19.645 24.9498 19.588C24.9169 19.531 24.8695 19.4836 24.8125 19.4507V19.4505ZM21.8252 18.5922L23.875 19.7755L21.8252 20.959L19.7752 19.7755L21.8252 18.5922ZM19.4002 20.425L21.4502 21.6085V23.9757L19.4002 22.7922V20.425ZM22.2002 23.9756V21.6084L24.25 20.425V22.7922L22.2002 23.9756ZM11.0565 9.93437L6.30954 7.19387C6.25252 7.16098 6.18786 7.14367 6.12204 7.14367C6.05621 7.14367 5.99155 7.16098 5.93454 7.19387L1.1875 9.93437C1.13049 9.96729 1.08316 10.0146 1.05024 10.0716C1.01733 10.1286 1 10.1933 1 10.2591V15.7407C0.999969 15.8065 1.01728 15.8713 1.0502 15.9283C1.08311 15.9853 1.13047 16.0327 1.1875 16.0656L5.93454 18.8062C5.99153 18.8392 6.0562 18.8565 6.12204 18.8565C6.18787 18.8565 6.25254 18.8392 6.30954 18.8062L11.0565 16.0656C11.1135 16.0327 11.1608 15.9854 11.1937 15.9284C11.2266 15.8714 11.244 15.8067 11.244 15.7409V10.2593C11.244 10.1935 11.2267 10.1288 11.1938 10.0717C11.1609 10.0147 11.1135 9.9673 11.0565 9.93437ZM6.12204 7.95156L10.119 10.2592L6.12204 12.5669L2.125 10.2593L6.12204 7.95156ZM1.75 10.9089L5.74704 13.2165V17.8318L1.75 15.5242V10.9089ZM6.49704 17.8318V13.2165L10.494 10.9089V15.5242L6.49704 17.8318Z" fill="#C3C5CF"/>
<path d="M24.8125 2.66673L22.0127 1.05024C21.9557 1.01733 21.891 1 21.8252 1C21.7593 1 21.6947 1.01733 21.6377 1.05024L18.8377 2.66673C18.7807 2.69964 18.7334 2.74698 18.7005 2.80398C18.6676 2.86099 18.6502 2.92565 18.6502 2.99148V6.22454C18.6502 6.29037 18.6676 6.35503 18.7005 6.41204C18.7334 6.46904 18.7807 6.51638 18.8377 6.54929L21.6377 8.16583C21.6947 8.19874 21.7593 8.21607 21.8252 8.21607C21.891 8.21607 21.9557 8.19874 22.0127 8.16583L24.8125 6.54929C24.8695 6.51638 24.9169 6.46904 24.9498 6.41204C24.9827 6.35503 25 6.29037 25 6.22454V2.99148C25 2.92565 24.9827 2.86099 24.9498 2.80398C24.9169 2.74698 24.8695 2.69964 24.8125 2.66673ZM21.8252 1.80798L23.875 2.99148L21.8252 4.17498L19.7752 2.99148L21.8252 1.80798ZM19.4002 3.64102L21.4502 4.82452V7.19171L19.4002 6.00821V3.64102ZM22.2002 7.19153V4.82452L24.25 3.64102V6.00821L22.2002 7.19153ZM14.7953 13.375V21.7402H16.3469C16.4463 21.7402 16.5417 21.7797 16.6121 21.8501C16.6824 21.9204 16.7219 22.0158 16.7219 22.1152C16.7219 22.2147 16.6824 22.3101 16.6121 22.3804C16.5417 22.4507 16.4463 22.4902 16.3469 22.4902H14.4203C14.3209 22.4902 14.2255 22.4507 14.1552 22.3804C14.0848 22.3101 14.0453 22.2147 14.0453 22.1152V13.375H12.2986C12.1992 13.375 12.1038 13.3355 12.0335 13.2652C11.9631 13.1948 11.9236 13.0995 11.9236 13C11.9236 12.9005 11.9631 12.8052 12.0335 12.7348C12.1038 12.6645 12.1992 12.625 12.2986 12.625H14.0453V3.88477C14.0453 3.78532 14.0848 3.68994 14.1552 3.61961C14.2255 3.54928 14.3209 3.50977 14.4203 3.50977H16.3469C16.4463 3.50977 16.5417 3.54928 16.6121 3.61961C16.6824 3.68994 16.7219 3.78532 16.7219 3.88477C16.7219 3.98423 16.6824 4.07961 16.6121 4.14994C16.5417 4.22027 16.4463 4.25977 16.3469 4.25977H14.7953V12.625H16.3469C16.4463 12.625 16.5417 12.6645 16.6121 12.7348C16.6824 12.8052 16.7219 12.9005 16.7219 13C16.7219 13.0995 16.6824 13.1948 16.6121 13.2652C16.5417 13.3355 16.4463 13.375 16.3469 13.375H14.7953ZM24.8125 11.0587L22.0127 9.44219C21.9557 9.40927 21.891 9.39194 21.8252 9.39194C21.7593 9.39194 21.6947 9.40927 21.6377 9.44219L18.8377 11.0587C18.7807 11.0916 18.7334 11.139 18.7005 11.196C18.6676 11.253 18.6502 11.3176 18.6502 11.3835V14.6165C18.6502 14.6823 18.6676 14.747 18.7005 14.804C18.7334 14.861 18.7807 14.9083 18.8377 14.9412L21.6377 16.5578C21.6947 16.5908 21.7593 16.6081 21.8252 16.6081C21.891 16.6081 21.9557 16.5908 22.0127 16.5578L24.8125 14.9412C24.8695 14.9083 24.9169 14.861 24.9498 14.804C24.9827 14.747 25 14.6823 25 14.6165V11.3835C25 11.3176 24.9827 11.253 24.9498 11.196C24.9169 11.139 24.8695 11.0916 24.8125 11.0587ZM21.8252 10.2L23.875 11.3835L21.8252 12.567L19.7752 11.3835L21.8252 10.2ZM19.4002 12.0328L21.4502 13.2163V15.5835L19.4002 14.4V12.0328ZM22.2002 15.5833V13.2161L24.25 12.033V14.4L22.2002 15.5833ZM24.8125 19.4505L22.0127 17.8342C21.9557 17.8013 21.891 17.784 21.8252 17.784C21.7593 17.784 21.6947 17.8013 21.6377 17.8342L18.8377 19.4507C18.7807 19.4836 18.7334 19.531 18.7005 19.588C18.6676 19.645 18.6502 19.7096 18.6502 19.7755V23.0085C18.6502 23.0743 18.6676 23.139 18.7005 23.196C18.7334 23.253 18.7807 23.3003 18.8377 23.3332L21.6377 24.9498C21.6947 24.9827 21.7593 25 21.8252 25C21.891 25 21.9557 24.9827 22.0127 24.9498L24.8125 23.3332C24.8695 23.3003 24.9169 23.253 24.9498 23.196C24.9827 23.139 25 23.0743 25 23.0085V19.7755C25 19.7096 24.9827 19.645 24.9498 19.588C24.9169 19.531 24.8695 19.4836 24.8125 19.4507V19.4505ZM21.8252 18.5922L23.875 19.7755L21.8252 20.959L19.7752 19.7755L21.8252 18.5922ZM19.4002 20.425L21.4502 21.6085V23.9757L19.4002 22.7922V20.425ZM22.2002 23.9756V21.6084L24.25 20.425V22.7922L22.2002 23.9756ZM11.0565 9.93437L6.30954 7.19387C6.25252 7.16098 6.18786 7.14367 6.12204 7.14367C6.05621 7.14367 5.99155 7.16098 5.93454 7.19387L1.1875 9.93437C1.13049 9.96729 1.08316 10.0146 1.05024 10.0716C1.01733 10.1286 1 10.1933 1 10.2591V15.7407C0.999969 15.8065 1.01728 15.8713 1.0502 15.9283C1.08311 15.9853 1.13047 16.0327 1.1875 16.0656L5.93454 18.8062C5.99153 18.8392 6.0562 18.8565 6.12204 18.8565C6.18787 18.8565 6.25254 18.8392 6.30954 18.8062L11.0565 16.0656C11.1135 16.0327 11.1608 15.9854 11.1937 15.9284C11.2266 15.8714 11.244 15.8067 11.244 15.7409V10.2593C11.244 10.1935 11.2267 10.1288 11.1938 10.0717C11.1609 10.0147 11.1135 9.9673 11.0565 9.93437ZM6.12204 7.95156L10.119 10.2592L6.12204 12.5669L2.125 10.2593L6.12204 7.95156ZM1.75 10.9089L5.74704 13.2165V17.8318L1.75 15.5242V10.9089ZM6.49704 17.8318V13.2165L10.494 10.9089V15.5242L6.49704 17.8318Z" stroke="#C3C5CF" stroke-width="0.4" mask="url(#path-1-outside-1)"/>
</svg>
