<svg width="64" height="64" viewBox="0 0 64 64" fill="none" xmlns="http://www.w3.org/2000/svg">
<g clip-path="url(#clip0)">
<path d="M63.5 4.44478L56.0337 0.134158C55.8817 0.0463894 55.7093 0.000183105 55.5337 0.000183105C55.3582 0.000183105 55.1858 0.0463894 55.0337 0.134158L47.5672 4.44478C47.4152 4.53255 47.289 4.65878 47.2012 4.8108C47.1135 4.96281 47.0673 5.13525 47.0672 5.31078V13.9323C47.0673 14.1078 47.1135 14.2803 47.2012 14.4323C47.289 14.5843 47.4152 14.7105 47.5672 14.7983L55.0337 19.109C55.1858 19.1968 55.3582 19.243 55.5337 19.243C55.7093 19.243 55.8817 19.1968 56.0337 19.109L63.5 14.7983C63.652 14.7105 63.7783 14.5843 63.866 14.4323C63.9538 14.2803 64 14.1078 64 13.9323V5.31078C64 5.13525 63.9538 4.96281 63.866 4.8108C63.7783 4.65878 63.652 4.53255 63.5 4.44478ZM55.5337 2.15478L61 5.31078L55.5337 8.46678L50.0672 5.31078L55.5337 2.15478ZM49.0672 7.04291L54.5337 10.1989V16.5114L49.0672 13.3554V7.04291ZM56.5337 16.5109V10.1989L62 7.04291V13.3554L56.5337 16.5109ZM36.7875 33.0002V55.3074H40.925C41.1902 55.3074 41.4446 55.4128 41.6321 55.6003C41.8196 55.7878 41.925 56.0422 41.925 56.3074C41.925 56.5726 41.8196 56.827 41.6321 57.0145C41.4446 57.2021 41.1902 57.3074 40.925 57.3074H35.7875C35.5223 57.3074 35.2679 57.2021 35.0804 57.0145C34.8929 56.827 34.7875 56.5726 34.7875 56.3074V33.0002H30.1296C29.8644 33.0002 29.6101 32.8948 29.4225 32.7073C29.235 32.5197 29.1296 32.2654 29.1296 32.0002C29.1296 31.7349 29.235 31.4806 29.4225 31.2931C29.6101 31.1055 29.8644 31.0002 30.1296 31.0002H34.7875V7.69291C34.7875 7.42769 34.8929 7.17334 35.0804 6.9858C35.2679 6.79826 35.5223 6.69291 35.7875 6.69291H40.925C41.1902 6.69291 41.4446 6.79826 41.6321 6.9858C41.8196 7.17334 41.925 7.42769 41.925 7.69291C41.925 7.95812 41.8196 8.21248 41.6321 8.40001C41.4446 8.58755 41.1902 8.69291 40.925 8.69291H36.7875V31.0002H40.925C41.1902 31.0002 41.4446 31.1055 41.6321 31.2931C41.8196 31.4806 41.925 31.7349 41.925 32.0002C41.925 32.2654 41.8196 32.5197 41.6321 32.7073C41.4446 32.8948 41.1902 33.0002 40.925 33.0002H36.7875ZM63.5 26.8234L56.0337 22.5127C55.8817 22.4249 55.7093 22.3787 55.5337 22.3787C55.3582 22.3787 55.1858 22.4249 55.0337 22.5127L47.5672 26.8234C47.4152 26.9112 47.289 27.0374 47.2012 27.1894C47.1135 27.3414 47.0673 27.5139 47.0672 27.6894V36.3108C47.0673 36.4863 47.1135 36.6588 47.2012 36.8108C47.289 36.9628 47.4152 37.089 47.5672 37.1768L55.0337 41.4877C55.1857 41.5755 55.3582 41.6218 55.5337 41.6218C55.7093 41.6218 55.8818 41.5755 56.0337 41.4877L63.5 37.1768C63.652 37.089 63.7783 36.9628 63.866 36.8108C63.9538 36.6588 64 36.4863 64 36.3108V27.6894C64 27.5139 63.9538 27.3414 63.866 27.1894C63.7783 27.0374 63.652 26.9112 63.5 26.8234ZM55.5337 24.5334L61 27.6894L55.5337 30.8454L50.0672 27.6894L55.5337 24.5334ZM49.0672 29.4209L54.5337 32.577V38.8895L49.0672 35.7334V29.4209ZM56.5337 38.889V32.5765L62 29.4215V35.7334L56.5337 38.889ZM63.5 49.2015L56.0337 44.8914C55.8817 44.8036 55.7093 44.7574 55.5337 44.7574C55.3582 44.7574 55.1858 44.8036 55.0337 44.8914L47.5672 49.202C47.4152 49.2898 47.289 49.416 47.2012 49.568C47.1135 49.7201 47.0673 49.8925 47.0672 50.068V58.6895C47.0673 58.865 47.1135 59.0375 47.2013 59.1894C47.289 59.3414 47.4153 59.4676 47.5672 59.5554L55.0337 63.8662C55.1858 63.9539 55.3582 64.0001 55.5337 64.0001C55.7093 64.0001 55.8817 63.9539 56.0337 63.8662L63.5 59.5554C63.652 59.4676 63.7782 59.3414 63.866 59.1894C63.9538 59.0375 64 58.865 64 58.6895V50.068C64 49.8925 63.9538 49.7201 63.866 49.568C63.7783 49.416 63.652 49.2898 63.5 49.202V49.2015ZM55.5337 46.9127L61 50.068L55.5337 53.224L50.0672 50.068L55.5337 46.9127ZM49.0672 51.8002L54.5337 54.9562V61.2687L49.0672 58.1127V51.8002ZM56.5337 61.2683V54.9558L62 51.8002V58.1127L56.5337 61.2683ZM26.8172 23.8252L14.1587 16.5172C14.0067 16.4295 13.8343 16.3833 13.6587 16.3833C13.4832 16.3833 13.3108 16.4295 13.1587 16.5172L0.5 23.8252C0.347985 23.9129 0.221749 24.0392 0.133981 24.1912C0.046213 24.3432 4.57184e-06 24.5156 1.12623e-07 24.6912V39.3087C-8.32232e-05 39.4843 0.0460835 39.6568 0.133856 39.8089C0.221629 39.961 0.347911 40.0873 0.5 40.1752L13.1587 47.4834C13.3107 47.5713 13.4832 47.6175 13.6587 47.6175C13.8343 47.6175 14.0068 47.5713 14.1587 47.4834L26.8172 40.1752C26.9693 40.0874 27.0955 39.9612 27.1833 39.8091C27.271 39.6571 27.3172 39.4847 27.3172 39.3092V24.6917C27.3173 24.516 27.2712 24.3435 27.1834 24.1914C27.0956 24.0393 26.9693 23.913 26.8172 23.8252ZM13.6587 18.5377L24.3172 24.6914L13.6587 30.8452L3 24.6917L13.6587 18.5377ZM2 26.4238L12.6587 32.5775V44.8849L2 38.7313V26.4238ZM14.6587 44.8849V32.5775L25.3172 26.4238V38.7313L14.6587 44.8849Z" fill="#6AD035"/>
</g>
<defs>
<clipPath id="clip0">
<rect width="64" height="64" fill="white"/>
</clipPath>
</defs>
</svg>
