<?xml version="1.0" encoding="utf-8"?>
<!-- Generator: Adobe Illustrator 21.0.0, SVG Export Plug-In . SVG Version: 6.00 Build 0)  -->
<svg version="1.1" xmlns="http://www.w3.org/2000/svg" xmlns:xlink="http://www.w3.org/1999/xlink" x="0px" y="0px"
	 viewBox="0 0 51.6 55.7" style="enable-background:new 0 0 51.6 55.7;" xml:space="preserve">
<style type="text/css">
	.st0{stroke:#000000;stroke-width:0.3;stroke-miterlimit:10;}
	.st1{fill:#6DD338;}
	.st2{fill:#FFFFFF;}
</style>
<g id="Слой_1">
	<g>
		<g>
			<g>
				<g>
					<path class="st1" d="M22.2,23.6c0,0,6.4-2.9,10.8-5c4.4-2.1,9.1-5.6,9.5-10.3c0.2-3.3-3.6-6.1-9-7.4c-5.5-1.3-13.1-1-15.1,1
						c-2.2,2.2-2.3,4.9-0.5,10C19.7,16.8,22.2,23.6,22.2,23.6z"/>
				</g>
				<g>
					<path class="st1" d="M23.5,27c0,0,4.2,11.3,5.7,15.5s4,11.5,11,8.2s14.1-25.5,10.6-30.8C46.7,14.1,28.1,25.3,23.5,27z"/>
				</g>
				<g>
					<path class="st1" d="M20.2,28.5c0,0,2.4,6.4,4,10.9c1.6,4.6,2.8,12,0.4,15.1c-1.7,2.1-7,1-10-0.8C10.9,51.5,5,47.8,4.1,43.2
						c-1-5.1,2.8-8.4,7.6-10.7C16.6,30.2,20.2,28.5,20.2,28.5z"/>
				</g>
				<g>
					<path class="st1" d="M18.9,25.1c0,0-2.5-6.6-4.2-11.4C13,8.9,10.2,5.7,5.6,9.6C1.4,13.1,0.2,20.4,0,24.2c-0.3,5.2,2.4,8.6,8,6
						C13.6,27.6,18.9,25.1,18.9,25.1z"/>
				</g>
			</g>
		</g>
	</g>
</g>
<g id="Слой_2">
</g>
</svg>
