<svg width="114" height="32" viewBox="0 0 114 32" fill="none" xmlns="http://www.w3.org/2000/svg">
<path d="M19.3506 21.4592C18.6339 22.176 17.098 22.4318 16.0035 22.4318C14.9058 22.4318 13.3731 22.176 12.6563 21.4592C12.4866 21.2895 12.2147 21.2895 12.0452 21.4592C11.8755 21.6288 11.8755 21.9008 12.0452 22.0703C13.1812 23.2062 15.3636 23.2958 16.0035 23.2958C16.6434 23.2958 18.8226 23.2062 19.962 22.0703C20.1282 21.9006 20.1282 21.6286 19.962 21.4592C19.7923 21.2895 19.5203 21.2895 19.3506 21.4592Z" fill="#696E87"/>
<path d="M13.9995 17.6672C13.9995 16.7488 13.2507 16 12.3323 16C11.4141 16 10.665 16.7488 10.665 17.6672C10.665 18.5854 11.4141 19.3345 12.3323 19.3345C13.2507 19.3345 13.9995 18.5857 13.9995 17.6672Z" fill="#696E87"/>
<path d="M16 0C7.16479 0 0 7.16479 0 16C0 24.8352 7.16479 32 16 32C24.8352 32 32 24.8352 32 16C32 7.16479 24.8352 0 16 0ZM25.2832 18.1343C25.3184 18.3647 25.3376 18.5984 25.3376 18.8352C25.3376 22.4255 21.1584 25.3345 16.0032 25.3345C10.8479 25.3345 6.6687 22.4255 6.6687 18.8352C6.6687 18.5952 6.68799 18.3584 6.72314 18.1279C5.9104 17.7632 5.34399 16.9473 5.34399 16C5.34399 14.7136 6.38721 13.6672 7.67676 13.6672C8.30396 13.6672 8.87036 13.9136 9.28955 14.3169C10.9087 13.1489 13.1489 12.4031 15.6416 12.3391C15.6416 12.3071 16.8064 6.7583 16.8064 6.7583C16.8289 6.64966 16.8928 6.55664 16.9856 6.49609C17.0784 6.4353 17.1904 6.41602 17.2993 6.43848L21.1777 7.26392C21.4497 6.71362 22.0095 6.33276 22.6655 6.33276C23.5872 6.33276 24.3328 7.07837 24.3328 8C24.3328 8.92163 23.5872 9.66724 22.6655 9.66724C21.7727 9.66724 21.0496 8.96313 21.0081 8.08008L17.5359 7.34082L16.4736 12.3425C18.9216 12.4287 21.1201 13.1711 22.7136 14.3232C23.1328 13.917 23.7024 13.6672 24.3328 13.6672C25.6226 13.6672 26.6655 14.7104 26.6655 16C26.6655 16.9536 26.0928 17.7695 25.2832 18.1343Z" fill="#696E87"/>
<path d="M19.6672 16C18.7488 16 18 16.7488 18 17.6672C18 18.5854 18.7488 19.3345 19.6672 19.3345C20.5854 19.3345 21.3345 18.5854 21.3345 17.6672C21.3345 16.7488 20.5857 16 19.6672 16Z" fill="#696E87"/>
<path d="M64.0743 22L60.9063 16.924H59.4483V22H57.3963V9.292H61.8783C63.3303 9.292 64.4283 9.646 65.1723 10.354C65.9283 11.062 66.3063 11.998 66.3063 13.162C66.3063 14.158 66.0243 14.974 65.4603 15.61C64.9083 16.246 64.1043 16.654 63.0483 16.834L66.3783 22H64.0743ZM59.4483 15.466H61.7163C63.3723 15.466 64.2003 14.734 64.2003 13.27C64.2003 12.574 63.9963 12.034 63.5883 11.65C63.1923 11.254 62.5683 11.056 61.7163 11.056H59.4483V15.466ZM77.3701 16.564C77.3701 16.9 77.3461 17.194 77.2981 17.446H69.6661C69.7021 18.466 69.9841 19.222 70.5121 19.714C71.0401 20.206 71.6941 20.452 72.4741 20.452C73.1581 20.452 73.7341 20.278 74.2021 19.93C74.6821 19.582 74.9761 19.12 75.0841 18.544H77.2801C77.1481 19.24 76.8721 19.858 76.4521 20.398C76.0321 20.938 75.4861 21.364 74.8141 21.676C74.1421 21.976 73.3921 22.126 72.5641 22.126C71.6041 22.126 70.7521 21.922 70.0081 21.514C69.2761 21.106 68.7001 20.518 68.2801 19.75C67.8601 18.982 67.6501 18.076 67.6501 17.032C67.6501 16 67.8601 15.1 68.2801 14.332C68.7001 13.564 69.2761 12.976 70.0081 12.568C70.7521 12.16 71.6041 11.956 72.5641 11.956C73.5361 11.956 74.3821 12.16 75.1021 12.568C75.8341 12.964 76.3921 13.516 76.7761 14.224C77.1721 14.92 77.3701 15.7 77.3701 16.564ZM75.3001 16.51C75.3241 15.862 75.2101 15.322 74.9581 14.89C74.7181 14.446 74.3821 14.122 73.9501 13.918C73.5301 13.702 73.0681 13.594 72.5641 13.594C71.7601 13.594 71.0881 13.84 70.5481 14.332C70.0081 14.824 69.7141 15.55 69.6661 16.51H75.3001ZM83.3294 11.956C84.2294 11.956 84.9974 12.178 85.6334 12.622C86.2694 13.066 86.7134 13.654 86.9654 14.386V8.68H89.0354V22H86.9654V19.696C86.7134 20.428 86.2694 21.016 85.6334 21.46C84.9974 21.904 84.2294 22.126 83.3294 22.126C82.4654 22.126 81.6914 21.922 81.0074 21.514C80.3354 21.106 79.8074 20.518 79.4234 19.75C79.0394 18.982 78.8474 18.076 78.8474 17.032C78.8474 16 79.0394 15.1 79.4234 14.332C79.8074 13.564 80.3354 12.976 81.0074 12.568C81.6914 12.16 82.4654 11.956 83.3294 11.956ZM83.9594 13.756C83.0474 13.756 82.3154 14.05 81.7634 14.638C81.2234 15.214 80.9534 16.012 80.9534 17.032C80.9534 18.052 81.2234 18.856 81.7634 19.444C82.3154 20.02 83.0474 20.308 83.9594 20.308C84.5354 20.308 85.0514 20.176 85.5074 19.912C85.9634 19.636 86.3234 19.252 86.5874 18.76C86.8514 18.268 86.9834 17.692 86.9834 17.032C86.9834 16.384 86.8514 15.814 86.5874 15.322C86.3234 14.818 85.9634 14.434 85.5074 14.17C85.0514 13.894 84.5354 13.756 83.9594 13.756ZM95.4759 11.956C96.3759 11.956 97.1439 12.178 97.7799 12.622C98.4159 13.066 98.8599 13.654 99.1119 14.386V8.68H101.182V22H99.1119V19.696C98.8599 20.428 98.4159 21.016 97.7799 21.46C97.1439 21.904 96.3759 22.126 95.4759 22.126C94.6119 22.126 93.8379 21.922 93.1539 21.514C92.4819 21.106 91.9539 20.518 91.5699 19.75C91.1859 18.982 90.9939 18.076 90.9939 17.032C90.9939 16 91.1859 15.1 91.5699 14.332C91.9539 13.564 92.4819 12.976 93.1539 12.568C93.8379 12.16 94.6119 11.956 95.4759 11.956ZM96.1059 13.756C95.1939 13.756 94.4619 14.05 93.9099 14.638C93.3699 15.214 93.0999 16.012 93.0999 17.032C93.0999 18.052 93.3699 18.856 93.9099 19.444C94.4619 20.02 95.1939 20.308 96.1059 20.308C96.6819 20.308 97.1979 20.176 97.6539 19.912C98.1099 19.636 98.4699 19.252 98.7339 18.76C98.9979 18.268 99.1299 17.692 99.1299 17.032C99.1299 16.384 98.9979 15.814 98.7339 15.322C98.4699 14.818 98.1099 14.434 97.6539 14.17C97.1979 13.894 96.6819 13.756 96.1059 13.756ZM103.356 9.202C103.356 8.854 103.476 8.566 103.716 8.338C103.956 8.11 104.274 7.996 104.67 7.996C105.066 7.996 105.384 8.11 105.624 8.338C105.876 8.566 106.002 8.854 106.002 9.202C106.002 9.55 105.876 9.832 105.624 10.048C105.384 10.264 105.066 10.372 104.67 10.372C104.274 10.372 103.956 10.264 103.716 10.048C103.476 9.832 103.356 9.55 103.356 9.202ZM105.696 12.082V22H103.644V12.082H105.696ZM113.166 20.218V22H111.906C110.85 22 110.046 21.748 109.494 21.244C108.954 20.728 108.684 19.876 108.684 18.688V13.828H107.262V12.082H108.684V9.616H110.754V12.082H113.148V13.828H110.754V18.724C110.754 19.288 110.856 19.678 111.06 19.894C111.276 20.11 111.648 20.218 112.176 20.218H113.166Z" fill="white"/>
</svg>
