<svg width="126" height="32" viewBox="0 0 126 32" fill="none" xmlns="http://www.w3.org/2000/svg">
<g clip-path="url(#clip0)">
<path d="M12.4372 13.424C11.9928 13.4625 11.5789 13.6663 11.2774 13.9951C10.9759 14.3239 10.8086 14.7539 10.8086 15.2C10.8086 15.6461 10.9759 16.076 11.2774 16.4048C11.5789 16.7336 11.9928 16.9374 12.4372 16.976C12.6611 16.9667 12.8809 16.9134 13.0841 16.8191C13.2873 16.7248 13.4699 16.5914 13.6215 16.4264C13.7731 16.2614 13.8907 16.0682 13.9675 15.8578C14.0443 15.6473 14.0789 15.4238 14.0692 15.2C14.0801 14.9759 14.0464 14.7518 13.9701 14.5408C13.8937 14.3298 13.7762 14.1361 13.6244 13.9709C13.4726 13.8057 13.2895 13.6723 13.0857 13.5784C12.8819 13.4845 12.6615 13.432 12.4372 13.424ZM18.2772 13.424C17.9195 13.3936 17.5609 13.472 17.2485 13.6489C16.9361 13.8257 16.6843 14.0927 16.5261 14.4151C16.368 14.7374 16.3109 15.0999 16.3622 15.4552C16.4136 15.8106 16.571 16.1421 16.8139 16.4065C17.0569 16.6708 17.3739 16.8557 17.7237 16.9368C18.0734 17.018 18.4395 16.9916 18.774 16.8612C19.1085 16.7308 19.3958 16.5025 19.5984 16.2061C19.8009 15.9097 19.9093 15.559 19.9092 15.2C19.9189 14.9762 19.8843 14.7526 19.8075 14.5422C19.7307 14.3317 19.6131 14.1385 19.4615 13.9736C19.3099 13.8086 19.1273 13.6752 18.9241 13.5808C18.7209 13.4865 18.5011 13.4332 18.2772 13.424Z" fill="#696E87"/>
<path d="M26.053 0H4.61302C4.18123 0.0010493 3.75388 0.0871353 3.35536 0.253343C2.95684 0.419551 2.59497 0.662625 2.29039 0.968687C1.98581 1.27475 1.7445 1.63781 1.58024 2.03713C1.41597 2.43645 1.33197 2.86421 1.33302 3.296V24.9333C1.33197 25.3651 1.41597 25.7929 1.58024 26.1922C1.7445 26.5915 1.98581 26.9546 2.29039 27.2606C2.59497 27.5667 2.95684 27.8098 3.35536 27.976C3.75388 28.1422 4.18123 28.2283 4.61302 28.2293H22.757L21.909 25.2693L23.957 27.1733L25.893 28.96L29.333 32V3.296C29.3341 2.86421 29.2501 2.43645 29.0858 2.03713C28.9215 1.63781 28.6802 1.27475 28.3756 0.968687C28.0711 0.662625 27.7092 0.419551 27.3107 0.253343C26.9122 0.0871353 26.4848 0.0010493 26.053 0V0ZM19.877 20.896C19.877 20.896 19.301 20.208 18.821 19.6C19.9808 19.3269 21.0066 18.6525 21.717 17.696C21.1413 18.0791 20.524 18.3958 19.877 18.64C19.1327 18.9577 18.3542 19.1886 17.557 19.328C16.1867 19.5803 14.7813 19.5749 13.413 19.312C12.6115 19.1545 11.826 18.9242 11.0663 18.624C10.4248 18.379 9.8129 18.0623 9.24235 17.68C9.92706 18.6165 10.9175 19.2843 12.0423 19.568C11.5624 20.176 10.9757 20.9013 10.9757 20.9013C10.0253 20.9269 9.08312 20.7184 8.23217 20.2944C7.38121 19.8703 6.64753 19.2436 6.09568 18.4693C6.14683 15.2239 6.93466 12.0324 8.39968 9.136C9.68825 8.12398 11.2592 7.53696 12.8957 7.456L13.0557 7.648C11.5124 8.02774 10.0719 8.74343 8.83702 9.744C8.83702 9.744 9.18902 9.552 9.78102 9.28C10.9308 8.75319 12.1566 8.4112 13.413 8.26667C13.5008 8.24843 13.59 8.23773 13.6797 8.23467C14.7519 8.09497 15.8369 8.08422 16.9117 8.20267C18.604 8.39667 20.242 8.92031 21.733 9.744C20.5638 8.79227 19.2059 8.09966 17.749 7.712L17.973 7.456C19.6095 7.53696 21.1805 8.12398 22.469 9.136C23.934 12.0324 24.7219 15.2239 24.773 18.4693C24.2162 19.2419 23.4791 19.8668 22.6259 20.2897C21.7726 20.7126 20.829 20.9207 19.877 20.896Z" fill="#696E87"/>
</g>
<path d="M68.6266 15.628C68.6266 16.912 68.3626 18.034 67.8346 18.994C67.3186 19.942 66.5566 20.68 65.5486 21.208C64.5526 21.736 63.3586 22 61.9666 22H57.7186V9.292H61.9666C63.3586 9.292 64.5526 9.556 65.5486 10.084C66.5566 10.6 67.3186 11.332 67.8346 12.28C68.3626 13.228 68.6266 14.344 68.6266 15.628ZM61.8046 20.146C63.3286 20.146 64.4986 19.75 65.3146 18.958C66.1306 18.166 66.5386 17.056 66.5386 15.628C66.5386 14.2 66.1306 13.09 65.3146 12.298C64.4986 11.506 63.3286 11.11 61.8046 11.11H59.7706V20.146H61.8046ZM70.4032 9.202C70.4032 8.854 70.5232 8.566 70.7632 8.338C71.0032 8.11 71.3212 7.996 71.7172 7.996C72.1132 7.996 72.4312 8.11 72.6712 8.338C72.9232 8.566 73.0492 8.854 73.0492 9.202C73.0492 9.55 72.9232 9.832 72.6712 10.048C72.4312 10.264 72.1132 10.372 71.7172 10.372C71.3212 10.372 71.0032 10.264 70.7632 10.048C70.5232 9.832 70.4032 9.55 70.4032 9.202ZM72.7432 12.082V22H70.6912V12.082H72.7432ZM78.4844 11.956C79.6484 11.956 80.5784 12.256 81.2744 12.856C81.9824 13.444 82.4144 14.236 82.5704 15.232H80.6264C80.5424 14.692 80.3084 14.26 79.9244 13.936C79.5524 13.6 79.0544 13.432 78.4304 13.432C77.9144 13.432 77.5124 13.558 77.2244 13.81C76.9484 14.05 76.8104 14.38 76.8104 14.8C76.8104 15.112 76.9124 15.364 77.1164 15.556C77.3204 15.748 77.5724 15.898 77.8724 16.006C78.1844 16.114 78.6224 16.234 79.1864 16.366C79.9304 16.534 80.5304 16.708 80.9864 16.888C81.4544 17.068 81.8504 17.356 82.1744 17.752C82.5104 18.136 82.6784 18.664 82.6784 19.336C82.6784 20.164 82.3604 20.836 81.7244 21.352C81.1004 21.868 80.2544 22.126 79.1864 22.126C77.9504 22.126 76.9484 21.838 76.1804 21.262C75.4244 20.686 74.9684 19.882 74.8124 18.85H76.8104C76.8704 19.39 77.1104 19.828 77.5304 20.164C77.9504 20.5 78.5024 20.668 79.1864 20.668C79.6784 20.668 80.0624 20.542 80.3384 20.29C80.6264 20.026 80.7704 19.696 80.7704 19.3C80.7704 18.952 80.6624 18.676 80.4464 18.472C80.2304 18.268 79.9604 18.112 79.6364 18.004C79.3124 17.884 78.8684 17.764 78.3044 17.644C77.5844 17.476 76.9964 17.308 76.5404 17.14C76.0964 16.972 75.7124 16.702 75.3884 16.33C75.0764 15.946 74.9204 15.43 74.9204 14.782C74.9204 13.942 75.2324 13.264 75.8564 12.748C76.4924 12.22 77.3684 11.956 78.4844 11.956ZM89.1461 11.956C90.4301 11.956 91.4921 12.298 92.3321 12.982C93.1721 13.654 93.6941 14.572 93.8981 15.736H91.7201C91.6001 15.112 91.3061 14.626 90.8381 14.278C90.3821 13.918 89.8061 13.738 89.1101 13.738C88.3181 13.738 87.6581 14.02 87.1301 14.584C86.6021 15.136 86.3381 15.952 86.3381 17.032C86.3381 18.112 86.6021 18.934 87.1301 19.498C87.6581 20.062 88.3181 20.344 89.1101 20.344C89.8061 20.344 90.3821 20.164 90.8381 19.804C91.3061 19.444 91.6001 18.952 91.7201 18.328H93.8981C93.6941 19.492 93.1721 20.416 92.3321 21.1C91.4921 21.784 90.4301 22.126 89.1461 22.126C88.1861 22.126 87.3341 21.922 86.5901 21.514C85.8581 21.106 85.2821 20.518 84.8621 19.75C84.4421 18.982 84.2321 18.076 84.2321 17.032C84.2321 16 84.4421 15.1 84.8621 14.332C85.2821 13.564 85.8581 12.976 86.5901 12.568C87.3341 12.16 88.1861 11.956 89.1461 11.956ZM100.417 11.956C101.377 11.956 102.241 12.16 103.009 12.568C103.777 12.976 104.377 13.564 104.809 14.332C105.241 15.1 105.457 16 105.457 17.032C105.457 18.076 105.241 18.982 104.809 19.75C104.377 20.518 103.777 21.106 103.009 21.514C102.241 21.922 101.377 22.126 100.417 22.126C99.4567 22.126 98.5927 21.922 97.8247 21.514C97.0687 21.106 96.4687 20.518 96.0247 19.75C95.5927 18.97 95.3767 18.064 95.3767 17.032C95.3767 16 95.5927 15.1 96.0247 14.332C96.4687 13.564 97.0687 12.976 97.8247 12.568C98.5927 12.16 99.4567 11.956 100.417 11.956ZM100.417 13.738C99.8887 13.738 99.4027 13.858 98.9587 14.098C98.5147 14.338 98.1547 14.71 97.8787 15.214C97.6147 15.706 97.4827 16.312 97.4827 17.032C97.4827 17.764 97.6147 18.376 97.8787 18.868C98.1547 19.36 98.5147 19.726 98.9587 19.966C99.4027 20.206 99.8887 20.326 100.417 20.326C100.945 20.326 101.431 20.206 101.875 19.966C102.319 19.726 102.673 19.36 102.937 18.868C103.213 18.376 103.351 17.764 103.351 17.032C103.351 16.312 103.213 15.706 102.937 15.214C102.673 14.71 102.319 14.338 101.875 14.098C101.431 13.858 100.945 13.738 100.417 13.738ZM109.482 14.026C109.818 13.378 110.298 12.868 110.922 12.496C111.546 12.112 112.266 11.92 113.082 11.92V14.152H112.47C111.57 14.152 110.844 14.374 110.292 14.818C109.752 15.25 109.482 15.97 109.482 16.978V22H107.43V12.082H109.482V14.026ZM118.597 11.956C119.497 11.956 120.265 12.178 120.901 12.622C121.537 13.066 121.981 13.654 122.233 14.386V8.68H124.303V22H122.233V19.696C121.981 20.428 121.537 21.016 120.901 21.46C120.265 21.904 119.497 22.126 118.597 22.126C117.733 22.126 116.959 21.922 116.275 21.514C115.603 21.106 115.075 20.518 114.691 19.75C114.307 18.982 114.115 18.076 114.115 17.032C114.115 16 114.307 15.1 114.691 14.332C115.075 13.564 115.603 12.976 116.275 12.568C116.959 12.16 117.733 11.956 118.597 11.956ZM119.227 13.756C118.315 13.756 117.583 14.05 117.031 14.638C116.491 15.214 116.221 16.012 116.221 17.032C116.221 18.052 116.491 18.856 117.031 19.444C117.583 20.02 118.315 20.308 119.227 20.308C119.803 20.308 120.319 20.176 120.775 19.912C121.231 19.636 121.591 19.252 121.855 18.76C122.119 18.268 122.251 17.692 122.251 17.032C122.251 16.384 122.119 15.814 121.855 15.322C121.591 14.818 121.231 14.434 120.775 14.17C120.319 13.894 119.803 13.756 119.227 13.756Z" fill="white"/>
<defs>
<clipPath id="clip0">
<rect width="32" height="32" fill="white"/>
</clipPath>
</defs>
</svg>
