<svg width="118" height="32" viewBox="0 0 118 32" fill="none" xmlns="http://www.w3.org/2000/svg">
<path d="M32 6.13332C30.8 6.66665 29.6 7.06665 28.2667 7.19998C29.6 6.39998 30.6667 5.06665 31.2 3.59998C29.8667 4.39998 28.5333 4.93332 27.0667 5.19998C25.8667 3.86665 24.1333 3.06665 22.2667 3.06665C18.6667 3.06665 15.7333 5.99998 15.7333 9.59998C15.7333 10.1333 15.7333 10.6667 15.8667 11.0667C10.2667 10.8 5.46667 8.13332 2.26667 4.13332C1.6 5.19998 1.33333 6.26665 1.33333 7.46665C1.33333 9.73332 2.53333 11.7333 4.26667 12.9333C3.2 12.9333 2.13333 12.6667 1.33333 12.1333C1.33333 12.1333 1.33333 12.1333 1.33333 12.2667C1.33333 15.4667 3.6 18.1333 6.53333 18.6667C6 18.8 5.46667 18.9333 4.8 18.9333C4.4 18.9333 4 18.9333 3.6 18.8C4.4 21.4667 6.8 23.3333 9.73333 23.3333C7.46667 25.0667 4.66667 26.1333 1.6 26.1333C1.06667 26.1333 0.533333 26.1333 0 26C2.93333 27.8667 6.4 28.9333 10 28.9333C22.1333 28.9333 28.6667 18.9333 28.6667 10.2667C28.6667 9.99998 28.6667 9.73332 28.6667 9.46665C30 8.53332 31.0667 7.33332 32 6.13332Z" fill="#696E87"/>
<path d="M65.5468 9.292V10.948H62.0008V22H59.9308V10.948H56.4028V9.292H65.5468ZM80.9739 12.082L78.2199 22H75.9519L73.5039 14.332L71.0199 22H68.7699L66.0159 12.082H68.0859L69.9759 20.11L72.4599 12.082H74.6199L77.1399 20.11L79.0299 12.082H80.9739ZM82.0829 9.202C82.0829 8.854 82.2029 8.566 82.4429 8.338C82.6829 8.11 83.0009 7.996 83.3969 7.996C83.7929 7.996 84.1109 8.11 84.3509 8.338C84.6029 8.566 84.7289 8.854 84.7289 9.202C84.7289 9.55 84.6029 9.832 84.3509 10.048C84.1109 10.264 83.7929 10.372 83.3969 10.372C83.0009 10.372 82.6829 10.264 82.4429 10.048C82.2029 9.832 82.0829 9.55 82.0829 9.202ZM84.4229 12.082V22H82.3709V12.082H84.4229ZM91.8921 20.218V22H90.6321C89.5761 22 88.7721 21.748 88.2201 21.244C87.6801 20.728 87.4101 19.876 87.4101 18.688V13.828H85.9881V12.082H87.4101V9.616H89.4801V12.082H91.8741V13.828H89.4801V18.724C89.4801 19.288 89.5821 19.678 89.7861 19.894C90.0021 20.11 90.3741 20.218 90.9021 20.218H91.8921ZM98.8003 20.218V22H97.5403C96.4843 22 95.6803 21.748 95.1283 21.244C94.5883 20.728 94.3183 19.876 94.3183 18.688V13.828H92.8963V12.082H94.3183V9.616H96.3883V12.082H98.7823V13.828H96.3883V18.724C96.3883 19.288 96.4903 19.678 96.6943 19.894C96.9103 20.11 97.2823 20.218 97.8103 20.218H98.8003ZM109.938 16.564C109.938 16.9 109.914 17.194 109.866 17.446H102.234C102.27 18.466 102.552 19.222 103.08 19.714C103.608 20.206 104.262 20.452 105.042 20.452C105.726 20.452 106.302 20.278 106.77 19.93C107.25 19.582 107.544 19.12 107.652 18.544H109.848C109.716 19.24 109.44 19.858 109.02 20.398C108.6 20.938 108.054 21.364 107.382 21.676C106.71 21.976 105.96 22.126 105.132 22.126C104.172 22.126 103.32 21.922 102.576 21.514C101.844 21.106 101.268 20.518 100.848 19.75C100.428 18.982 100.218 18.076 100.218 17.032C100.218 16 100.428 15.1 100.848 14.332C101.268 13.564 101.844 12.976 102.576 12.568C103.32 12.16 104.172 11.956 105.132 11.956C106.104 11.956 106.95 12.16 107.67 12.568C108.402 12.964 108.96 13.516 109.344 14.224C109.74 14.92 109.938 15.7 109.938 16.564ZM107.868 16.51C107.892 15.862 107.778 15.322 107.526 14.89C107.286 14.446 106.95 14.122 106.518 13.918C106.098 13.702 105.636 13.594 105.132 13.594C104.328 13.594 103.656 13.84 103.116 14.332C102.576 14.824 102.282 15.55 102.234 16.51H107.868ZM113.972 14.026C114.308 13.378 114.788 12.868 115.412 12.496C116.036 12.112 116.756 11.92 117.572 11.92V14.152H116.96C116.06 14.152 115.334 14.374 114.782 14.818C114.242 15.25 113.972 15.97 113.972 16.978V22H111.92V12.082H113.972V14.026Z" fill="white"/>
</svg>
