<svg width="187" height="32" viewBox="0 0 187 32" fill="none" xmlns="http://www.w3.org/2000/svg">
<path fill-rule="evenodd" clip-rule="evenodd" d="M27.5662 19.122C27.0081 19.4747 26.351 19.5184 25.8515 19.2367C25.2169 18.8784 24.868 18.0394 24.868 16.8726V13.3815C24.868 11.6956 24.2015 10.496 23.087 10.1721C21.1982 9.62185 19.7777 11.9329 19.2439 12.8008L15.9127 18.2018V11.6004C15.8753 10.0816 15.382 9.17307 14.4454 8.89912C13.8257 8.71805 12.8985 8.79063 11.9978 10.169L4.53478 22.1526C3.53566 20.2558 3.01482 18.1438 3.01751 16C3.01751 8.78127 8.80249 2.90888 15.9127 2.90888C23.023 2.90888 28.8072 8.78127 28.8072 16C28.8072 16.0125 28.8103 16.0234 28.8111 16.0351C28.8111 16.0476 28.8087 16.0585 28.8095 16.071C28.8766 17.4689 28.424 18.5811 27.5662 19.1227V19.122ZM31.6723 16.0008V16V15.9641L31.6716 15.9282C31.6318 7.13678 24.5785 0 15.912 0C7.22278 0 0.152344 7.17737 0.152344 16C0.152344 24.8219 7.22278 32 15.9127 32C19.9002 32 23.7059 30.4843 26.6273 27.7331C27.208 27.1867 27.2423 26.2665 26.7038 25.678C26.577 25.5383 26.4236 25.4252 26.2526 25.3454C26.0816 25.2657 25.8964 25.2209 25.7079 25.2136C25.5193 25.2063 25.3312 25.2368 25.1546 25.3031C24.9779 25.3695 24.8163 25.4704 24.6792 25.6C22.3112 27.8423 19.1739 29.0917 15.9127 29.0911C12.1055 29.0911 8.67995 27.406 6.31742 24.7337L13.0476 13.927V18.9089C13.0476 21.3019 13.9756 22.0753 14.7537 22.3017C15.5326 22.528 16.7229 22.3735 17.9724 20.3442L21.6743 14.343C21.7929 14.1495 21.9022 13.9824 22.0021 13.838V16.8726C22.0021 19.1095 22.8981 20.8983 24.4599 21.7795C25.8679 22.574 27.638 22.5022 29.0803 21.5922C30.8286 20.4878 31.7707 18.4531 31.6723 16.0008ZM53.6142 10.5342C53.9927 10.7645 54.3205 11.2765 54.3205 11.7378C54.3205 12.48 53.6899 13.0942 52.9836 13.0942C52.8072 13.0942 52.6308 13.0435 52.4794 12.992C51.6466 12.3778 50.5875 11.968 49.4776 11.968C46.8552 11.968 45.039 14.1182 45.039 16.7805C45.039 19.4435 46.8552 21.568 49.4776 21.568C50.7888 21.568 51.9494 21.0302 52.8321 20.2115C53.0602 20.0476 53.3334 19.9582 53.6142 19.9555C54.3205 19.9555 54.8755 20.5182 54.8755 21.2355C54.8755 21.696 54.5976 22.1058 54.2448 22.336C52.9836 23.4115 51.2688 24.128 49.5034 24.128C45.4682 24.128 42.1886 20.8 42.1886 16.704C42.1886 12.608 45.4675 9.28 49.5034 9.28C51.0167 9.28 52.4536 9.74049 53.6142 10.5342ZM60.9929 13.632C63.7418 13.632 66.0622 15.9618 66.0622 18.8285C66.0622 21.696 63.7418 24.128 60.9929 24.128C58.1176 24.128 55.7215 21.696 55.7215 18.8285C55.7215 15.9618 58.1176 13.632 60.9929 13.632ZM60.9672 21.568C62.1785 21.568 63.2119 20.416 63.2119 18.8542C63.2119 17.2933 62.1785 16.32 60.9672 16.32C59.6559 16.32 58.5711 17.2675 58.5711 18.8542C58.5711 20.416 59.6559 21.568 60.9672 21.568ZM67.791 22.5405V15.2195C67.791 14.4258 68.4216 13.76 69.2037 13.76C69.9857 13.76 70.6413 14.4258 70.6413 15.2195V22.5405C70.6413 23.3342 69.9857 24 69.2037 24C68.4216 24 67.791 23.3342 67.791 22.5405ZM67.5646 10.9955C67.5646 10.048 68.2952 9.28 69.2037 9.28C70.1363 9.28 70.8934 10.048 70.8934 10.9955C70.8934 11.9165 70.1363 12.6595 69.2037 12.6595C68.2952 12.6595 67.5646 11.9165 67.5646 10.9955ZM76.1032 18.5725V22.5405C76.1032 23.3342 75.4476 24 74.6647 24C73.8835 24 73.252 23.3342 73.252 22.5405V14.8862C73.252 14.272 73.757 13.76 74.3627 13.76C74.9676 13.76 75.4476 14.272 75.4476 14.8862C76.6074 13.8115 77.6158 13.632 78.5742 13.632C81.4245 13.632 82.6858 15.7822 82.6858 18.2142V22.5405C82.6858 23.3342 82.0302 24 81.2481 24C80.4661 24 79.8355 23.3342 79.8355 22.5405V18.5725C79.8355 17.3182 79.6841 16.2685 77.8936 16.2685C76.6323 16.2685 76.1024 17.3182 76.1024 18.5725H76.1032ZM91.9557 20.0835C91.6279 20.0835 91.4015 19.9298 91.2243 19.7245L87.8948 16.1155V22.5405C87.8948 23.3342 87.2392 24 86.4571 24C85.6751 24 85.0444 23.3342 85.0444 22.5405V9.81854C85.0852 9.71136 85.1581 9.61937 85.253 9.55512C85.348 9.49086 85.4605 9.45748 85.5752 9.45951C85.8265 9.45951 86.0279 9.66478 86.18 9.81854L91.4764 15.783C91.6279 15.9625 91.8292 16.0648 91.9307 16.0648C92.0314 16.0648 92.2327 15.9625 92.3841 15.7838L97.6813 9.81854C97.8327 9.66478 98.0341 9.45951 98.2862 9.45951C98.5383 9.45951 98.7404 9.61327 98.8161 9.81854V22.5405C98.8161 23.3342 98.1855 24 97.4035 24C96.6214 24 95.9658 23.3342 95.9658 22.5405V16.1155L92.637 19.7245C92.4599 19.9298 92.2327 20.0835 91.9557 20.0835ZM105.665 21.568C106.951 21.568 108.035 20.416 108.035 18.8542C108.035 17.2933 106.926 16.2685 105.665 16.2685C104.404 16.2685 103.394 17.3182 103.394 18.8542C103.394 20.3645 104.404 21.568 105.665 21.568ZM108.692 22.8738L108.64 22.5405C108.086 23.641 106.32 24.128 105.185 24.128C102.511 24.128 100.544 21.696 100.544 18.8285C100.544 15.9618 102.562 13.632 105.336 13.632C105.816 13.632 107.405 13.76 108.64 15.2195L108.691 14.8862C108.691 14.272 109.17 13.76 109.776 13.76C110.381 13.76 110.885 14.272 110.885 14.8862V22.8738C110.885 23.488 110.381 24 109.775 24C109.17 24 108.69 23.488 108.69 22.8738H108.692ZM118.794 16.2685H118.491C116.7 16.3715 116.347 17.3955 116.347 18.5725V22.5405C116.347 23.3342 115.692 24 114.91 24C114.128 24 113.497 23.3342 113.497 22.5405V14.8862C113.497 14.272 114.001 13.76 114.607 13.76C115.213 13.76 115.692 14.272 115.692 14.8862C116.751 13.888 117.609 13.6835 118.491 13.632H118.769C119.45 13.632 120.08 14.2205 120.08 14.9635C120.08 15.6542 119.475 16.2685 118.794 16.2685ZM129.779 21.8755C129.905 22.08 129.981 22.3102 129.981 22.5662C129.981 23.3085 129.3 24 128.568 24C128.064 24 127.635 23.616 127.307 23.2062L124.029 19.392V22.5405C124.029 23.3342 123.373 24 122.591 24C121.809 24 121.178 23.3342 121.178 22.5405V10.919C121.178 10.1245 121.809 9.45951 122.591 9.45951C123.373 9.45951 124.028 10.1245 124.028 10.919V18.1635L127.307 14.528C127.635 14.144 128.038 13.76 128.543 13.76C129.25 13.76 129.905 14.4258 129.905 15.168C129.905 15.3982 129.855 15.6285 129.728 15.8338L127.131 18.6747L129.779 21.8747V21.8755ZM135.367 16.32C134.585 16.32 133.324 16.7298 133.324 17.9325H137.435C137.435 16.704 136.123 16.32 135.366 16.32H135.367ZM139.099 19.7502H133.324C133.324 21.4658 134.963 21.7218 135.694 21.7218C136.225 21.7218 136.981 21.6195 137.561 21.3627C137.738 21.2355 138.04 21.1325 138.292 21.1325C138.923 21.1325 139.452 21.671 139.452 22.311C139.452 22.7458 139.175 23.1298 138.822 23.3342C137.94 23.9742 136.804 24.128 135.72 24.128C132.845 24.128 130.449 22.567 130.449 18.9565C130.449 16.1155 131.911 13.632 135.316 13.632C138.065 13.632 140.159 15.424 140.209 18.624C140.209 19.2382 139.705 19.7502 139.099 19.7502ZM147.033 24.128H146.251C144.081 24.128 142.821 23.1805 142.821 19.776V16.2685H142.09C141.408 16.2685 140.803 15.6542 140.803 14.9635C140.803 14.2205 141.408 13.632 142.09 13.632H142.821V10.9182C142.821 10.1245 143.451 9.45873 144.234 9.45873C145.015 9.45873 145.671 10.1245 145.671 10.9182V13.632H146.856C147.537 13.632 148.143 14.2205 148.143 14.9635C148.143 15.6542 147.537 16.2685 146.856 16.2685H145.671V19.2125C145.671 21.1582 145.772 21.568 146.63 21.568H147.033C147.714 21.568 148.294 22.1315 148.294 22.848C148.294 23.5395 147.714 24.128 147.033 24.128ZM160.843 10.5342C161.221 10.7645 161.549 11.2765 161.549 11.7378C161.549 12.48 160.919 13.0942 160.212 13.0942C160.036 13.0942 159.859 13.0435 159.708 12.992C158.875 12.3778 157.816 11.968 156.706 11.968C154.084 11.968 152.267 14.1182 152.267 16.7805C152.267 19.4435 154.083 21.568 156.706 21.568C158.018 21.568 159.178 21.0302 160.061 20.2115C160.289 20.0476 160.562 19.9582 160.843 19.9555C161.549 19.9555 162.104 20.5182 162.104 21.2355C162.104 21.696 161.826 22.1058 161.474 22.336C160.212 23.4115 158.497 24.128 156.731 24.128C152.696 24.128 149.418 20.8 149.418 16.704C149.418 12.608 152.696 9.28 156.731 9.28C158.246 9.28 159.682 9.74049 160.843 10.5342ZM168.07 21.568C169.357 21.568 170.441 20.416 170.441 18.8542C170.441 17.2933 169.331 16.2685 168.07 16.2685C166.809 16.2685 165.8 17.3182 165.8 18.8542C165.8 20.3645 166.809 21.568 168.07 21.568H168.07ZM171.096 22.8738L171.046 22.5405C170.491 23.641 168.726 24.128 167.59 24.128C164.917 24.128 162.95 21.696 162.95 18.8285C162.95 15.9618 164.968 13.632 167.742 13.632C168.221 13.632 169.81 13.76 171.046 15.2195L171.096 14.8862C171.096 14.272 171.576 13.76 172.181 13.76C172.786 13.76 173.291 14.272 173.291 14.8862V22.8738C173.291 23.488 172.786 24 172.181 24C171.576 24 171.096 23.488 171.096 22.8738ZM181.123 21.568C182.385 21.568 183.393 20.3645 183.393 18.8542C183.393 17.3182 182.385 16.2685 181.123 16.2685C179.862 16.2685 178.752 17.2925 178.752 18.8542C178.752 20.416 179.837 21.568 181.123 21.568ZM178.752 23.2835V26.9182C178.752 27.712 178.097 28.3778 177.314 28.3778C176.533 28.3778 175.902 27.712 175.902 26.9182V14.8862C175.902 14.272 176.407 13.76 177.012 13.76C177.617 13.76 178.097 14.272 178.097 14.9885C179.156 13.888 180.468 13.632 181.451 13.632C184.226 13.632 186.243 15.9618 186.243 18.8285C186.243 21.696 184.276 24.128 181.602 24.128C180.77 24.128 179.534 23.872 178.752 23.2835Z" fill="white"/>
</svg>
