<svg width="105" height="32" viewBox="0 0 105 32" fill="none" xmlns="http://www.w3.org/2000/svg">
<path d="M35.9762 15.7982C35.9484 15.0354 36.0759 14.2748 36.3511 13.5621C36.6263 12.8494 37.0436 12.1995 37.5777 11.6512C38.1119 11.1029 38.752 10.6676 39.4596 10.3715C40.1673 10.0754 40.9278 9.92454 41.6955 9.92797C44.5883 9.92797 46.3005 11.6156 46.817 13.5969L45.0016 14.2059C44.8419 13.4673 44.4196 12.8106 43.8124 12.3564C43.2051 11.9022 42.4536 11.6809 41.6955 11.7331C39.8211 11.7331 37.9467 13.0905 37.9467 15.8349C37.9467 18.5792 39.7768 19.8854 41.7176 19.8854C42.4798 19.9073 43.2275 19.6741 43.8404 19.223C44.4534 18.7719 44.8961 18.1291 45.0976 17.3978L46.8613 17.9702C46.5593 19.0867 45.8822 20.0668 44.9425 20.7476C44.0027 21.4284 42.8568 21.7689 41.6955 21.7124C40.9209 21.7269 40.1516 21.582 39.4359 21.2869C38.7202 20.9918 38.0736 20.5528 37.5367 19.9975C36.9997 19.4422 36.5838 18.7825 36.3153 18.0599C36.0468 17.3373 35.9314 16.5673 35.9762 15.7982Z" fill="#375BD2"/>
<path d="M50.3596 21.441H48.5V9.89862H50.3596V14.4261C50.6305 14.1076 50.9704 13.8543 51.3539 13.6853C51.7374 13.5163 52.1544 13.4359 52.5736 13.4501C54.4997 13.4501 55.4295 14.8223 55.4295 16.532V21.441H53.6215V16.8475C53.6554 16.6241 53.6382 16.3959 53.5712 16.1799C53.5042 15.964 53.3892 15.7658 53.2347 15.6002C53.0801 15.4346 52.89 15.3056 52.6784 15.223C52.4669 15.1404 52.2394 15.1063 52.0127 15.1232C51.7878 15.1234 51.5654 15.17 51.3595 15.2601C51.1537 15.3503 50.969 15.482 50.817 15.6469C50.6651 15.8117 50.5493 16.0062 50.4769 16.218C50.4045 16.4297 50.3771 16.6541 50.3966 16.8769L50.3596 21.441Z" fill="#375BD2"/>
<path d="M59.5842 16.9943L61.5841 16.6861C62.0342 16.6274 62.1596 16.3999 62.1596 16.1284C62.1596 15.4753 61.7169 14.947 60.6837 14.947C60.4845 14.93 60.2839 14.9534 60.094 15.0158C59.9041 15.0783 59.729 15.1783 59.5793 15.3101C59.4295 15.4418 59.3083 15.6025 59.2228 15.7822C59.1374 15.962 59.0896 16.1572 59.0824 16.3559L57.385 15.9743C57.5252 14.6315 58.7502 13.4354 60.6689 13.4354C63.0748 13.4354 63.9898 14.7929 63.9898 16.3705V20.2229C63.9856 20.6407 64.0176 21.0581 64.0858 21.4703H62.3515C62.292 21.1436 62.2673 20.8116 62.2777 20.4798C62.0187 20.8745 61.6605 21.1953 61.2386 21.4102C60.8166 21.6251 60.3455 21.7268 59.8719 21.7051C59.5418 21.7321 59.2095 21.6923 58.8953 21.588C58.5811 21.4837 58.2914 21.3171 58.0437 21.0983C57.7961 20.8794 57.5956 20.613 57.4545 20.315C57.3134 20.017 57.2345 19.6936 57.2227 19.3644C57.2227 17.9482 58.2484 17.1851 59.5842 16.9943ZM62.1596 18.2417V17.8895L60.1229 18.1903C59.8461 18.1998 59.5836 18.3148 59.3899 18.5115C59.1961 18.7083 59.086 18.9716 59.0824 19.247C59.0847 19.3891 59.1166 19.5292 59.1763 19.6584C59.2359 19.7877 59.3218 19.9031 59.4286 19.9976C59.5355 20.0921 59.6609 20.1636 59.7968 20.2074C59.9329 20.2512 60.0765 20.2665 60.2188 20.2522C60.4875 20.2795 60.759 20.2455 61.0126 20.1528C61.2662 20.0602 61.4952 19.9113 61.6823 19.7175C61.8694 19.5237 62.0096 19.2901 62.0923 19.0344C62.175 18.7787 62.198 18.5076 62.1596 18.2417Z" fill="#375BD2"/>
<path d="M67.1481 9.73721C67.3092 9.73524 67.4691 9.76513 67.6186 9.82517C67.768 9.88512 67.904 9.97394 68.0186 10.0866C68.1333 10.1992 68.2243 10.3333 68.2864 10.4812C68.3485 10.6291 68.3805 10.7877 68.3805 10.948C68.3805 11.2671 68.253 11.5732 68.026 11.7989C67.7991 12.0246 67.4912 12.1514 67.1702 12.1514C66.8492 12.1514 66.5414 12.0246 66.3145 11.7989C66.0874 11.5732 65.96 11.2671 65.96 10.948C65.9599 10.6319 66.0841 10.3283 66.3061 10.102C66.5281 9.87585 66.8303 9.74486 67.1481 9.73721ZM66.2404 21.4777V13.6776H68.078V21.441L66.2404 21.4777Z" fill="#375BD2"/>
<path d="M72.3431 21.441H70.4834V13.6777H72.2988V14.7123C72.5344 14.3151 72.8733 13.9883 73.2796 13.7662C73.6861 13.5441 74.1452 13.4349 74.6087 13.4501C76.5126 13.4501 77.4277 14.8223 77.4277 16.532V21.441H75.568V16.8475C75.568 15.8937 75.1326 15.1232 73.9666 15.1232C73.7345 15.1246 73.5054 15.1748 73.2941 15.2705C73.083 15.3662 72.8946 15.5053 72.7412 15.6784C72.5879 15.8517 72.4732 16.0552 72.4045 16.2757C72.3359 16.4961 72.315 16.7286 72.3431 16.9576V21.441Z" fill="#375BD2"/>
<path d="M79.6934 21.441V9.89862H81.553V21.441H79.6934Z" fill="#375BD2"/>
<path d="M84.8737 9.73724C85.1967 9.73724 85.5064 9.8648 85.7348 10.0919C85.9634 10.3189 86.0914 10.6269 86.0914 10.948C86.0897 11.1853 86.0175 11.417 85.8844 11.6138C85.7508 11.8106 85.5618 11.9636 85.3409 12.0538C85.12 12.144 84.8773 12.1672 84.6432 12.1206C84.4091 12.0738 84.1941 11.9594 84.0254 11.7915C83.8566 11.6237 83.7415 11.41 83.6945 11.1772C83.6476 10.9444 83.671 10.7031 83.7616 10.4835C83.8523 10.264 84.0063 10.0759 84.2042 9.94313C84.4021 9.81034 84.635 9.7387 84.8737 9.73724ZM83.9587 21.4777V13.6777H85.8036V21.441L83.9587 21.4777Z" fill="#375BD2"/>
<path d="M90.0696 21.4411H88.21V13.6777H90.0181V14.7123C90.2543 14.3162 90.5935 13.9903 90.9998 13.7683C91.4061 13.5464 91.8648 13.4366 92.3278 13.4502C94.2389 13.4502 95.1537 14.8223 95.1537 16.5321V21.4411H93.2941V16.8476C93.3284 16.6241 93.3113 16.3959 93.2443 16.18C93.1773 15.964 93.0622 15.7659 92.9076 15.6002C92.7529 15.4346 92.5631 15.3057 92.351 15.223C92.1397 15.1405 91.912 15.1063 91.6853 15.1232C91.4542 15.1245 91.2249 15.1747 91.0144 15.2704C90.8031 15.3662 90.615 15.5054 90.4621 15.6788C90.3092 15.8521 90.1959 16.0558 90.128 16.2763C90.0601 16.4968 90.0404 16.7289 90.0696 16.9577V21.4411Z" fill="#375BD2"/>
<path d="M101.515 16.9576L104.792 21.441H102.512L100.217 18.2417L99.2571 19.247V21.4483H97.4121V9.89862H99.2571V16.8181L102.254 13.6777H104.726L101.515 16.9576Z" fill="#375BD2"/>
<path d="M13.9402 6.7801L21.9841 11.3735V20.5971L13.9624 25.22L5.91852 20.6339V11.4102L13.9402 6.7801ZM13.9402 0L10.9884 1.70236L2.95188 6.3325L0 8.03487V11.4249V20.6412V24.0312L2.95188 25.7189L10.9958 30.3123L13.9476 32L16.8996 30.2976L24.9213 25.6676L27.8732 23.9725V20.5825V11.3588V7.96882L24.9213 6.28114L16.8774 1.68769L13.9256 0H13.9402Z" fill="#375BD2"/>
</svg>
